<svg xmlns="http://www.w3.org/2000/svg" style="display:none">
<symbol id="leftnav" viewBox="0 0 322 768">
<defs>
<clipPath id="clip1">
  <path d="M 0 0 L 321.441406 0 L 321.441406 767.976562 L 0 767.976562 Z M 0 0 "/>
</clipPath>
<clipPath id="clip2">
  <path d="M 200 472 L 321.441406 472 L 321.441406 592 L 200 592 Z M 200 472 "/>
</clipPath>
<clipPath id="clip3">
  <path d="M 226 352 L 321.441406 352 L 321.441406 472 L 226 472 Z M 226 352 "/>
</clipPath>
<clipPath id="clip4">
  <path d="M 252 231 L 321.441406 231 L 321.441406 348 L 252 348 Z M 252 231 "/>
</clipPath>
<clipPath id="clip5">
  <path d="M 0 673 L 67 673 L 67 767.976562 L 0 767.976562 Z M 0 673 "/>
</clipPath>
<clipPath id="clip6">
  <path d="M 149 714 L 267 714 L 267 767.976562 L 149 767.976562 Z M 149 714 "/>
</clipPath>
<clipPath id="clip7">
  <path d="M 267 677 L 321.441406 677 L 321.441406 767.976562 L 267 767.976562 Z M 267 677 "/>
</clipPath>
<clipPath id="clip8">
  <path d="M 277 110 L 321.441406 110 L 321.441406 222 L 277 222 Z M 277 110 "/>
</clipPath>
<clipPath id="clip9">
  <path d="M 194 467 L 321.441406 467 L 321.441406 597 L 194 597 Z M 194 467 "/>
</clipPath>
<clipPath id="clip10">
  <path d="M 293 570 L 321.441406 570 L 321.441406 664 L 293 664 Z M 293 570 "/>
</clipPath>
<clipPath id="clip11">
  <path d="M 220 347 L 321.441406 347 L 321.441406 477 L 220 477 Z M 220 347 "/>
</clipPath>
<clipPath id="clip12">
  <path d="M 246 226 L 321.441406 226 L 321.441406 353 L 246 353 Z M 246 226 "/>
</clipPath>
<clipPath id="clip13">
  <path d="M 144 709 L 272 709 L 272 767.976562 L 144 767.976562 Z M 144 709 "/>
</clipPath>
<clipPath id="clip14">
  <path d="M 301 14 L 321.441406 14 L 321.441406 97 L 301 97 Z M 301 14 "/>
</clipPath>
<clipPath id="clip15">
  <path d="M 271 105 L 321.441406 105 L 321.441406 227 L 271 227 Z M 271 105 "/>
</clipPath>
<clipPath id="clip16">
  <path d="M 0 669 L 72 669 L 72 767.976562 L 0 767.976562 Z M 0 669 "/>
</clipPath>
<clipPath id="clip17">
  <path d="M 62 753 L 138 753 L 138 767.976562 L 62 767.976562 Z M 62 753 "/>
</clipPath>
<clipPath id="clip18">
  <path d="M 261 672 L 321.441406 672 L 321.441406 767.976562 L 261 767.976562 Z M 261 672 "/>
</clipPath>
<clipPath id="clip19">
  <path d="M 287 563 L 321.441406 563 L 321.441406 669 L 287 669 Z M 287 563 "/>
</clipPath>
<clipPath id="clip20">
  <path d="M 219 0 L 321.441406 0 L 321.441406 33 L 219 33 Z M 219 0 "/>
</clipPath>
<clipPath id="clip21">
  <path d="M 295 7 L 321.441406 7 L 321.441406 102 L 295 102 Z M 295 7 "/>
</clipPath>
<clipPath id="clip22">
  <path d="M 55 748 L 143 748 L 143 767.976562 L 55 767.976562 Z M 55 748 "/>
</clipPath>
<clipPath id="clip23">
  <path d="M 312 470 L 321.441406 470 L 321.441406 506 L 312 506 Z M 312 470 "/>
</clipPath>
<clipPath id="clip24">
  <path d="M 318 477 L 321.441406 477 L 321.441406 492 L 318 492 Z M 318 477 "/>
</clipPath>
</defs>
<g id="surface1">
<g clip-path="url(#clip1)" clip-rule="nonzero">
<path style=" stroke:none;fill-rule:nonzero;fill:rgb(0%,0%,0%);fill-opacity:1;" d="M 0 0 L 321.441406 0 L 321.441406 768 L 0 768 Z M 0 0 "/>
</g>
<g clip-path="url(#clip2)" clip-rule="nonzero">
<path style=" stroke:none;fill-rule:nonzero;fill:rgb(0%,0%,0%);fill-opacity:1;" d="M 241.96875 472.453125 C 248.367188 473.980469 255.875 475.347656 262.382812 476.6875 L 303.734375 485.253906 L 315.347656 520.066406 C 316.621094 523.878906 319.867188 534.308594 321.441406 537.46875 L 321.441406 547.226562 L 282.003906 591.722656 C 275.5 590.652344 267.570312 588.796875 261.011719 587.4375 L 220.191406 579.023438 C 213.921875 559.53125 206.992188 538.859375 200.257812 519.527344 C 213.625 504.578125 229.339844 487.632812 241.96875 472.453125 Z M 241.96875 472.453125 "/>
</g>
<path style=" stroke:none;fill-rule:nonzero;fill:rgb(0%,0%,0%);fill-opacity:1;" d="M 34.066406 430.265625 L 75.191406 438.566406 C 81.011719 439.742188 90.164062 441.894531 95.808594 442.683594 L 109.035156 482.453125 C 111.035156 488.449219 114.0625 496.710938 115.707031 502.601562 L 89.058594 532.351562 C 84.382812 537.597656 78.398438 543.933594 74 549.265625 C 53.539062 545.117188 32.785156 540.703125 12.304688 536.789062 L 3.972656 511.769531 C 3.332031 509.851562 0.773438 501.902344 0 500.542969 L 0 468.597656 C 10.867188 455.828125 22.890625 442.859375 34.066406 430.265625 Z M 34.066406 430.265625 "/>
<g clip-path="url(#clip3)" clip-rule="nonzero">
<path style=" stroke:none;fill-rule:nonzero;fill:rgb(0%,0%,0%);fill-opacity:1;" d="M 268.011719 352.449219 C 272.96875 353.738281 280.246094 355.015625 285.476562 356.097656 L 321.441406 363.59375 L 321.441406 456.421875 L 307.917969 471.714844 C 301.714844 470.707031 294.054688 468.902344 287.800781 467.613281 L 246.128906 459.039062 C 240.292969 439.929688 232.636719 418.472656 226.210938 399.4375 C 230.855469 394.574219 235.941406 388.5625 240.453125 383.488281 Z M 268.011719 352.449219 "/>
</g>
<path style=" stroke:none;fill-rule:nonzero;fill:rgb(0%,0%,0%);fill-opacity:1;" d="M 0 0 L 78.132812 0 C 84.433594 19.035156 90.800781 39.492188 97.527344 58.265625 C 83.640625 73.519531 69.210938 89.984375 55.675781 105.59375 C 38.058594 101.371094 17.914062 97.695312 0 94.011719 Z M 0 0 "/>
<path style=" stroke:none;fill-rule:nonzero;fill:rgb(0%,0%,0%);fill-opacity:1;" d="M 8.351562 550.46875 L 49.390625 558.964844 C 55.175781 560.160156 64.589844 561.792969 70.070312 563.277344 C 76.675781 582.988281 83.621094 603.023438 89.988281 622.78125 L 48.28125 669.703125 C 33.75 666.96875 14.304688 663.167969 0 659.75 L 0 560.015625 Z M 8.351562 550.46875 "/>
<path style=" stroke:none;fill-rule:nonzero;fill:rgb(0%,0%,0%);fill-opacity:1;" d="M 0 109.285156 C 17.214844 112.617188 35.726562 116.996094 52.804688 119.941406 C 58.980469 139.058594 65.867188 160.679688 72.664062 179.484375 L 44.550781 211.140625 C 40.269531 215.972656 35.269531 221.925781 30.886719 226.539062 L 10.210938 222.304688 C 7.632812 221.785156 2.464844 220.585938 0 220.316406 Z M 0 109.285156 "/>
<g clip-path="url(#clip4)" clip-rule="nonzero">
<path style=" stroke:none;fill-rule:nonzero;fill:rgb(0%,0%,0%);fill-opacity:1;" d="M 293.890625 231.222656 L 321.441406 236.832031 L 321.441406 347.769531 C 305.140625 344.53125 288.28125 341.214844 272.066406 337.699219 C 267.453125 322.863281 262.039062 308.136719 257.308594 293.328125 C 255.683594 288.246094 253.925781 283.042969 252.097656 278.039062 C 256.832031 273.078125 262.109375 266.875 266.738281 261.699219 Z M 293.890625 231.222656 "/>
</g>
<path style=" stroke:none;fill-rule:nonzero;fill:rgb(0%,0%,0%);fill-opacity:1;" d="M 93.609375 0 L 208.460938 0 L 214.96875 19.5625 C 201.023438 34.890625 186.867188 51.003906 173.191406 66.589844 C 167.054688 64.953125 158.25 63.40625 151.890625 62.09375 L 111.503906 53.761719 C 106.167969 36.328125 99.410156 17.394531 93.609375 0 Z M 93.609375 0 "/>
<g clip-path="url(#clip5)" clip-rule="nonzero">
<path style=" stroke:none;fill-rule:nonzero;fill:rgb(0%,0%,0%);fill-opacity:1;" d="M 0 673.734375 L 30.484375 680.019531 C 35.15625 680.980469 41.605469 682.097656 46.109375 683.269531 L 66.03125 742.765625 L 43.582031 768 L 0 768 Z M 0 673.734375 "/>
</g>
<g clip-path="url(#clip6)" clip-rule="nonzero">
<path style=" stroke:none;fill-rule:nonzero;fill:rgb(0%,0%,0%);fill-opacity:1;" d="M 191.117188 714.484375 L 231.179688 722.75 C 237.917969 724.140625 246.214844 725.621094 252.796875 727.289062 L 266.480469 768 L 151.589844 768 L 149.347656 761.429688 C 162.96875 746.449219 177.980469 729.828125 191.117188 714.484375 Z M 191.117188 714.484375 "/>
</g>
<path style=" stroke:none;fill-rule:nonzero;fill:rgb(0%,0%,0%);fill-opacity:1;" d="M 0 233.773438 C 9.617188 235.734375 19.71875 237.632812 29.253906 239.792969 C 35.546875 259.164062 42.34375 280.417969 49.144531 299.53125 C 35.65625 314.523438 20.414062 330.988281 7.410156 346.285156 L 0 344.75 Z M 0 233.773438 "/>
<g clip-path="url(#clip7)" clip-rule="nonzero">
<path style=" stroke:none;fill-rule:nonzero;fill:rgb(0%,0%,0%);fill-opacity:1;" d="M 308.898438 677.4375 C 312.828125 678.382812 317.4375 679.203125 321.441406 680.011719 L 321.441406 768 L 281.777344 768 C 276.675781 754.480469 272.082031 738.246094 267.109375 724.296875 Z M 308.898438 677.4375 "/>
</g>
<g clip-path="url(#clip8)" clip-rule="nonzero">
<path style=" stroke:none;fill-rule:nonzero;fill:rgb(0%,0%,0%);fill-opacity:1;" d="M 277.050781 157.050781 C 291.234375 142.109375 304.515625 125.464844 318.808594 110.558594 C 319.222656 110.128906 320.863281 110.734375 321.441406 110.878906 L 321.441406 221.746094 C 313.601562 219.945312 304.960938 218.371094 297.023438 216.765625 C 293.414062 205.664062 289.742188 194.585938 286.007812 183.527344 C 283.136719 174.929688 280.183594 165.496094 277.050781 157.050781 Z M 277.050781 157.050781 "/>
</g>
<g clip-path="url(#clip9)" clip-rule="nonzero">
<path style=" stroke:none;fill-rule:nonzero;fill:rgb(99.607843%,73.725492%,34.901962%);fill-opacity:1;" d="M 240.148438 467.476562 C 242.855469 468.140625 246.042969 468.808594 248.796875 469.285156 C 268.214844 472.648438 288.105469 478.199219 307.523438 481.230469 C 308.902344 486.597656 312.214844 495.589844 314.035156 501.105469 C 316.109375 507.40625 318.984375 516.980469 321.441406 522.859375 L 321.441406 537.46875 C 319.867188 534.308594 316.621094 523.878906 315.347656 520.066406 L 303.734375 485.253906 L 262.382812 476.6875 C 255.875 475.347656 248.367188 473.980469 241.96875 472.453125 C 229.339844 487.632812 213.625 504.578125 200.257812 519.527344 C 206.992188 538.859375 213.921875 559.53125 220.191406 579.023438 L 261.011719 587.4375 C 267.566406 588.796875 275.5 590.652344 282.003906 591.722656 L 321.441406 547.226562 L 321.441406 554.488281 C 319.84375 556.164062 318.148438 558.054688 316.636719 559.824219 C 306.023438 572.210938 294.230469 584.09375 283.847656 596.636719 C 261.832031 592.699219 238.671875 587.230469 216.519531 582.898438 C 214.761719 576.65625 211.453125 567.644531 209.332031 561.304688 L 194.953125 518.332031 C 199.601562 512.691406 205.511719 506.371094 210.417969 500.859375 Z M 240.148438 467.476562 "/>
</g>
<path style=" stroke:none;fill-rule:nonzero;fill:rgb(0%,0%,0%);fill-opacity:1;" d="M 224.273438 0 L 315.242188 0 L 290.9375 27.257812 L 229.195312 14.777344 Z M 224.273438 0 "/>
<path style=" stroke:none;fill-rule:nonzero;fill:rgb(99.607843%,73.725492%,34.901962%);fill-opacity:1;" d="M 32.253906 425.136719 L 76.949219 434.359375 C 82.808594 435.5625 94.671875 437.65625 99.707031 439.300781 C 106.183594 460.585938 114.703125 482.378906 120.980469 503.550781 L 75.722656 554.4375 L 8.679688 540.59375 C 6.808594 535.226562 5 529.835938 3.246094 524.429688 C 2.507812 522.183594 0.953125 517.136719 0 515.175781 L 0 500.542969 C 0.773438 501.902344 3.332031 509.851562 3.972656 511.769531 L 12.304688 536.789062 C 32.785156 540.703125 53.539062 545.117188 74 549.265625 C 78.398438 543.933594 84.382812 537.597656 89.058594 532.351562 L 115.707031 502.601562 C 114.0625 496.710938 111.035156 488.449219 109.035156 482.453125 L 95.808594 442.683594 C 90.164062 441.894531 81.011719 439.742188 75.191406 438.566406 L 34.066406 430.265625 C 22.890625 442.859375 10.867188 455.828125 0 468.597656 L 0 461.5625 C 10.332031 449.785156 22.285156 437.011719 32.253906 425.136719 Z M 32.253906 425.136719 "/>
<g clip-path="url(#clip10)" clip-rule="nonzero">
<path style=" stroke:none;fill-rule:nonzero;fill:rgb(0%,0%,0%);fill-opacity:1;" d="M 321.441406 570.542969 L 321.441406 663.714844 L 313.054688 662.046875 L 300.152344 623.3125 C 298.121094 617.210938 295.410156 608.175781 293.015625 602.390625 C 302.035156 591.867188 312.15625 580.933594 321.441406 570.542969 Z M 321.441406 570.542969 "/>
</g>
<g clip-path="url(#clip11)" clip-rule="nonzero">
<path style=" stroke:none;fill-rule:nonzero;fill:rgb(99.607843%,73.725492%,34.901962%);fill-opacity:1;" d="M 266.046875 347.460938 C 284.003906 351.304688 303.769531 354.742188 321.441406 359.011719 L 321.441406 363.59375 L 285.476562 356.097656 C 280.246094 355.015625 272.96875 353.738281 268.011719 352.449219 L 240.453125 383.488281 C 235.941406 388.5625 230.855469 394.574219 226.210938 399.4375 C 232.636719 418.472656 240.292969 439.929688 246.128906 459.039062 L 287.800781 467.613281 C 294.054688 468.902344 301.714844 470.707031 307.917969 471.714844 L 321.441406 456.421875 L 321.441406 463.546875 C 317.488281 467.847656 313.59375 472.203125 309.753906 476.605469 C 303.183594 475.527344 295.777344 473.746094 289.179688 472.441406 C 273.605469 469.355469 258.035156 465.890625 242.4375 462.898438 C 240.703125 456.550781 237.300781 447.304688 235.15625 440.878906 L 220.933594 398.320312 C 235.25 381.347656 251.351562 364.328125 266.046875 347.460938 Z M 266.046875 347.460938 "/>
</g>
<path style=" stroke:none;fill-rule:nonzero;fill:rgb(99.607843%,73.725492%,34.901962%);fill-opacity:1;" d="M 6.519531 545.453125 L 51.417969 554.730469 C 56.796875 555.835938 68.820312 558.65625 73.816406 559.210938 L 88.511719 603.410156 C 89.898438 607.558594 94.519531 620.648438 95.113281 624.1875 C 80.484375 641.082031 64.609375 657.660156 50.179688 674.582031 C 33.644531 671.476562 16.515625 667.734375 0 664.296875 L 0 659.75 C 14.304688 663.167969 33.75 666.96875 48.28125 669.703125 L 89.988281 622.78125 C 83.621094 603.023438 76.675781 582.988281 70.070312 563.277344 C 64.589844 561.792969 55.175781 560.160156 49.390625 558.964844 L 8.351562 550.46875 L 0 560.015625 L 0 552.785156 Z M 6.519531 545.453125 "/>
<path style=" stroke:none;fill-rule:nonzero;fill:rgb(0%,0%,0%);fill-opacity:1;" d="M 0 360.003906 L 4.230469 360.761719 L 24.171875 420.546875 C 17.285156 428.199219 6.058594 439.933594 0 447.605469 Z M 0 360.003906 "/>
<path style=" stroke:none;fill-rule:nonzero;fill:rgb(99.607843%,73.725492%,34.901962%);fill-opacity:1;" d="M 0 104.46875 C 18.617188 108.363281 37.90625 112.621094 56.527344 116.21875 C 62.84375 136.015625 69.691406 155.671875 76.144531 175.429688 C 76.730469 177.222656 77.335938 178.976562 77.851562 180.796875 L 48.179688 214.226562 C 43.644531 219.339844 36.984375 226.394531 32.90625 231.566406 L 0 224.847656 L 0 220.316406 C 2.464844 220.585938 7.632812 221.785156 10.210938 222.304688 L 30.886719 226.539062 C 35.269531 221.925781 40.269531 215.972656 44.550781 211.140625 L 72.664062 179.484375 C 65.867188 160.679688 58.980469 139.058594 52.804688 119.941406 C 35.726562 116.996094 17.214844 112.617188 0 109.285156 Z M 0 104.46875 "/>
<g clip-path="url(#clip12)" clip-rule="nonzero">
<path style=" stroke:none;fill-rule:nonzero;fill:rgb(99.607843%,73.725492%,34.901962%);fill-opacity:1;" d="M 292.097656 226.101562 C 301.261719 228.3125 312.089844 230.25 321.441406 232.160156 L 321.441406 236.832031 L 293.890625 231.222656 L 266.738281 261.699219 C 262.109375 266.875 256.832031 273.078125 252.097656 278.039062 C 253.925781 283.042969 255.683594 288.246094 257.308594 293.328125 C 262.039062 308.136719 267.453125 322.863281 272.066406 337.699219 C 288.28125 341.214844 305.140625 344.53125 321.441406 347.769531 L 321.441406 352.445312 C 304.003906 349.359375 286.066406 344.773438 268.539062 341.753906 C 261.160156 320.503906 253.9375 298.46875 246.898438 277.074219 C 250.703125 272.191406 257.679688 264.816406 261.972656 259.996094 Z M 292.097656 226.101562 "/>
</g>
<path style=" stroke:none;fill-rule:nonzero;fill:rgb(99.607843%,73.725492%,34.901962%);fill-opacity:1;" d="M 88.601562 0 L 93.609375 0 C 99.410156 17.394531 106.167969 36.328125 111.503906 53.761719 L 151.890625 62.09375 C 158.25 63.40625 167.054688 64.953125 173.191406 66.589844 C 186.867188 51.003906 201.023438 34.890625 214.96875 19.5625 L 208.460938 0 L 213.449219 0 L 220.28125 20.421875 C 215.851562 25.78125 210.476562 31.558594 205.816406 36.792969 L 175.035156 71.453125 C 153.144531 66.566406 129.890625 62.089844 107.855469 57.65625 C 101.863281 38.691406 94.929688 18.945312 88.601562 0 Z M 88.601562 0 "/>
<path style=" stroke:none;fill-rule:nonzero;fill:rgb(99.607843%,73.725492%,34.901962%);fill-opacity:1;" d="M 78.132812 0 L 83.15625 0 C 87.460938 13.632812 92.210938 27.191406 96.589844 40.796875 C 98.457031 46.601562 101.136719 53.78125 102.699219 59.554688 L 57.667969 110.539062 L 0 98.6875 L 0 94.011719 C 17.914062 97.695312 38.058594 101.371094 55.675781 105.59375 C 69.207031 89.984375 83.640625 73.519531 97.527344 58.265625 C 90.800781 39.492188 84.433594 19.035156 78.132812 0 Z M 78.132812 0 "/>
<g clip-path="url(#clip13)" clip-rule="nonzero">
<path style=" stroke:none;fill-rule:nonzero;fill:rgb(99.607843%,73.725492%,34.901962%);fill-opacity:1;" d="M 189.175781 709.523438 L 235.191406 718.964844 C 239.347656 719.824219 252.886719 722.90625 256.53125 723.15625 C 261.214844 737.429688 267.273438 753.898438 271.394531 768 L 266.480469 768 L 252.796875 727.289062 C 246.214844 725.621094 237.917969 724.140625 231.179688 722.75 L 191.117188 714.484375 C 177.980469 729.828125 162.96875 746.449219 149.347656 761.429688 L 151.589844 768 L 146.589844 768 L 144.070312 760.484375 C 146.785156 756.609375 155.679688 747.175781 159.324219 743.089844 Z M 189.175781 709.523438 "/>
</g>
<g clip-path="url(#clip14)" clip-rule="nonzero">
<path style=" stroke:none;fill-rule:nonzero;fill:rgb(0%,0%,0%);fill-opacity:1;" d="M 301.25 36.984375 L 321.441406 14.320312 L 321.441406 96.796875 C 320.285156 94.550781 316.035156 81.167969 315.007812 78.09375 Z M 301.25 36.984375 "/>
</g>
<path style=" stroke:none;fill-rule:nonzero;fill:rgb(99.607843%,73.725492%,34.901962%);fill-opacity:1;" d="M 0 229.132812 C 10.566406 231.644531 22.894531 233.40625 33.035156 236.128906 C 39.394531 257.292969 47.675781 279.160156 54.402344 300.390625 C 40.234375 317.414062 23.84375 334.5 9.222656 351.378906 C 6.773438 350.898438 2.28125 350.15625 0 349.554688 L 0 344.75 L 7.410156 346.285156 C 20.414062 330.988281 35.65625 314.523438 49.144531 299.53125 C 42.34375 280.417969 35.546875 259.164062 29.253906 239.792969 C 19.71875 237.632812 9.617188 235.734375 0 233.773438 Z M 0 229.132812 "/>
<g clip-path="url(#clip15)" clip-rule="nonzero">
<path style=" stroke:none;fill-rule:nonzero;fill:rgb(99.607843%,73.725492%,34.901962%);fill-opacity:1;" d="M 317.101562 105.019531 L 321.441406 106.261719 L 321.441406 110.878906 C 320.863281 110.734375 319.222656 110.128906 318.808594 110.558594 C 304.515625 125.464844 291.234375 142.109375 277.050781 157.050781 C 280.183594 165.496094 283.136719 174.929688 286.007812 183.527344 C 289.742188 194.585938 293.414062 205.664062 297.023438 216.765625 C 304.960938 218.371094 313.601562 219.945312 321.441406 221.746094 L 321.441406 226.351562 C 312.394531 224.738281 302.582031 222.488281 293.441406 220.679688 L 271.835938 156.109375 C 276.054688 150.863281 281.9375 144.601562 286.484375 139.492188 Z M 317.101562 105.019531 "/>
</g>
<g clip-path="url(#clip16)" clip-rule="nonzero">
<path style=" stroke:none;fill-rule:nonzero;fill:rgb(99.607843%,73.725492%,34.901962%);fill-opacity:1;" d="M 0 669 C 15.164062 672.390625 34.648438 676.632812 49.933594 679.320312 C 54.523438 694.355469 60.152344 709.496094 64.917969 724.484375 C 66.273438 728.742188 70.558594 740.449219 71.097656 744.242188 C 64.898438 751.4375 56.40625 761.210938 49.890625 768 L 43.582031 768 L 66.03125 742.765625 L 46.109375 683.269531 C 41.605469 682.097656 35.15625 680.980469 30.484375 680.019531 L 0 673.734375 Z M 0 669 "/>
</g>
<g clip-path="url(#clip17)" clip-rule="nonzero">
<path style=" stroke:none;fill-rule:nonzero;fill:rgb(0%,0%,0%);fill-opacity:1;" d="M 75.15625 753.441406 C 95.253906 757.976562 115.675781 761.507812 135.742188 766.183594 C 136.722656 766.414062 137.15625 767.183594 137.617188 768 L 62.09375 768 C 66.222656 763.378906 70.933594 757.867188 75.15625 753.441406 Z M 75.15625 753.441406 "/>
</g>
<g clip-path="url(#clip18)" clip-rule="nonzero">
<path style=" stroke:none;fill-rule:nonzero;fill:rgb(99.607843%,73.725492%,34.901962%);fill-opacity:1;" d="M 261.855469 723.308594 C 265.53125 718.570312 272.746094 710.957031 276.914062 706.273438 L 306.964844 672.496094 C 311.648438 673.148438 316.53125 674.460938 321.441406 675.167969 L 321.441406 680.011719 C 317.4375 679.203125 312.828125 678.382812 308.898438 677.4375 L 267.109375 724.296875 C 272.082031 738.246094 276.675781 754.480469 281.777344 768 L 276.835938 768 C 271.65625 753.492188 266.742188 737.984375 261.855469 723.308594 Z M 261.855469 723.308594 "/>
</g>
<g clip-path="url(#clip19)" clip-rule="nonzero">
<path style=" stroke:none;fill-rule:nonzero;fill:rgb(99.607843%,73.725492%,34.901962%);fill-opacity:1;" d="M 287.792969 601.390625 C 290.488281 597.796875 295.960938 592.039062 299.09375 588.519531 L 321.441406 563.347656 L 321.441406 570.542969 C 312.15625 580.933594 302.035156 591.867188 293.015625 602.390625 C 295.410156 608.175781 298.121094 617.210938 300.152344 623.3125 L 313.054688 662.046875 L 321.441406 663.714844 L 321.441406 668.253906 L 309.339844 665.800781 C 302.644531 644.601562 294.902344 622.527344 287.792969 601.390625 Z M 287.792969 601.390625 "/>
</g>
<g clip-path="url(#clip20)" clip-rule="nonzero">
<path style=" stroke:none;fill-rule:nonzero;fill:rgb(99.607843%,73.725492%,34.901962%);fill-opacity:1;" d="M 219.332031 0 L 224.273438 0 L 229.195312 14.777344 L 290.9375 27.257812 L 315.242188 0 L 321.441406 0 L 321.441406 0.296875 C 318.824219 2.738281 314.460938 7.945312 311.894531 10.816406 L 292.660156 32.457031 C 271.066406 27.515625 247.335938 23.082031 225.542969 18.648438 Z M 219.332031 0 "/>
</g>
<path style=" stroke:none;fill-rule:nonzero;fill:rgb(99.607843%,73.725492%,34.901962%);fill-opacity:1;" d="M 0 355.414062 C 2.1875 355.859375 6.03125 356.535156 8.039062 357.171875 C 14.925781 378.28125 22.957031 400.292969 29.402344 421.351562 C 26.457031 425.214844 22.679688 429.152344 19.457031 432.839844 C 13.050781 440.179688 6.347656 447.40625 0 454.785156 L 0 447.605469 C 6.058594 439.933594 17.285156 428.199219 24.171875 420.546875 L 4.230469 360.761719 L 0 360.003906 Z M 0 355.414062 "/>
<g clip-path="url(#clip21)" clip-rule="nonzero">
<path style=" stroke:none;fill-rule:nonzero;fill:rgb(99.607843%,73.725492%,34.901962%);fill-opacity:1;" d="M 295.992188 35.75 C 298.269531 32.859375 302.164062 28.746094 304.699219 25.910156 L 321.441406 7.085938 L 321.441406 14.320312 L 301.25 36.984375 L 315.007812 78.09375 C 316.035156 81.167969 320.285156 94.550781 321.441406 96.796875 L 321.441406 101.191406 L 317.558594 100.363281 C 312.488281 86.386719 308.191406 71.925781 303.285156 57.871094 C 300.753906 50.617188 298.265625 43.089844 295.992188 35.75 Z M 295.992188 35.75 "/>
</g>
<g clip-path="url(#clip22)" clip-rule="nonzero">
<path style=" stroke:none;fill-rule:nonzero;fill:rgb(99.607843%,73.725492%,34.901962%);fill-opacity:1;" d="M 73.148438 748.476562 C 87.789062 751.566406 102.445312 754.578125 117.117188 757.503906 C 121.886719 758.484375 136.0625 761.765625 140.40625 762.160156 L 142.308594 768 L 137.617188 768 C 137.15625 767.183594 136.722656 766.414062 135.742188 766.183594 C 115.675781 761.507812 95.253906 757.976562 75.15625 753.441406 C 70.933594 757.867188 66.222656 763.378906 62.09375 768 L 55.734375 768 C 61.617188 761.542969 67.3125 754.953125 73.148438 748.476562 Z M 73.148438 748.476562 "/>
</g>
<g clip-path="url(#clip23)" clip-rule="nonzero">
<path style=" stroke:none;fill-rule:nonzero;fill:rgb(99.607843%,73.725492%,34.901962%);fill-opacity:1;" d="M 321.441406 470.390625 L 321.441406 505.890625 C 320.554688 504.320312 313.832031 483.511719 312.78125 480.324219 C 314.882812 477.566406 319.050781 473.105469 321.441406 470.390625 Z M 321.441406 470.390625 "/>
</g>
<g clip-path="url(#clip24)" clip-rule="nonzero">
<path style=" stroke:none;fill-rule:nonzero;fill:rgb(0%,0%,0%);fill-opacity:1;" d="M 318.054688 481.410156 L 321.441406 477.820312 L 321.441406 491.003906 C 320.734375 489.703125 318.65625 483.199219 318.054688 481.410156 Z M 318.054688 481.410156 "/>
</g>
<path style=" stroke:none;fill-rule:nonzero;fill:rgb(99.607843%,73.725492%,34.901962%);fill-opacity:1;" d="M 106.726562 62.492188 L 150.183594 71.453125 C 157.472656 72.957031 166.742188 75.191406 173.902344 76.226562 C 176.417969 82.679688 179.226562 91.945312 181.464844 98.683594 L 195.59375 141.21875 C 180.785156 158.304688 165.386719 175.261719 150.421875 192.257812 C 147.863281 191.816406 145.167969 191.226562 142.625 190.675781 C 122.839844 186.382812 102.820312 182.738281 83.078125 178.292969 L 69.53125 137.5625 C 66.964844 129.835938 63.855469 121.132812 61.679688 113.351562 Z M 106.726562 62.492188 "/>
<path style=" stroke:none;fill-rule:nonzero;fill:rgb(0%,0%,0%);fill-opacity:1;" d="M 108.6875 67.40625 C 128.722656 72.058594 150.140625 75.96875 170.390625 80.261719 C 176.824219 99.644531 183.410156 120.921875 190.347656 139.976562 C 176.445312 155.40625 162.058594 171.597656 148.488281 187.304688 C 142.144531 185.648438 132.960938 184.042969 126.375 182.679688 L 86.746094 174.53125 C 85.316406 169.503906 83.214844 164.046875 81.628906 159.003906 C 77.015625 144.304688 71.335938 129.285156 66.945312 114.570312 C 68.359375 113.101562 69.820312 111.445312 71.167969 109.910156 C 83.621094 95.707031 96.339844 81.699219 108.6875 67.40625 Z M 108.6875 67.40625 "/>
<path style=" stroke:none;fill-rule:nonzero;fill:rgb(99.607843%,73.725492%,34.901962%);fill-opacity:1;" d="M 199.15625 145 C 201.25 145.007812 208.675781 146.828125 211.015625 147.332031 C 229.464844 151.324219 248.109375 154.695312 266.53125 158.753906 C 268.507812 165.484375 271.476562 173.617188 273.734375 180.367188 L 288.019531 223.128906 C 283.136719 229.085938 277.046875 235.632812 271.863281 241.453125 L 242.734375 274.207031 C 235.734375 272.453125 226.941406 270.894531 219.78125 269.425781 L 175.675781 260.410156 C 168.300781 239.914062 160.808594 216.566406 154.0625 195.746094 C 168.226562 179.058594 184.523438 161.445312 199.15625 145 Z M 199.15625 145 "/>
<path style=" stroke:none;fill-rule:nonzero;fill:rgb(0%,0%,0%);fill-opacity:1;" d="M 200.992188 150.003906 C 220.59375 153.679688 243.4375 158.160156 262.808594 162.566406 L 282.71875 222.332031 C 277.808594 227.503906 272.480469 233.773438 267.691406 239.160156 L 240.984375 269.292969 C 235.542969 267.878906 228.542969 266.738281 222.941406 265.519531 C 208.453125 262.375 193.667969 259.71875 179.21875 256.410156 C 173.03125 236.644531 165.839844 216.386719 159.367188 196.609375 C 172.738281 182.398438 188.167969 164.820312 200.992188 150.003906 Z M 200.992188 150.003906 "/>
<path style=" stroke:none;fill-rule:nonzero;fill:rgb(99.607843%,73.725492%,34.901962%);fill-opacity:1;" d="M 124.019531 507.679688 C 127.871094 507.898438 139.316406 510.648438 143.558594 511.445312 C 159.417969 514.414062 175.722656 518.523438 191.605469 521.234375 C 192.992188 526.402344 195.496094 533.265625 197.25 538.527344 L 207.71875 569.90625 C 209.453125 575.101562 211.554688 580.957031 212.902344 586.214844 C 197.894531 602.40625 182.535156 620.066406 167.820312 636.609375 C 160.476562 635.378906 151.796875 633.367188 144.410156 631.855469 L 100.539062 622.820312 C 98.703125 616.453125 95.960938 609.101562 93.871094 602.722656 C 89.015625 587.875 83.816406 573.089844 79.039062 558.210938 Z M 124.019531 507.679688 "/>
<path style=" stroke:none;fill-rule:nonzero;fill:rgb(0%,0%,0%);fill-opacity:1;" d="M 126.054688 512.476562 C 146.546875 516.5 167.304688 521.015625 187.785156 525.246094 L 207.679688 584.722656 C 203.492188 589.832031 197.835938 595.875 193.382812 600.890625 L 166.058594 631.640625 C 160.484375 630.96875 150.570312 628.609375 144.617188 627.371094 L 104.253906 618.96875 L 84.308594 559.5 C 98.148438 543.855469 112.390625 528.238281 126.054688 512.476562 Z M 126.054688 512.476562 "/>
<path style=" stroke:none;fill-rule:nonzero;fill:rgb(99.607843%,73.725492%,34.901962%);fill-opacity:1;" d="M 174.96875 265.507812 C 176.820312 266.054688 181.800781 266.898438 184 267.34375 L 203.269531 271.246094 L 228.308594 276.445312 C 232.5625 277.320312 238.265625 278.652344 242.496094 279.164062 C 247.644531 297.101562 254.859375 315.101562 260.328125 333 C 261.488281 336.800781 262.835938 340.34375 263.804688 344.238281 C 248.765625 360.4375 233.503906 378.0625 218.695312 394.628906 C 196.671875 390.425781 173.402344 385.503906 151.449219 380.792969 C 149.28125 373.554688 146.394531 365.535156 143.980469 358.320312 L 129.929688 316.324219 C 131.957031 313.789062 134.289062 311.433594 136.394531 308.960938 C 148.867188 294.308594 162.664062 280.269531 174.96875 265.507812 Z M 174.96875 265.507812 "/>
<path style=" stroke:none;fill-rule:nonzero;fill:rgb(0%,0%,0%);fill-opacity:1;" d="M 177.027344 270.410156 C 177.914062 270.671875 178.96875 270.871094 179.878906 271.070312 C 199.449219 275.292969 219.160156 279.003906 238.714844 283.273438 L 258.597656 342.78125 L 216.902344 389.726562 C 210.511719 388.675781 202.550781 386.800781 196.097656 385.464844 L 155.191406 377.027344 C 148.5 357.351562 142.140625 336.996094 135.183594 317.476562 C 148.738281 303.078125 163.894531 285.414062 177.027344 270.410156 Z M 177.027344 270.410156 "/>
<path style=" stroke:none;fill-rule:nonzero;fill:rgb(99.607843%,73.725492%,34.901962%);fill-opacity:1;" d="M 98.148438 627.609375 C 119.921875 631 143.699219 637.695312 165.59375 641.203125 C 171.746094 662.296875 181.097656 685.074219 186.957031 706.117188 C 182.890625 711.140625 176.507812 717.847656 172.082031 722.792969 L 141.878906 756.609375 C 134.828125 755.488281 126.148438 753.441406 118.949219 751.964844 L 74.667969 742.839844 C 67.25 721.980469 60.066406 699.398438 53.089844 678.300781 C 56.980469 673.371094 63.84375 666.117188 68.25 661.164062 Z M 98.148438 627.609375 "/>
<path style=" stroke:none;fill-rule:nonzero;fill:rgb(0%,0%,0%);fill-opacity:1;" d="M 100.144531 632.46875 L 161.808594 645.234375 L 181.753906 704.75 C 168.714844 720.140625 153.578125 736.492188 140.054688 751.683594 C 135.027344 751.074219 124.414062 748.546875 119.097656 747.449219 L 78.289062 738.957031 C 71.613281 719.238281 65.230469 699.050781 58.324219 679.453125 C 62.71875 674.949219 68.136719 668.515625 72.402344 663.714844 Z M 100.144531 632.46875 "/>
<path style=" stroke:none;fill-rule:nonzero;fill:rgb(99.607843%,73.725492%,34.901962%);fill-opacity:1;" d="M 57.246094 304.066406 C 61.332031 305.386719 70.65625 306.816406 75.375 307.910156 C 91.28125 311.597656 108.976562 314.214844 124.683594 318.246094 C 126.382812 324.40625 128.867188 330.917969 130.828125 337.046875 C 135.664062 352.152344 141.34375 367.417969 145.941406 382.566406 L 100.765625 433.359375 C 95.609375 432.59375 89.671875 431 84.417969 430.050781 C 67.894531 427.070312 50.132812 422.398438 33.691406 419.773438 C 26.226562 399.148438 18.921875 375.890625 11.988281 354.949219 C 26.761719 339.171875 42.859375 320.433594 57.246094 304.066406 Z M 57.246094 304.066406 "/>
<path style=" stroke:none;fill-rule:nonzero;fill:rgb(0%,0%,0%);fill-opacity:1;" d="M 59.011719 309.25 C 64.960938 310.152344 73.390625 312.144531 79.445312 313.371094 L 120.785156 321.75 C 126.789062 341.328125 134.265625 361.925781 140.671875 381.566406 L 99.03125 428.136719 C 97.90625 428.359375 42.75 416.871094 37.261719 415.738281 C 30.402344 395.980469 24.199219 375.808594 17.265625 356.039062 Z M 59.011719 309.25 "/>
<path style=" stroke:none;fill-rule:nonzero;fill:rgb(99.607843%,73.725492%,34.901962%);fill-opacity:1;" d="M 223.660156 23.96875 C 225.988281 23.847656 239.128906 26.84375 242.070312 27.410156 C 258.316406 30.519531 274.867188 34.546875 291.144531 37.398438 C 298.25 58.636719 306.042969 80.789062 312.660156 102.097656 C 297.636719 118.953125 282.238281 135.929688 267.449219 152.960938 C 246.007812 147.742188 222.101562 144.019531 200.234375 139.019531 C 193.265625 118.171875 185.011719 95.203125 178.730469 74.339844 C 183.9375 68.851562 189.527344 62.304688 194.605469 56.601562 Z M 223.660156 23.96875 "/>
<path style=" stroke:none;fill-rule:nonzero;fill:rgb(0%,0%,0%);fill-opacity:1;" d="M 225.738281 28.757812 C 231.878906 29.683594 240.226562 31.660156 246.492188 32.933594 L 287.460938 41.214844 C 294.007812 60.90625 300.535156 81.484375 307.460938 100.976562 C 293.425781 116.359375 279.480469 132.25 265.609375 147.800781 C 245.636719 143.292969 224.125 139.339844 203.925781 135.238281 C 197.636719 115.988281 190.816406 94.460938 183.964844 75.542969 Z M 225.738281 28.757812 "/>
<path style=" stroke:none;fill-rule:nonzero;fill:rgb(99.607843%,73.725492%,34.901962%);fill-opacity:1;" d="M 149.046875 385.519531 C 168.347656 389.738281 187.980469 393.199219 207.292969 397.457031 C 210.277344 398.113281 213.46875 398.785156 216.488281 399.160156 C 222.671875 420.289062 232.035156 443.113281 237.886719 464.171875 C 222.925781 480.234375 207.386719 498.191406 192.730469 514.667969 C 170.835938 509.640625 147.671875 505.640625 125.546875 500.800781 L 104.015625 436.285156 C 104.621094 435.503906 105.242188 434.8125 105.894531 434.066406 C 120.164062 417.800781 134.863281 401.855469 149.046875 385.519531 Z M 149.046875 385.519531 "/>
<path style=" stroke:none;fill-rule:nonzero;fill:rgb(0%,0%,0%);fill-opacity:1;" d="M 151.035156 390.453125 C 171.28125 395.113281 192.476562 398.597656 212.738281 403.292969 L 232.644531 462.734375 C 219.386719 478.285156 204.578125 494.425781 190.910156 509.753906 L 129.207031 497.023438 C 122.824219 477.441406 116.050781 456.882812 109.242188 437.484375 C 111.925781 434.675781 114.625 431.507812 117.199219 428.582031 C 128.40625 415.828125 139.914062 403.277344 151.035156 390.453125 Z M 151.035156 390.453125 "/>
<path style=" stroke:none;fill-rule:nonzero;fill:rgb(99.607843%,73.725492%,34.901962%);fill-opacity:1;" d="M 217.246094 589.429688 C 220.070312 590.242188 225.273438 591.164062 228.25 591.78125 L 249.195312 596.097656 L 271.480469 600.691406 C 275.359375 601.484375 280.628906 602.722656 284.480469 603.152344 C 286.28125 609.570312 289.5 618.332031 291.65625 624.804688 L 305.996094 667.914062 C 302.570312 672.175781 298.222656 676.558594 294.625 680.765625 C 283.878906 693.332031 271.335938 705.984375 260.886719 718.652344 C 238.703125 714.402344 215.671875 709.480469 193.539062 704.804688 L 172.027344 640.335938 C 176.984375 634.320312 183.097656 627.746094 188.332031 621.863281 Z M 217.246094 589.429688 "/>
<path style=" stroke:none;fill-rule:nonzero;fill:rgb(0%,0%,0%);fill-opacity:1;" d="M 219.054688 594.445312 C 239.242188 599.144531 260.46875 602.667969 280.78125 607.285156 C 286.769531 626.554688 294.191406 647.523438 300.703125 666.734375 C 286.933594 682.453125 272.664062 697.929688 259.039062 713.761719 C 239.289062 710.328125 217.191406 705.003906 197.210938 701.03125 C 195.289062 694.574219 192.652344 687.261719 190.5 680.816406 L 177.308594 641.460938 C 191.027344 626.3125 205.765625 609.921875 219.054688 594.445312 Z M 219.054688 594.445312 "/>
<path style=" stroke:none;fill-rule:nonzero;fill:rgb(99.607843%,73.725492%,34.901962%);fill-opacity:1;" d="M 81.886719 184.015625 C 97.359375 187.9375 114.910156 190.5 130.527344 194.148438 C 134.46875 195.070312 145.734375 196.925781 148.828125 198.226562 C 151.605469 205.75 154.289062 214.414062 156.84375 222.085938 L 170.238281 262.519531 C 155.328125 279.402344 140.03125 296.226562 125.300781 313.238281 C 120.605469 312.761719 112.4375 310.5625 107.492188 309.703125 C 91.644531 306.953125 74.128906 302.160156 58.324219 299.773438 C 53.140625 285.878906 49 271.191406 44.050781 257.171875 C 41.496094 249.933594 38.976562 242.222656 36.777344 234.878906 C 51.789062 218.441406 67.167969 200.78125 81.886719 184.015625 Z M 81.886719 184.015625 "/>
<path style=" stroke:none;fill-rule:nonzero;fill:rgb(0%,0%,0%);fill-opacity:1;" d="M 83.515625 189.265625 C 89.679688 190.144531 99.160156 192.382812 105.46875 193.667969 L 145.21875 201.820312 C 147.035156 208.105469 149.6875 215.46875 151.78125 221.757812 L 164.917969 261.339844 L 123.289062 308.324219 C 122.355469 308.03125 121.464844 307.882812 120.507812 307.683594 C 100.960938 303.550781 81.25 299.945312 61.734375 295.691406 C 60.144531 289.777344 57.085938 281.410156 55.109375 275.453125 L 41.988281 235.980469 C 55.675781 220.613281 70.179688 204.855469 83.515625 189.265625 Z M 83.515625 189.265625 "/>
</g>
</symbol>
<symbol id="rightnav" viewBox="0 0 322 768">
<defs>
<clipPath id="rclip1">
  <path d="M 0 0 L 321.441406 0 L 321.441406 767.976562 L 0 767.976562 Z M 0 0 "/>
</clipPath>
<clipPath id="rclip2">
  <path d="M 0 651 L 120 651 L 120 767.976562 L 0 767.976562 Z M 0 651 "/>
</clipPath>
<clipPath id="rclip3">
  <path d="M 0 711 L 61 711 L 61 767.976562 L 0 767.976562 Z M 0 711 "/>
</clipPath>
<clipPath id="rclip4">
  <path d="M 0 726 L 39 726 L 39 767.976562 L 0 767.976562 Z M 0 726 "/>
</clipPath>
<clipPath id="rclip5">
  <path d="M 0 748 L 5 748 L 5 767.976562 L 0 767.976562 Z M 0 748 "/>
</clipPath>
<clipPath id="rclip6">
  <path d="M 5 764 L 22 764 L 22 767.976562 L 5 767.976562 Z M 5 764 "/>
</clipPath>
<clipPath id="rclip7">
  <path d="M 212 129 L 321.441406 129 L 321.441406 249 L 212 249 Z M 212 129 "/>
</clipPath>
<clipPath id="rclip8">
  <path d="M 229 576 L 321.441406 576 L 321.441406 696 L 229 696 Z M 229 576 "/>
</clipPath>
<clipPath id="rclip9">
  <path d="M 236 9 L 321.441406 9 L 321.441406 129 L 236 129 Z M 236 9 "/>
</clipPath>
<clipPath id="rclip10">
  <path d="M 203 696 L 321.441406 696 L 321.441406 767.976562 L 203 767.976562 Z M 203 696 "/>
</clipPath>
<clipPath id="rclip11">
  <path d="M 255 454 L 321.441406 454 L 321.441406 571 L 255 571 Z M 255 454 "/>
</clipPath>
<clipPath id="rclip12">
  <path d="M 278 332 L 321.441406 332 L 321.441406 445 L 278 445 Z M 278 332 "/>
</clipPath>
<clipPath id="rclip13">
  <path d="M 98 734 L 198 734 L 198 767.976562 L 98 767.976562 Z M 98 734 "/>
</clipPath>
<clipPath id="rclip14">
  <path d="M 207 124 L 321.441406 124 L 321.441406 254 L 207 254 Z M 207 124 "/>
</clipPath>
<clipPath id="rclip15">
  <path d="M 224 571 L 321.441406 571 L 321.441406 701 L 224 701 Z M 224 571 "/>
</clipPath>
<clipPath id="rclip16">
  <path d="M 0 646 L 125 646 L 125 767.976562 L 0 767.976562 Z M 0 646 "/>
</clipPath>
<clipPath id="rclip17">
  <path d="M 231 4 L 321.441406 4 L 321.441406 134 L 231 134 Z M 231 4 "/>
</clipPath>
<clipPath id="rclip18">
  <path d="M 250 449 L 321.441406 449 L 321.441406 576 L 250 576 Z M 250 449 "/>
</clipPath>
<clipPath id="rclip19">
  <path d="M 198 691 L 321.441406 691 L 321.441406 767.976562 L 198 767.976562 Z M 198 691 "/>
</clipPath>
<clipPath id="rclip20">
  <path d="M 273 328 L 321.441406 328 L 321.441406 450 L 273 450 Z M 273 328 "/>
</clipPath>
<clipPath id="rclip21">
  <path d="M 303 239 L 321.441406 239 L 321.441406 313 L 303 313 Z M 303 239 "/>
</clipPath>
<clipPath id="rclip22">
  <path d="M 92 729 L 203 729 L 203 767.976562 L 92 767.976562 Z M 92 729 "/>
</clipPath>
<clipPath id="rclip23">
  <path d="M 298 231 L 321.441406 231 L 321.441406 324 L 298 324 Z M 298 231 "/>
</clipPath>
<clipPath id="rclip24">
  <path d="M 281 0 L 321.441406 0 L 321.441406 9 L 281 9 Z M 281 0 "/>
</clipPath>
<clipPath id="rclip25">
  <path d="M 303 0 L 321.441406 0 L 321.441406 4 L 303 4 Z M 303 0 "/>
</clipPath>
<clipPath id="rclip26">
  <path d="M 316 698 L 321.441406 698 L 321.441406 720 L 316 720 Z M 316 698 "/>
</clipPath>
</defs>
<g id="surface1">
<g clip-path="url(#rclip1)" clip-rule="nonzero">
<path style=" stroke:none;fill-rule:nonzero;fill:rgb(0%,0%,0%);fill-opacity:1;" d="M 0 0 L 321.441406 0 L 321.441406 768 L 0 768 Z M 0 0 "/>
</g>
<path style=" stroke:none;fill-rule:nonzero;fill:rgb(99.607843%,73.333335%,38.039216%);fill-opacity:1;" d="M 43.003906 79.714844 C 65.160156 84.265625 87.941406 89.242188 110.101562 93.457031 C 117.464844 114.386719 124.839844 136.855469 131.722656 157.992188 C 116.992188 174.644531 100.824219 192.082031 86.550781 208.9375 L 19.257812 195.082031 L 6.753906 157.5625 C 5.074219 152.527344 2.023438 142.492188 0 137.90625 L 0 127.828125 C 14.011719 112.320312 28.800781 94.675781 43.003906 79.714844 Z M 43.003906 79.714844 "/>
<path style=" stroke:none;fill-rule:nonzero;fill:rgb(0%,0%,0%);fill-opacity:1;" d="M 44.640625 84.75 L 106.390625 97.203125 C 113.285156 116.929688 119.605469 137.082031 126.421875 156.894531 C 113.480469 172.316406 98.152344 188.757812 84.71875 203.992188 C 64.230469 199.527344 43.460938 195.695312 22.921875 191.175781 C 17.707031 174.714844 11.785156 158.378906 6.496094 141.933594 C 5.46875 138.746094 3.785156 134.5625 3.164062 131.355469 C 16.507812 116.425781 31.925781 99.960938 44.640625 84.75 Z M 44.640625 84.75 "/>
<g clip-path="url(#rclip2)" clip-rule="nonzero">
<path style=" stroke:none;fill-rule:nonzero;fill:rgb(0%,0%,0%);fill-opacity:1;" d="M 37.691406 651.921875 L 99.488281 664.722656 L 119.445312 724.324219 C 106.800781 738.3125 93.226562 754.53125 80.460938 768 L 0 768 L 0 694.261719 L 24.738281 666.636719 C 28.269531 662.6875 34.625 655.960938 37.691406 651.921875 Z M 37.691406 651.921875 "/>
</g>
<g clip-path="url(#rclip3)" clip-rule="nonzero">
<path style=" stroke:none;fill-rule:nonzero;fill:rgb(99.607843%,73.333335%,38.039216%);fill-opacity:1;" d="M 0 711.292969 C 1.363281 714.113281 2.355469 717.621094 3.382812 720.609375 C 7.714844 733.148438 11.613281 745.890625 15.972656 758.414062 C 25.910156 760.582031 35.871094 762.644531 45.851562 764.609375 C 49.117188 765.277344 57.9375 766.902344 60.726562 768 L 0 768 Z M 0 711.292969 "/>
</g>
<g clip-path="url(#rclip4)" clip-rule="nonzero">
<path style=" stroke:none;fill-rule:nonzero;fill:rgb(0%,0%,0%);fill-opacity:1;" d="M 0 726.273438 C 1.175781 728.695312 1.941406 731.367188 2.824219 733.914062 C 6.09375 743.316406 8.984375 752.910156 12.3125 762.289062 C 17.90625 763.554688 34.359375 766.445312 38.601562 768 L 0 768 Z M 0 726.273438 "/>
</g>
<g clip-path="url(#rclip5)" clip-rule="nonzero">
<path style=" stroke:none;fill-rule:nonzero;fill:rgb(99.607843%,73.333335%,38.039216%);fill-opacity:1;" d="M 0 748.785156 C 1.527344 751.929688 3.652344 758.910156 4.789062 762.4375 C 3.386719 764.066406 1.550781 766.316406 0 767.691406 Z M 0 748.785156 "/>
</g>
<g clip-path="url(#rclip6)" clip-rule="nonzero">
<path style=" stroke:none;fill-rule:nonzero;fill:rgb(99.607843%,73.333335%,38.039216%);fill-opacity:1;" d="M 8.386719 764.808594 C 11.816406 765.648438 19.234375 766.996094 21.953125 768 L 5.484375 768 C 6.382812 766.992188 7.441406 765.734375 8.386719 764.808594 Z M 8.386719 764.808594 "/>
</g>
<g clip-path="url(#rclip7)" clip-rule="nonzero">
<path style=" stroke:none;fill-rule:nonzero;fill:rgb(0%,0%,0%);fill-opacity:1;" d="M 254.214844 129.265625 C 274.484375 133.070312 295.660156 137.808594 315.9375 142.003906 C 317.292969 146.054688 319.800781 154.453125 321.441406 157.929688 L 321.441406 217.75 L 294.03125 248.566406 C 274.667969 243.59375 251.679688 240.664062 232.386719 235.609375 C 225.835938 215.816406 218.964844 196.003906 212.585938 176.164062 Z M 254.214844 129.265625 "/>
</g>
<path style=" stroke:none;fill-rule:nonzero;fill:rgb(0%,0%,0%);fill-opacity:1;" d="M 19.878906 205.378906 C 26.46875 207.128906 35.574219 208.757812 42.410156 210.171875 L 81.5625 218.191406 C 88.082031 238.148438 94.714844 258.066406 101.460938 277.945312 L 59.734375 324.726562 C 40.476562 320.824219 19.144531 315.851562 0 312.449219 L 0 227.847656 Z M 19.878906 205.378906 "/>
<g clip-path="url(#rclip8)" clip-rule="nonzero">
<path style=" stroke:none;fill-rule:nonzero;fill:rgb(0%,0%,0%);fill-opacity:1;" d="M 271.171875 576.207031 C 287.195312 579.835938 305.269531 583.234375 321.441406 586.457031 L 321.441406 683.738281 L 311.089844 695.257812 C 309.21875 694.792969 307.242188 694.476562 305.351562 694.078125 C 286.769531 690.121094 267.957031 686.820312 249.425781 682.664062 C 242.742188 663.34375 235.691406 642.390625 229.550781 622.921875 C 242.976562 607.875 258.332031 591.5 271.171875 576.207031 Z M 271.171875 576.207031 "/>
</g>
<path style=" stroke:none;fill-rule:nonzero;fill:rgb(0%,0%,0%);fill-opacity:1;" d="M 37.332031 0 L 139.335938 0 C 143.285156 11.996094 147.304688 23.964844 151.394531 35.914062 C 138.15625 51.480469 123.277344 67.617188 109.628906 82.96875 L 47.898438 70.253906 C 41.382812 50.632812 34.125 30.027344 28.058594 10.363281 C 31.207031 6.960938 34.300781 3.507812 37.332031 0 Z M 37.332031 0 "/>
<g clip-path="url(#rclip9)" clip-rule="nonzero">
<path style=" stroke:none;fill-rule:nonzero;fill:rgb(0%,0%,0%);fill-opacity:1;" d="M 278.390625 9.207031 C 292.601562 12.265625 307.179688 15.113281 321.441406 17.96875 L 321.441406 124.742188 L 318.234375 128.507812 C 298.421875 124.40625 275.882812 120.300781 256.460938 115.640625 C 250.203125 95.847656 243.21875 75.679688 236.640625 55.953125 Z M 278.390625 9.207031 "/>
</g>
<path style=" stroke:none;fill-rule:nonzero;fill:rgb(0%,0%,0%);fill-opacity:1;" d="M 0 327.878906 L 56.4375 339.507812 L 69.640625 379.046875 C 71.675781 385.125 74.113281 393.128906 76.375 398.992188 L 48.625 430.195312 C 44.238281 435.140625 39.085938 441.265625 34.597656 445.992188 C 23.207031 443.636719 11.40625 441.03125 0 438.929688 Z M 0 327.878906 "/>
<g clip-path="url(#rclip10)" clip-rule="nonzero">
<path style=" stroke:none;fill-rule:nonzero;fill:rgb(0%,0%,0%);fill-opacity:1;" d="M 245.308594 696.214844 C 252.277344 697.90625 260.839844 699.410156 267.960938 700.851562 L 306.976562 708.703125 L 316.285156 736.714844 C 317.402344 740.070312 320.015625 748.527344 321.441406 751.238281 L 321.441406 768 L 211.808594 768 C 209.210938 759.703125 206.285156 751.238281 203.578125 742.9375 Z M 245.308594 696.214844 "/>
</g>
<g clip-path="url(#rclip11)" clip-rule="nonzero">
<path style=" stroke:none;fill-rule:nonzero;fill:rgb(0%,0%,0%);fill-opacity:1;" d="M 297.035156 454.714844 L 321.441406 459.722656 L 321.441406 570.714844 C 307.113281 568.292969 289.804688 564.230469 275.332031 561.199219 C 268.894531 541.664062 261.53125 521.242188 255.527344 501.703125 C 264.921875 490.46875 275.847656 479.269531 285.398438 468.058594 C 289.113281 463.699219 293.542969 459.195312 297.035156 454.714844 Z M 297.035156 454.714844 "/>
</g>
<path style=" stroke:none;fill-rule:nonzero;fill:rgb(0%,0%,0%);fill-opacity:1;" d="M 0 454.707031 C 10.746094 456.90625 22.085938 459.046875 32.742188 461.472656 C 35.234375 467.902344 37.601562 475.546875 39.8125 482.164062 L 52.796875 520.953125 L 11.089844 567.953125 C 7.398438 567.234375 3.648438 566.542969 0 565.648438 Z M 0 454.707031 "/>
<path style=" stroke:none;fill-rule:nonzero;fill:rgb(0%,0%,0%);fill-opacity:1;" d="M 153.90625 0 L 267.714844 0 C 253.976562 15.066406 240.371094 30.722656 226.753906 45.949219 C 220.164062 44.867188 212.292969 43.019531 205.589844 41.636719 L 164.992188 33.203125 Z M 153.90625 0 "/>
<g clip-path="url(#rclip12)" clip-rule="nonzero">
<path style=" stroke:none;fill-rule:nonzero;fill:rgb(0%,0%,0%);fill-opacity:1;" d="M 321.441406 332.953125 L 321.441406 444.5 C 313.984375 442.980469 305.574219 441.429688 298.25 439.644531 C 291.980469 419.820312 284.648438 400.007812 278.472656 380.152344 C 284.117188 373.816406 317.816406 334.507812 321.441406 332.953125 Z M 321.441406 332.953125 "/>
</g>
<g clip-path="url(#rclip13)" clip-rule="nonzero">
<path style=" stroke:none;fill-rule:nonzero;fill:rgb(0%,0%,0%);fill-opacity:1;" d="M 128.457031 734.25 C 148.535156 738.382812 170.46875 742.433594 190.292969 747.050781 C 192.269531 753.210938 194.9375 762.101562 197.28125 768 L 98.527344 768 C 108.375 756.71875 118.738281 745.546875 128.457031 734.25 Z M 128.457031 734.25 "/>
</g>
<path style=" stroke:none;fill-rule:nonzero;fill:rgb(0%,0%,0%);fill-opacity:1;" d="M 0 12.261719 L 14.667969 15.230469 L 34.546875 75.003906 L 12.058594 100.355469 C 8.578125 104.277344 3.628906 110.167969 0 113.824219 Z M 0 12.261719 "/>
<g clip-path="url(#rclip14)" clip-rule="nonzero">
<path style=" stroke:none;fill-rule:nonzero;fill:rgb(99.607843%,73.333335%,38.039216%);fill-opacity:1;" d="M 252.472656 124.347656 L 319.691406 138.238281 C 320.273438 140.253906 320.53125 141.035156 321.441406 142.949219 L 321.441406 157.929688 C 319.800781 154.453125 317.292969 146.054688 315.9375 142.003906 C 295.660156 137.808594 274.484375 133.070312 254.214844 129.265625 L 212.585938 176.164062 C 218.96875 196.003906 225.835938 215.816406 232.386719 235.609375 C 251.679688 240.664062 274.667969 243.59375 294.03125 248.566406 L 321.441406 217.75 L 321.441406 225.054688 C 313.699219 233.339844 303.398438 244.851562 296.183594 253.53125 C 289.597656 252.441406 282.515625 250.75 275.910156 249.441406 C 260.183594 246.332031 244.410156 242.734375 228.664062 239.777344 C 227.167969 234.199219 224.445312 227.199219 222.660156 221.566406 C 217.773438 206.171875 211.933594 190.597656 207.277344 175.152344 Z M 252.472656 124.347656 "/>
</g>
<path style=" stroke:none;fill-rule:nonzero;fill:rgb(99.607843%,73.333335%,38.039216%);fill-opacity:1;" d="M 17.933594 200.6875 C 33.3125 203.546875 48.753906 207.09375 64.109375 210.09375 C 70.71875 211.386719 78.503906 213.304688 85.078125 214.277344 C 91.695312 232.980469 97.59375 252.039062 104.03125 270.8125 C 104.949219 273.488281 105.914062 276.308594 106.71875 279.015625 L 76.574219 312.941406 C 71.871094 318.222656 66.164062 324.359375 61.722656 329.757812 C 41.921875 325.769531 19.554688 321.636719 0 317.109375 L 0 312.449219 C 19.144531 315.851562 40.476562 320.820312 59.734375 324.726562 L 101.460938 277.945312 C 94.714844 258.066406 88.082031 238.148438 81.5625 218.191406 L 42.410156 210.171875 C 35.574219 208.757812 26.46875 207.128906 19.878906 205.378906 L 0 227.847656 L 0 220.757812 C 6.027344 214.113281 12.007812 207.421875 17.933594 200.6875 Z M 17.933594 200.6875 "/>
<path style=" stroke:none;fill-rule:nonzero;fill:rgb(0%,0%,0%);fill-opacity:1;" d="M 0 580.667969 C 1.753906 581 3.804688 581.324219 5.503906 581.789062 L 25.472656 641.304688 C 17.410156 650.214844 8.125 661.386719 0 669.816406 Z M 0 580.667969 "/>
<g clip-path="url(#rclip15)" clip-rule="nonzero">
<path style=" stroke:none;fill-rule:nonzero;fill:rgb(99.607843%,73.333335%,38.039216%);fill-opacity:1;" d="M 269.484375 571.050781 C 273.957031 572.34375 281.121094 573.550781 285.8125 574.566406 C 297.644531 577.128906 309.652344 579.296875 321.441406 582.046875 L 321.441406 586.457031 C 305.269531 583.234375 287.195312 579.835938 271.171875 576.207031 C 258.332031 591.5 242.976562 607.875 229.550781 622.921875 C 235.691406 642.390625 242.742188 663.34375 249.425781 682.664062 C 267.957031 686.820312 286.769531 690.121094 305.351562 694.078125 C 307.242188 694.476562 309.21875 694.792969 311.089844 695.257812 L 321.441406 683.738281 L 321.441406 690.867188 C 318.710938 693.648438 315.558594 697.414062 312.824219 700.394531 C 291.890625 695.726562 266.84375 690.433594 245.804688 686.703125 L 224.167969 622.058594 C 228.777344 616.417969 234.964844 609.84375 239.875 604.328125 Z M 269.484375 571.050781 "/>
</g>
<path style=" stroke:none;fill-rule:nonzero;fill:rgb(99.607843%,73.333335%,38.039216%);fill-opacity:1;" d="M 31.148438 0 L 37.332031 0 C 34.300781 3.507812 31.207031 6.960938 28.058594 10.363281 C 34.125 30.027344 41.382812 50.632812 47.898438 70.253906 L 109.628906 82.96875 C 123.277344 67.617188 138.15625 51.480469 151.394531 35.914062 C 147.304688 23.964844 143.285156 11.996094 139.335938 0 L 144.339844 0 L 156.6875 36.90625 C 152.128906 42.488281 146.148438 48.878906 141.289062 54.332031 L 111.425781 87.96875 C 89.480469 82.78125 66.128906 79.195312 44.160156 73.972656 C 37.6875 52.765625 28.890625 30.558594 22.777344 9.425781 C 25.523438 6.246094 28.316406 3.101562 31.148438 0 Z M 31.148438 0 "/>
<g clip-path="url(#rclip16)" clip-rule="nonzero">
<path style=" stroke:none;fill-rule:nonzero;fill:rgb(99.607843%,73.333335%,38.039216%);fill-opacity:1;" d="M 35.945312 646.910156 L 81.019531 656.230469 C 86.796875 657.414062 98.09375 659.347656 103.242188 660.851562 L 116.972656 701.953125 C 119.457031 709.375 122.535156 717.890625 124.675781 725.351562 L 86.730469 768 L 80.460938 768 C 93.226562 754.53125 106.800781 738.3125 119.445312 724.324219 L 99.488281 664.722656 L 37.691406 651.921875 C 34.625 655.960938 28.269531 662.6875 24.738281 666.636719 L 0 694.261719 L 0 687.246094 C 11.582031 674.304688 24.808594 660.066406 35.945312 646.910156 Z M 35.945312 646.910156 "/>
</g>
<g clip-path="url(#rclip17)" clip-rule="nonzero">
<path style=" stroke:none;fill-rule:nonzero;fill:rgb(99.607843%,73.333335%,38.039216%);fill-opacity:1;" d="M 276.554688 4.152344 C 290.605469 7.265625 307.351562 10.910156 321.441406 13.335938 L 321.441406 17.96875 C 307.179688 15.113281 292.601562 12.265625 278.390625 9.207031 L 236.640625 55.953125 C 243.21875 75.679688 250.203125 95.847656 256.460938 115.640625 C 275.882812 120.300781 298.421875 124.40625 318.234375 128.507812 L 321.441406 124.742188 L 321.441406 132.269531 C 320.890625 132.71875 320.25 133.128906 319.519531 133.003906 C 303.195312 130.195312 286.914062 126.371094 270.660156 123.199219 C 264.683594 122.03125 258.890625 120.636719 252.972656 119.757812 C 245.695312 98.53125 238.113281 76.253906 231.363281 54.917969 Z M 276.554688 4.152344 "/>
</g>
<path style=" stroke:none;fill-rule:nonzero;fill:rgb(99.607843%,73.333335%,38.039216%);fill-opacity:1;" d="M 0 323.070312 C 4.554688 324.238281 9.398438 325.238281 14.027344 326.109375 C 29.359375 329.007812 44.703125 332.722656 60.0625 335.421875 L 73.953125 377.023438 C 76.398438 384.375 79.460938 392.859375 81.628906 400.210938 C 66.863281 417.277344 51.445312 434.125 36.496094 451.070312 C 25.074219 448.609375 11.386719 445.476562 0 443.484375 L 0 438.929688 C 11.40625 441.03125 23.207031 443.636719 34.597656 445.992188 C 39.085938 441.265625 44.238281 435.140625 48.625 430.195312 L 76.375 398.992188 C 74.113281 393.128906 71.675781 385.125 69.640625 379.046875 L 56.4375 339.507812 L 0 327.878906 Z M 0 323.070312 "/>
<g clip-path="url(#rclip18)" clip-rule="nonzero">
<path style=" stroke:none;fill-rule:nonzero;fill:rgb(99.607843%,73.333335%,38.039216%);fill-opacity:1;" d="M 295.472656 449.789062 C 303.058594 451.722656 313.679688 453.738281 321.441406 455.089844 L 321.441406 459.722656 L 297.035156 454.714844 C 293.542969 459.195312 289.113281 463.699219 285.398438 468.058594 C 275.847656 479.269531 264.921875 490.46875 255.527344 501.703125 C 261.53125 521.242188 268.894531 541.664062 275.332031 561.199219 C 289.804688 564.230469 307.113281 568.292969 321.441406 570.714844 L 321.441406 575.558594 L 271.621094 565.210938 C 265.027344 544.289062 256.265625 521.53125 250.238281 500.746094 C 254.847656 495.011719 261.355469 488.074219 266.347656 482.46875 Z M 295.472656 449.789062 "/>
</g>
<g clip-path="url(#rclip19)" clip-rule="nonzero">
<path style=" stroke:none;fill-rule:nonzero;fill:rgb(99.607843%,73.333335%,38.039216%);fill-opacity:1;" d="M 243.441406 691.140625 L 287.441406 700.183594 C 293.871094 701.5 304.699219 703.402344 310.6875 705.140625 C 313.777344 713.578125 316.222656 722.375 319.246094 730.847656 C 319.941406 732.796875 320.507812 734.734375 321.441406 736.589844 L 321.441406 751.238281 C 320.015625 748.527344 317.402344 740.070312 316.285156 736.714844 L 306.976562 708.703125 L 267.960938 700.851562 C 260.839844 699.410156 252.277344 697.90625 245.308594 696.214844 L 203.578125 742.9375 C 206.285156 751.238281 209.210938 759.703125 211.808594 768 L 206.871094 768 C 204.023438 759.480469 200.902344 750.570312 198.296875 742.007812 C 201.746094 737.480469 209.1875 729.628906 213.167969 725.160156 Z M 243.441406 691.140625 "/>
</g>
<path style=" stroke:none;fill-rule:nonzero;fill:rgb(99.607843%,73.333335%,38.039216%);fill-opacity:1;" d="M 0 449.957031 C 9.550781 452.085938 27.105469 456.128906 36.460938 457.359375 C 38.351562 462.539062 40.164062 467.941406 41.839844 473.195312 C 47.058594 489.582031 53.046875 505.875 58.113281 522.296875 C 43.195312 539.046875 28.03125 556.550781 12.929688 573.050781 C 8.707031 572.160156 4.179688 571.292969 0 570.316406 L 0 565.648438 C 3.648438 566.542969 7.398438 567.234375 11.089844 567.953125 L 52.796875 520.953125 L 39.8125 482.164062 C 37.601562 475.546875 35.234375 467.902344 32.742188 461.472656 C 22.085938 459.046875 10.746094 456.90625 0 454.707031 Z M 0 449.957031 "/>
<path style=" stroke:none;fill-rule:nonzero;fill:rgb(99.607843%,73.333335%,38.039216%);fill-opacity:1;" d="M 148.972656 0 L 153.90625 0 L 164.992188 33.203125 L 205.589844 41.636719 C 212.292969 43.019531 220.164062 44.867188 226.753906 45.949219 C 240.371094 30.722656 253.976562 15.066406 267.714844 0 L 273.898438 0 C 259.171875 17.074219 243.585938 34.214844 228.589844 51.113281 C 223.246094 49.566406 212.199219 47.65625 206.277344 46.4375 L 161.304688 37.214844 C 157.261719 24.796875 152.953125 12.449219 148.972656 0 Z M 148.972656 0 "/>
<g clip-path="url(#rclip20)" clip-rule="nonzero">
<path style=" stroke:none;fill-rule:nonzero;fill:rgb(99.607843%,73.333335%,38.039216%);fill-opacity:1;" d="M 273.152344 379.019531 C 283.035156 366.898438 294.761719 355.25 304.878906 343.210938 C 308.683594 338.6875 313.84375 332.65625 318.070312 328.628906 C 319.046875 328.214844 320.367188 328.761719 321.441406 329.070312 L 321.441406 332.953125 C 317.816406 334.507812 284.117188 373.816406 278.472656 380.152344 C 284.648438 400.007812 291.980469 419.820312 298.25 439.644531 C 305.574219 441.429688 313.984375 442.980469 321.441406 444.5 L 321.441406 449.054688 C 312.621094 447.46875 303.753906 445.285156 294.800781 443.710938 C 291.933594 436.261719 289.046875 426.851562 286.476562 419.179688 C 281.949219 405.820312 277.507812 392.433594 273.152344 379.019531 Z M 273.152344 379.019531 "/>
</g>
<g clip-path="url(#rclip21)" clip-rule="nonzero">
<path style=" stroke:none;fill-rule:nonzero;fill:rgb(0%,0%,0%);fill-opacity:1;" d="M 321.441406 239.035156 L 321.441406 312.46875 C 319.503906 307.800781 316.914062 299.210938 315.230469 294.164062 L 303.5 258.964844 Z M 321.441406 239.035156 "/>
</g>
<g clip-path="url(#rclip22)" clip-rule="nonzero">
<path style=" stroke:none;fill-rule:nonzero;fill:rgb(99.607843%,73.333335%,38.039216%);fill-opacity:1;" d="M 126.675781 729.160156 C 142.050781 732.617188 157.757812 735.460938 173.179688 738.769531 C 179.6875 740.164062 187.699219 741.429688 193.972656 743.136719 C 196.660156 751.257812 199.683594 759.867188 202.171875 768 L 197.28125 768 C 194.9375 762.101562 192.273438 753.210938 190.292969 747.050781 C 170.46875 742.433594 148.535156 738.382812 128.457031 734.25 C 118.738281 745.546875 108.375 756.71875 98.527344 768 L 92.132812 768 C 103.554688 755.125 115.101562 741.859375 126.675781 729.160156 Z M 126.675781 729.160156 "/>
</g>
<path style=" stroke:none;fill-rule:nonzero;fill:rgb(99.607843%,73.333335%,38.039216%);fill-opacity:1;" d="M 0 7.789062 C 5.742188 8.949219 12.554688 10.5 18.246094 11.40625 C 25.574219 32.90625 32.78125 54.445312 39.867188 76.023438 L 0 120.789062 L 0 113.824219 C 3.628906 110.167969 8.578125 104.277344 12.058594 100.355469 L 34.546875 75.003906 L 14.667969 15.230469 L 0 12.261719 Z M 0 7.789062 "/>
<path style=" stroke:none;fill-rule:nonzero;fill:rgb(99.607843%,73.333335%,38.039216%);fill-opacity:1;" d="M 0 575.953125 C 2.671875 576.554688 6.847656 577.367188 9.34375 578.199219 C 14.179688 592.972656 19.089844 607.71875 24.074219 622.441406 C 26.214844 628.828125 28.804688 636.046875 30.667969 642.453125 C 28.15625 645.585938 25.347656 648.707031 22.636719 651.683594 C 15.023438 660.035156 7.691406 668.78125 0 677.050781 L 0 669.816406 C 8.125 661.386719 17.410156 650.214844 25.472656 641.304688 L 5.503906 581.789062 C 3.804688 581.324219 1.753906 581 0 580.667969 Z M 0 575.953125 "/>
<path style=" stroke:none;fill-rule:nonzero;fill:rgb(99.607843%,73.333335%,38.039216%);fill-opacity:1;" d="M 0 149.53125 C 1.679688 153.105469 5.277344 164.453125 6.605469 168.648438 C 9.367188 177.363281 13.316406 187.660156 15.707031 196.320312 L 0 214.015625 Z M 0 149.53125 "/>
<path style=" stroke:none;fill-rule:nonzero;fill:rgb(0%,0%,0%);fill-opacity:1;" d="M 0 164.203125 C 3.648438 172.910156 7.148438 185.742188 10.511719 195.015625 L 0 206.753906 Z M 0 164.203125 "/>
<g clip-path="url(#rclip23)" clip-rule="nonzero">
<path style=" stroke:none;fill-rule:nonzero;fill:rgb(99.607843%,73.333335%,38.039216%);fill-opacity:1;" d="M 298.289062 257.851562 L 321.441406 231.785156 L 321.441406 239.035156 L 303.5 258.964844 L 315.230469 294.164062 C 316.914062 299.210938 319.503906 307.800781 321.441406 312.46875 L 321.441406 323.472656 C 320.503906 322.871094 319.839844 322.316406 319.449219 321.234375 C 313.992188 306.003906 309.101562 290.550781 303.910156 275.226562 C 301.976562 269.511719 299.9375 263.640625 298.289062 257.851562 Z M 298.289062 257.851562 "/>
</g>
<g clip-path="url(#rclip24)" clip-rule="nonzero">
<path style=" stroke:none;fill-rule:nonzero;fill:rgb(99.607843%,73.333335%,38.039216%);fill-opacity:1;" d="M 281.773438 0 L 321.441406 0 L 321.441406 8.554688 C 315.859375 7.417969 285.007812 1.746094 281.773438 0 Z M 281.773438 0 "/>
</g>
<g clip-path="url(#rclip25)" clip-rule="nonzero">
<path style=" stroke:none;fill-rule:nonzero;fill:rgb(0%,0%,0%);fill-opacity:1;" d="M 303.347656 0 L 321.441406 0 L 321.441406 3.960938 C 316.035156 2.953125 308.570312 1.425781 303.347656 0 Z M 303.347656 0 "/>
</g>
<path style=" stroke:none;fill-rule:nonzero;fill:rgb(99.607843%,73.333335%,38.039216%);fill-opacity:1;" d="M 0 0 L 28 0 C 26.136719 2.105469 22.417969 6.5 20.511719 8.246094 C 13.769531 6.847656 6.691406 5.484375 0 3.96875 Z M 0 0 "/>
<path style=" stroke:none;fill-rule:nonzero;fill:rgb(0%,0%,0%);fill-opacity:1;" d="M 3.933594 0 L 21.546875 0 C 20.730469 1.035156 19.65625 2.226562 18.785156 3.246094 C 13.863281 2.246094 8.777344 1.28125 3.933594 0 Z M 3.933594 0 "/>
<g clip-path="url(#rclip26)" clip-rule="nonzero">
<path style=" stroke:none;fill-rule:nonzero;fill:rgb(99.607843%,73.333335%,38.039216%);fill-opacity:1;" d="M 316.25 704.15625 L 321.441406 698.265625 L 321.441406 719.679688 C 319.835938 716.378906 317.34375 707.859375 316.25 704.15625 Z M 316.25 704.15625 "/>
</g>
<path style=" stroke:none;fill-rule:nonzero;fill:rgb(99.607843%,73.333335%,38.039216%);fill-opacity:1;" d="M 133.878906 162.960938 C 134.839844 163.007812 139.234375 164.03125 140.367188 164.273438 L 153.839844 167.074219 C 169.59375 170.21875 185.328125 173.460938 201.039062 176.804688 C 203.070312 181.3125 207.460938 195.421875 209.1875 200.8125 C 213.4375 214.105469 218.765625 228.339844 222.636719 241.605469 C 218.253906 246.210938 213.488281 251.867188 209.183594 256.710938 L 177.59375 292.160156 C 176.125 292.167969 160.738281 288.839844 158.351562 288.34375 L 110.351562 278.386719 C 107.597656 271.238281 104.753906 261.894531 102.285156 254.511719 L 88.710938 213.699219 Z M 133.878906 162.960938 "/>
<path style=" stroke:none;fill-rule:nonzero;fill:rgb(0%,0%,0%);fill-opacity:1;" d="M 135.730469 168.027344 C 155.878906 171.761719 177.222656 176.585938 197.410156 180.699219 L 217.40625 240.265625 L 175.558594 287.328125 C 170.195312 285.800781 160.300781 284.082031 154.597656 282.90625 L 113.921875 274.480469 C 107.347656 254.765625 100.808594 234.691406 93.972656 215.085938 C 106.878906 199.746094 122.261719 183.179688 135.730469 168.027344 Z M 135.730469 168.027344 "/>
<path style=" stroke:none;fill-rule:nonzero;fill:rgb(99.607843%,73.333335%,38.039216%);fill-opacity:1;" d="M 60.921875 526.832031 C 63.328125 526.996094 78.117188 530.28125 81.03125 530.875 L 128.167969 540.601562 C 130.578125 546.609375 133.40625 556.015625 135.523438 562.332031 L 149.878906 605.261719 L 121.246094 637.40625 C 115.90625 643.402344 109.878906 649.910156 104.796875 656.0625 C 82.960938 651.726562 58.890625 647.089844 37.308594 642.121094 C 30.296875 620.988281 22.34375 598.574219 15.878906 577.402344 Z M 60.921875 526.832031 "/>
<path style=" stroke:none;fill-rule:nonzero;fill:rgb(0%,0%,0%);fill-opacity:1;" d="M 62.917969 531.644531 C 67.316406 532.972656 78.394531 534.953125 83.367188 535.984375 L 124.628906 544.449219 C 125.980469 549.683594 129.511719 559.269531 131.335938 564.703125 L 144.535156 603.90625 C 141.246094 608.191406 134.398438 615.394531 130.5 619.785156 L 102.757812 651.007812 C 82.359375 646.554688 61.558594 642.550781 41.082031 638.226562 L 21.152344 578.6875 C 23.046875 576.65625 24.9375 574.511719 26.765625 572.414062 C 38.6875 558.746094 51.136719 545.421875 62.917969 531.644531 Z M 62.917969 531.644531 "/>
<path style=" stroke:none;fill-rule:nonzero;fill:rgb(99.607843%,73.333335%,38.039216%);fill-opacity:1;" d="M 108.996094 283.027344 C 111.867188 284.003906 122.796875 286.058594 126.179688 286.753906 L 157.683594 293.210938 C 163.375 294.378906 170.667969 295.6875 176.171875 297.21875 C 182.90625 318.007812 191.523438 340.976562 197.554688 361.625 L 152.441406 412.269531 C 149.558594 412.171875 138.734375 409.511719 134.949219 408.835938 C 118.910156 405.980469 101.195312 401.167969 85.285156 398.816406 C 79.917969 383.671875 75.164062 368.199219 69.910156 353.003906 C 67.746094 346.742188 65.582031 340.300781 63.695312 333.953125 C 65.070312 332.273438 66.621094 330.5625 68.074219 328.941406 C 81.769531 313.703125 95.195312 298.167969 108.996094 283.027344 Z M 108.996094 283.027344 "/>
<path style=" stroke:none;fill-rule:nonzero;fill:rgb(0%,0%,0%);fill-opacity:1;" d="M 110.59375 288.242188 C 116.953125 289.304688 124.828125 291.105469 131.257812 292.40625 L 172.292969 300.726562 C 179.203125 320.28125 185.625 340.796875 192.332031 360.527344 C 178.398438 375.582031 164.394531 391.695312 150.714844 407.074219 C 149.773438 407.320312 94.367188 395.90625 88.820312 394.734375 C 82.574219 374.96875 75.464844 354.730469 68.941406 334.972656 C 82.628906 319.285156 96.886719 303.945312 110.59375 288.242188 Z M 110.59375 288.242188 "/>
<path style=" stroke:none;fill-rule:nonzero;fill:rgb(99.607843%,73.333335%,38.039216%);fill-opacity:1;" d="M 201.246094 366.960938 C 203.96875 366.894531 218.410156 370.144531 221.945312 370.878906 C 237.507812 374.160156 253.09375 377.34375 268.699219 380.421875 C 276.234375 400.785156 283.183594 423.984375 290.347656 444.824219 C 286.890625 449.3125 281.558594 454.726562 277.753906 459.160156 C 267.3125 471.339844 255.617188 483.378906 245.390625 495.667969 C 243.386719 496.019531 184.210938 483.414062 177.730469 481.984375 C 176.320312 476.578125 173.6875 469.921875 171.972656 464.429688 C 167.152344 448.96875 160.855469 432.859375 156.390625 417.375 Z M 201.246094 366.960938 "/>
<path style=" stroke:none;fill-rule:nonzero;fill:rgb(0%,0%,0%);fill-opacity:1;" d="M 203.238281 371.828125 C 207.535156 372.242188 218.492188 374.796875 223.386719 375.792969 L 265.011719 384.191406 C 271.867188 403.933594 278.238281 424.121094 285.011719 443.953125 L 243.246094 490.75 C 223.136719 486.488281 201.785156 482.121094 181.597656 478.308594 C 180.75 476.003906 179.921875 473.464844 179.175781 471.113281 C 173.601562 453.515625 167.019531 436.007812 161.6875 418.355469 C 175.472656 403.492188 189.789062 387.046875 203.238281 371.828125 Z M 203.238281 371.828125 "/>
<path style=" stroke:none;fill-rule:nonzero;fill:rgb(99.607843%,73.333335%,38.039216%);fill-opacity:1;" d="M 177.546875 487.164062 C 182.953125 488.617188 189.832031 489.636719 195.414062 490.902344 C 211.542969 494.554688 228.875 497.238281 244.867188 501.117188 C 246.984375 508.160156 249.863281 516.152344 252.222656 523.203125 L 266.355469 565.441406 C 251.648438 582.546875 236.039062 599.34375 221.15625 616.375 C 216.09375 615.574219 210.441406 614.089844 205.328125 613.152344 C 188.546875 610.078125 170.820312 605.472656 154.058594 602.789062 C 152.976562 599.792969 151.910156 596.757812 150.9375 593.722656 C 144.980469 575.132812 138.15625 556.648438 132.417969 538.003906 C 136.875 532.539062 143.140625 525.832031 147.910156 520.460938 Z M 177.546875 487.164062 "/>
<path style=" stroke:none;fill-rule:nonzero;fill:rgb(0%,0%,0%);fill-opacity:1;" d="M 179.347656 492.261719 C 181.671875 492.621094 184.433594 493.25 186.738281 493.765625 C 204.699219 497.820312 223.175781 500.804688 241.078125 505.042969 C 243.796875 512.234375 246.582031 521.367188 249.078125 528.808594 C 253.140625 540.742188 257.113281 552.703125 260.996094 564.699219 C 247.105469 579.003906 232.992188 596.6875 219.132812 611.566406 C 215.335938 610.363281 203.929688 608.308594 199.457031 607.390625 L 157.542969 598.699219 C 151.660156 579.351562 144.035156 558.660156 137.703125 539.195312 Z M 179.347656 492.261719 "/>
<path style=" stroke:none;fill-rule:nonzero;fill:rgb(99.607843%,73.333335%,38.039216%);fill-opacity:1;" d="M 84.042969 405.320312 C 86.542969 405.960938 89.375 406.472656 91.9375 406.980469 C 111.722656 410.886719 131.46875 415.34375 151.261719 419.171875 C 158.253906 440.75 165.855469 462.226562 172.804688 483.828125 C 158.039062 499.582031 142.066406 518.3125 127.660156 534.535156 L 60.355469 520.71875 L 46.976562 480.691406 C 44.4375 473.078125 40.957031 463.445312 38.882812 455.851562 Z M 84.042969 405.320312 "/>
<path style=" stroke:none;fill-rule:nonzero;fill:rgb(0%,0%,0%);fill-opacity:1;" d="M 85.949219 410.164062 C 93.667969 412.105469 103.210938 413.828125 111.105469 415.460938 C 123.21875 418.03125 135.351562 420.511719 147.503906 422.898438 L 167.523438 482.476562 C 153.621094 498.039062 139.664062 514.273438 125.582031 529.597656 C 121.140625 528.21875 109.929688 526.226562 104.945312 525.199219 L 64.058594 516.785156 C 57.269531 497.160156 50.761719 477.058594 44.164062 457.34375 C 46.515625 454.050781 54.734375 445.273438 57.710938 441.925781 Z M 85.949219 410.164062 "/>
<path style=" stroke:none;fill-rule:nonzero;fill:rgb(99.607843%,73.333335%,38.039216%);fill-opacity:1;" d="M 152.726562 609.695312 C 156.011719 609.957031 169.746094 613.105469 173.800781 613.941406 L 219.875 623.359375 C 227.355469 643.894531 234.554688 667.078125 241.539062 687.96875 C 226.8125 704.933594 211.324219 721.953125 196.367188 738.789062 C 174.265625 733.921875 151.171875 729.46875 128.945312 724.960938 C 122.5 703.609375 113.886719 681.785156 107.613281 660.445312 C 112.382812 654.628906 118.339844 648.285156 123.433594 642.570312 Z M 152.726562 609.695312 "/>
<path style=" stroke:none;fill-rule:nonzero;fill:rgb(0%,0%,0%);fill-opacity:1;" d="M 154.601562 614.417969 C 161.085938 616.054688 169.109375 617.488281 175.832031 618.886719 L 216.257812 627.21875 L 236.210938 686.734375 L 194.507812 733.707031 C 192.304688 733.5625 178.34375 730.449219 175.5 729.859375 L 132.667969 720.953125 C 126.707031 701.253906 118.792969 681.105469 112.902344 661.398438 C 126.753906 645.890625 140.984375 630.105469 154.601562 614.417969 Z M 154.601562 614.417969 "/>
<path style=" stroke:none;fill-rule:nonzero;fill:rgb(99.607843%,73.333335%,38.039216%);fill-opacity:1;" d="M 227.390625 245.480469 C 229.015625 245.484375 244.253906 248.832031 246.609375 249.320312 L 294.726562 259.238281 C 296.296875 264.914062 299.433594 273.359375 301.367188 279.128906 L 316.179688 323.632812 C 313.214844 327.730469 305.132812 336.296875 301.378906 340.511719 L 271.230469 374.441406 C 264.507812 373.390625 256.40625 371.511719 249.648438 370.121094 C 234.375 366.902344 219.078125 363.789062 203.765625 360.777344 C 196.921875 339.261719 189.1875 317.765625 182.269531 296.210938 C 196.910156 279.300781 212.484375 262.234375 227.390625 245.480469 Z M 227.390625 245.480469 "/>
<path style=" stroke:none;fill-rule:nonzero;fill:rgb(0%,0%,0%);fill-opacity:1;" d="M 229.269531 250.386719 C 230.589844 250.359375 243.902344 253.226562 246.074219 253.679688 L 291.007812 263.023438 C 297.855469 281.976562 304.484375 303.273438 310.945312 322.574219 C 297.316406 336.90625 282.757812 354.367188 269.296875 369.304688 C 268.375 369.546875 214.125 358.140625 207.519531 356.792969 L 187.597656 297.152344 C 201.519531 281.667969 215.265625 265.730469 229.269531 250.386719 Z M 229.269531 250.386719 "/>
<path style=" stroke:none;fill-rule:nonzero;fill:rgb(99.607843%,73.333335%,38.039216%);fill-opacity:1;" d="M 159.0625 41.964844 C 163.363281 43.425781 173.445312 45.027344 178.25 46.117188 C 193.832031 49.65625 210.742188 52.203125 226.148438 56.027344 L 247.652344 120.574219 C 232.820312 136.363281 217.09375 154.886719 202.519531 171.25 C 196.460938 170.3125 188.195312 168.347656 182.054688 167.082031 C 166.472656 163.820312 150.875 160.648438 135.257812 157.5625 L 122.523438 119.636719 C 119.613281 110.917969 116.347656 101.660156 113.71875 92.894531 Z M 159.0625 41.964844 "/>
<path style=" stroke:none;fill-rule:nonzero;fill:rgb(0%,0%,0%);fill-opacity:1;" d="M 160.683594 47.144531 C 165.472656 47.636719 176.605469 50.257812 181.789062 51.332031 L 222.429688 59.796875 L 242.386719 119.285156 C 228.464844 134.515625 214.207031 150.785156 200.605469 166.320312 C 193.9375 164.691406 186.089844 163.253906 179.292969 161.851562 L 138.859375 153.476562 C 132.320312 133.644531 125.683594 113.84375 118.941406 94.078125 C 132.433594 78.589844 146.835938 62.289062 160.683594 47.144531 Z M 160.683594 47.144531 "/>
</g>
</symbol>
</svg>