<?xml version="1.0" encoding="UTF-8"?>
<svg version="1.1" xmlns="http://www.w3.org/2000/svg" width="1024" height="1024">
<path d="M0 0 C1.06992187 0.01289063 2.13984375 0.02578125 3.2421875 0.0390625 C4.35335938 0.07257813 5.46453125 0.10609375 6.609375 0.140625 C7.73601562 0.15867187 8.86265625 0.17671875 10.0234375 0.1953125 C12.80294396 0.24242278 15.5807284 0.30819139 18.359375 0.390625 C18.359375 1.050625 18.359375 1.710625 18.359375 2.390625 C19.019375 2.390625 19.679375 2.390625 20.359375 2.390625 C20.359375 3.050625 20.359375 3.710625 20.359375 4.390625 C21.019375 4.390625 21.679375 4.390625 22.359375 4.390625 C24.30739912 8.4884606 24.6572656 11.87145123 24.671875 16.390625 C24.68863281 17.586875 24.70539063 18.783125 24.72265625 20.015625 C24.32966144 23.66667358 23.56941779 25.49220823 21.359375 28.390625 C18.359375 30.390625 18.359375 30.390625 14.53515625 30.4140625 C11.66793493 30.71711815 10.66793619 31.04318196 8.72802734 33.22753906 C7.18554818 35.76839838 5.84587624 38.34220881 4.546875 41.015625 C4.08345703 41.90636719 3.62003906 42.79710937 3.14257812 43.71484375 C0.66819784 48.52200887 -1.58006424 53.39325172 -3.640625 58.390625 C-2.71121094 58.36742187 -1.78179687 58.34421875 -0.82421875 58.3203125 C11.45427834 58.14106437 11.45427834 58.14106437 17.359375 60.390625 C17.359375 61.050625 17.359375 61.710625 17.359375 62.390625 C18.1225 62.535 18.885625 62.679375 19.671875 62.828125 C22.359375 63.390625 22.359375 63.390625 25.359375 64.390625 C25.359375 65.050625 25.359375 65.710625 25.359375 66.390625 C25.92140625 66.48472656 26.4834375 66.57882812 27.0625 66.67578125 C29.92469331 67.5665659 31.75707961 68.97934382 34.109375 70.828125 C34.90859375 71.44558594 35.7078125 72.06304687 36.53125 72.69921875 C37.13453125 73.25738281 37.7378125 73.81554687 38.359375 74.390625 C38.359375 75.050625 38.359375 75.710625 38.359375 76.390625 C39.019375 76.390625 39.679375 76.390625 40.359375 76.390625 C40.359375 77.050625 40.359375 77.710625 40.359375 78.390625 C41.679375 79.050625 42.999375 79.710625 44.359375 80.390625 C44.359375 81.050625 44.359375 81.710625 44.359375 82.390625 C45.019375 82.390625 45.679375 82.390625 46.359375 82.390625 C46.359375 83.050625 46.359375 83.710625 46.359375 84.390625 C47.019375 84.390625 47.679375 84.390625 48.359375 84.390625 C48.359375 85.050625 48.359375 85.710625 48.359375 86.390625 C49.019375 86.390625 49.679375 86.390625 50.359375 86.390625 C52.07863572 88.52322715 53.66969344 90.64838804 55.234375 92.890625 C55.90992432 93.85258789 55.90992432 93.85258789 56.59912109 94.83398438 C65.08963029 107.08807208 65.08963029 107.08807208 64.359375 114.390625 C68.42661218 113.03487927 69.6969183 110.27263383 71.921875 106.828125 C73.34897417 104.62638072 74.8060405 102.50988023 76.359375 100.390625 C77.019375 100.390625 77.679375 100.390625 78.359375 100.390625 C78.6275 99.81828125 78.895625 99.2459375 79.171875 98.65625 C80.40070136 96.31177866 81.78459676 94.26657562 83.359375 92.140625 C83.875 91.43421875 84.390625 90.7278125 84.921875 90 C85.6334375 89.20335937 85.6334375 89.20335937 86.359375 88.390625 C87.019375 88.390625 87.679375 88.390625 88.359375 88.390625 C88.359375 87.730625 88.359375 87.070625 88.359375 86.390625 C89.019375 86.390625 89.679375 86.390625 90.359375 86.390625 C90.359375 85.730625 90.359375 85.070625 90.359375 84.390625 C91.019375 84.390625 91.679375 84.390625 92.359375 84.390625 C92.359375 83.730625 92.359375 83.070625 92.359375 82.390625 C93.019375 82.390625 93.679375 82.390625 94.359375 82.390625 C94.359375 81.730625 94.359375 81.070625 94.359375 80.390625 C95.019375 80.390625 95.679375 80.390625 96.359375 80.390625 C96.359375 79.730625 96.359375 79.070625 96.359375 78.390625 C97.019375 78.390625 97.679375 78.390625 98.359375 78.390625 C98.359375 77.730625 98.359375 77.070625 98.359375 76.390625 C99.019375 76.390625 99.679375 76.390625 100.359375 76.390625 C100.359375 75.730625 100.359375 75.070625 100.359375 74.390625 C101.019375 74.390625 101.679375 74.390625 102.359375 74.390625 C102.359375 73.730625 102.359375 73.070625 102.359375 72.390625 C103.86841377 71.03688536 105.44350198 69.75619099 107.046875 68.515625 C107.91699219 67.83757812 108.78710938 67.15953125 109.68359375 66.4609375 C111.00810547 65.43613281 111.00810547 65.43613281 112.359375 64.390625 C113.69935547 63.27300781 113.69935547 63.27300781 115.06640625 62.1328125 C117.359375 60.390625 117.359375 60.390625 119.359375 60.390625 C119.359375 59.730625 119.359375 59.070625 119.359375 58.390625 C121.009375 57.730625 122.659375 57.070625 124.359375 56.390625 C124.359375 55.730625 124.359375 55.070625 124.359375 54.390625 C125.349375 54.390625 126.339375 54.390625 127.359375 54.390625 C127.359375 53.730625 127.359375 53.070625 127.359375 52.390625 C132.65349265 48.390625 132.65349265 48.390625 136.359375 48.390625 C136.359375 47.730625 136.359375 47.070625 136.359375 46.390625 C137.349375 46.390625 138.339375 46.390625 139.359375 46.390625 C139.359375 45.730625 139.359375 45.070625 139.359375 44.390625 C140.349375 44.390625 141.339375 44.390625 142.359375 44.390625 C142.359375 43.730625 142.359375 43.070625 142.359375 42.390625 C145.00676416 40.9299965 146.25385834 40.390625 149.359375 40.390625 C149.359375 39.730625 149.359375 39.070625 149.359375 38.390625 C149.90352051 38.13369873 150.44766602 37.87677246 151.00830078 37.61206055 C153.50065454 36.43477714 155.99251787 35.2564592 158.484375 34.078125 C159.3403125 33.67400391 160.19625 33.26988281 161.078125 32.85351562 C161.91601562 32.45712891 162.75390625 32.06074219 163.6171875 31.65234375 C164.43606445 31.2661084 165.25494141 30.87987305 166.09863281 30.48193359 C167.99701556 29.56554365 169.86591326 28.58841959 171.7265625 27.59765625 C174.359375 26.390625 174.359375 26.390625 178.359375 26.390625 C178.359375 25.730625 178.359375 25.070625 178.359375 24.390625 C182.53674974 22.79924415 185.89098285 22.17784442 190.359375 22.390625 C190.359375 21.730625 190.359375 21.070625 190.359375 20.390625 C192.999375 20.390625 195.639375 20.390625 198.359375 20.390625 C198.359375 19.730625 198.359375 19.070625 198.359375 18.390625 C202.81748252 18.27328263 207.27518628 18.20299128 211.734375 18.140625 C212.98605469 18.10710937 214.23773437 18.07359375 215.52734375 18.0390625 C227.33716214 17.91539948 235.1943227 21.25519307 244.984375 27.515625 C246.06138672 28.17884766 246.06138672 28.17884766 247.16015625 28.85546875 C248.93296482 29.97318235 250.65228412 31.17490519 252.359375 32.390625 C252.359375 33.050625 252.359375 33.710625 252.359375 34.390625 C253.2565625 34.82375 253.2565625 34.82375 254.171875 35.265625 C256.359375 36.390625 256.359375 36.390625 259.359375 38.390625 C259.359375 39.050625 259.359375 39.710625 259.359375 40.390625 C259.90851562 40.60589844 260.45765625 40.82117188 261.0234375 41.04296875 C264.14573063 42.84429171 266.35114705 45.29915972 268.734375 47.953125 C269.22043213 48.4903418 269.70648926 49.02755859 270.20727539 49.58105469 C278.11524186 58.46843001 283.60834965 67.90502945 286.74609375 79.38671875 C287.18137715 81.36903364 287.18137715 81.36903364 288.359375 82.390625 C291.03600655 90.77356458 290.73169955 99.70696571 290.72998047 108.40380859 C290.73436644 110.88578316 290.77082185 113.3659932 290.80859375 115.84765625 C290.91123184 129.73017546 287.59791997 138.43106097 279.45507812 149.6640625 C278.17718691 151.56136824 277.11833388 153.23180863 276.359375 155.390625 C277.25398174 158.62820778 277.25398174 158.62820778 279.359375 161.390625 C279.854375 162.3084375 280.349375 163.22625 280.859375 164.171875 C281.354375 165.0690625 281.849375 165.96625 282.359375 166.890625 C283.14248047 168.33115234 283.14248047 168.33115234 283.94140625 169.80078125 C284.95631581 171.65445905 285.99417374 173.49564503 287.046875 175.328125 C288.79196221 179.39999515 289.72452913 183.56734707 290.7109375 187.87890625 C291.11257913 190.31313046 291.11257913 190.31313046 292.359375 191.390625 C292.68174712 193.96960194 292.87204804 196.54994321 293.078125 199.140625 C293.12138165 201.35727852 293.12138165 201.35727852 294.359375 202.390625 C294.48539239 205.20482247 294.54806794 207.99309386 294.5625 210.80859375 C294.56820007 211.65859451 294.57390015 212.50859528 294.57977295 213.38435364 C294.58924089 215.18924713 294.59576402 216.99415804 294.59960938 218.79907227 C294.60927372 221.5493033 294.64026234 224.29877402 294.671875 227.04882812 C294.67840902 228.80207889 294.68365792 230.55533502 294.6875 232.30859375 C294.6998468 233.12756638 294.7121936 233.946539 294.72491455 234.79032898 C294.70079669 241.03559943 293.31585758 245.10980574 289.16796875 249.9453125 C288.38550781 250.71101562 287.60304688 251.47671875 286.796875 252.265625 C286.01183594 253.04679688 285.22679687 253.82796875 284.41796875 254.6328125 C282.359375 256.390625 282.359375 256.390625 280.359375 256.390625 C280.359375 257.050625 280.359375 257.710625 280.359375 258.390625 C277.75568283 260.59597525 274.82881304 262.38586167 271.984375 264.265625 C271.20964844 264.79542969 270.43492187 265.32523438 269.63671875 265.87109375 C262.02500998 270.94137249 254.48579678 274.41972907 245.359375 275.390625 C245.029375 275.720625 244.699375 276.050625 244.359375 276.390625 C241.1495057 276.66061401 237.94706641 276.83673937 234.73046875 276.99609375 C231.24993223 276.8876802 231.24993223 276.8876802 228.359375 278.390625 C226.59078307 278.49008953 224.81826049 278.52142717 223.046875 278.5234375 C221.97179687 278.52472656 220.89671875 278.52601563 219.7890625 278.52734375 C218.65726563 278.52347656 217.52546875 278.51960938 216.359375 278.515625 C215.22757813 278.51949219 214.09578125 278.52335937 212.9296875 278.52734375 C211.85460937 278.52605469 210.77953125 278.52476562 209.671875 278.5234375 C208.18107422 278.52174561 208.18107422 278.52174561 206.66015625 278.52001953 C204.359375 278.390625 204.359375 278.390625 203.359375 277.390625 C200.52230412 277.1796032 197.70039854 277.01454687 194.859375 276.890625 C186.49451014 276.52576014 186.49451014 276.52576014 185.359375 275.390625 C184.00884686 275.23104399 182.65328338 275.11334224 181.296875 275.015625 C177.25583554 274.6179354 173.96024979 273.62532807 170.22265625 272.08984375 C167.65371625 271.12581805 165.07315608 270.72984764 162.359375 270.390625 C162.359375 269.730625 162.359375 269.070625 162.359375 268.390625 C160.709375 268.390625 159.059375 268.390625 157.359375 268.390625 C157.359375 267.730625 157.359375 267.070625 157.359375 266.390625 C156.616875 266.24625 155.874375 266.101875 155.109375 265.953125 C152.83852394 265.48863274 150.60477467 264.96157064 148.359375 264.390625 C148.49214844 264.98488281 148.62492187 265.57914063 148.76171875 266.19140625 C149.97265511 271.8748521 150.71484588 277.44063999 151.11328125 283.23828125 C151.13084138 285.36949273 151.13084138 285.36949273 152.359375 286.390625 C152.4477717 288.7663102 152.47467805 291.11271174 152.45703125 293.48828125 C152.45490883 294.55156898 152.45490883 294.55156898 152.45274353 295.63633728 C152.44712943 297.90864212 152.43457463 300.18084975 152.421875 302.453125 C152.41686181 303.99023296 152.41229859 305.52734245 152.40820312 307.06445312 C152.39715542 310.83988142 152.37988141 314.61523671 152.359375 318.390625 C151.699375 318.390625 151.039375 318.390625 150.359375 318.390625 C150.41738281 319.20144531 150.47539063 320.01226563 150.53515625 320.84765625 C150.88508062 329.43580019 149.40216263 334.90845088 145.359375 342.390625 C144.43048497 344.23823102 143.51641595 346.09279929 142.60180664 347.94750977 C141.20565699 350.77096494 139.78086754 353.5798652 138.359375 356.390625 C137.69184436 357.72352599 137.0247303 359.05663679 136.359375 360.390625 C135.699375 360.390625 135.039375 360.390625 134.359375 360.390625 C134.25625 360.926875 134.153125 361.463125 134.046875 362.015625 C133.17844803 365.01564544 131.80317204 367.6285785 130.359375 370.390625 C129.699375 370.390625 129.039375 370.390625 128.359375 370.390625 C128.27163818 370.92526367 128.18390137 371.45990234 128.09350586 372.01074219 C127.10452904 375.21677678 125.44100874 377.65620891 123.61328125 380.46875 C123.05651955 381.32590607 123.05651955 381.32590607 122.48851013 382.20037842 C121.70537494 383.40236115 120.91934678 384.60246336 120.13061523 385.80078125 C118.92068513 387.64243612 117.72457137 389.49255912 116.52929688 391.34375 C115.76644183 392.51095094 115.00279724 393.67763631 114.23828125 394.84375 C113.5429126 395.90754883 112.84754395 396.97134766 112.13110352 398.06738281 C111.2540979 399.2173877 111.2540979 399.2173877 110.359375 400.390625 C109.699375 400.390625 109.039375 400.390625 108.359375 400.390625 C107.988125 401.195 107.988125 401.195 107.609375 402.015625 C106.05284963 404.9730232 104.32501827 407.68786551 102.359375 410.390625 C101.699375 410.390625 101.039375 410.390625 100.359375 410.390625 C100.359375 411.050625 100.359375 411.710625 100.359375 412.390625 C99.039375 412.390625 97.719375 412.390625 96.359375 412.390625 C96.359375 413.050625 96.359375 413.710625 96.359375 414.390625 C95.699375 414.390625 95.039375 414.390625 94.359375 414.390625 C94.359375 415.050625 94.359375 415.710625 94.359375 416.390625 C93.699375 416.390625 93.039375 416.390625 92.359375 416.390625 C92.359375 420.53725399 92.75477126 424.29275517 93.359375 428.390625 C93.689375 428.720625 94.019375 429.050625 94.359375 429.390625 C94.95175375 434.90820989 95.40904396 439.75051726 92.359375 444.515625 C88.65260967 446.83235333 85.64599486 447.59142469 81.359375 448.390625 C81.359375 447.730625 81.359375 447.070625 81.359375 446.390625 C80.369375 446.390625 79.379375 446.390625 78.359375 446.390625 C78.359375 445.730625 78.359375 445.070625 78.359375 444.390625 C77.74191406 444.1328125 77.12445312 443.875 76.48828125 443.609375 C70.47426919 440.16649103 69.07463049 430.61144081 67.359375 424.390625 C66.79541016 424.40633545 66.23144531 424.4220459 65.65039062 424.43823242 C63.05349065 424.50124074 60.45675225 424.53982098 57.859375 424.578125 C56.5290625 424.61583008 56.5290625 424.61583008 55.171875 424.65429688 C49.18386682 424.72034108 44.8217717 423.73388596 39.359375 421.390625 C37.36819387 420.79766297 35.36889044 420.2306228 33.359375 419.703125 C32.410625 419.45175781 31.461875 419.20039062 30.484375 418.94140625 C29.783125 418.75964844 29.081875 418.57789063 28.359375 418.390625 C28.359375 417.730625 28.359375 417.070625 28.359375 416.390625 C27.658125 416.431875 26.956875 416.473125 26.234375 416.515625 C22.97565872 416.37394168 20.4033803 415.52327814 17.359375 414.390625 C17.359375 413.730625 17.359375 413.070625 17.359375 412.390625 C16.67875 412.27460937 15.998125 412.15859375 15.296875 412.0390625 C11.86960705 411.28251133 8.6662093 410.19154668 5.359375 409.015625 C4.163125 408.59539062 2.966875 408.17515625 1.734375 407.7421875 C-1.3061143 406.52458415 -3.86680858 405.10820257 -6.640625 403.390625 C-7.775 402.99875 -8.909375 402.606875 -10.078125 402.203125 C-17.70169656 399.48667996 -24.93673711 394.85988359 -31.640625 390.390625 C-31.640625 389.730625 -31.640625 389.070625 -31.640625 388.390625 C-32.300625 388.390625 -32.960625 388.390625 -33.640625 388.390625 C-33.640625 387.730625 -33.640625 387.070625 -33.640625 386.390625 C-34.300625 386.390625 -34.960625 386.390625 -35.640625 386.390625 C-35.640625 385.730625 -35.640625 385.070625 -35.640625 384.390625 C-36.300625 384.390625 -36.960625 384.390625 -37.640625 384.390625 C-37.640625 383.730625 -37.640625 383.070625 -37.640625 382.390625 C-38.300625 382.390625 -38.960625 382.390625 -39.640625 382.390625 C-39.640625 381.730625 -39.640625 381.070625 -39.640625 380.390625 C-40.300625 380.390625 -40.960625 380.390625 -41.640625 380.390625 C-41.640625 379.730625 -41.640625 379.070625 -41.640625 378.390625 C-42.300625 378.390625 -42.960625 378.390625 -43.640625 378.390625 C-43.640625 377.730625 -43.640625 377.070625 -43.640625 376.390625 C-44.300625 376.390625 -44.960625 376.390625 -45.640625 376.390625 C-45.640625 375.070625 -45.640625 373.750625 -45.640625 372.390625 C-46.300625 372.390625 -46.960625 372.390625 -47.640625 372.390625 C-47.640625 371.730625 -47.640625 371.070625 -47.640625 370.390625 C-48.300625 370.390625 -48.960625 370.390625 -49.640625 370.390625 C-50.300625 368.410625 -50.960625 366.430625 -51.640625 364.390625 C-52.300625 364.390625 -52.960625 364.390625 -53.640625 364.390625 C-53.640625 363.730625 -53.640625 363.070625 -53.640625 362.390625 C-54.300625 362.390625 -54.960625 362.390625 -55.640625 362.390625 C-60.16109285 353.47005678 -64.50969779 344.4998491 -68.640625 335.390625 C-69.630625 335.720625 -70.620625 336.050625 -71.640625 336.390625 C-72.86582764 339.39909918 -72.86582764 339.39909918 -73.640625 342.390625 C-74.300625 342.390625 -74.960625 342.390625 -75.640625 342.390625 C-75.785 343.009375 -75.929375 343.628125 -76.078125 344.265625 C-76.640625 346.390625 -76.640625 346.390625 -77.640625 348.390625 C-78.300625 348.390625 -78.960625 348.390625 -79.640625 348.390625 C-79.785 349.009375 -79.929375 349.628125 -80.078125 350.265625 C-80.640625 352.390625 -80.640625 352.390625 -81.640625 354.390625 C-82.300625 354.390625 -82.960625 354.390625 -83.640625 354.390625 C-83.640625 355.050625 -83.640625 355.710625 -83.640625 356.390625 C-84.300625 356.390625 -84.960625 356.390625 -85.640625 356.390625 C-85.929375 357.15375 -86.218125 357.916875 -86.515625 358.703125 C-87.640625 361.390625 -87.640625 361.390625 -89.640625 364.390625 C-90.300625 364.390625 -90.960625 364.390625 -91.640625 364.390625 C-91.640625 365.050625 -91.640625 365.710625 -91.640625 366.390625 C-92.300625 366.390625 -92.960625 366.390625 -93.640625 366.390625 C-93.640625 367.050625 -93.640625 367.710625 -93.640625 368.390625 C-94.300625 368.390625 -94.960625 368.390625 -95.640625 368.390625 C-95.640625 369.050625 -95.640625 369.710625 -95.640625 370.390625 C-96.300625 370.390625 -96.960625 370.390625 -97.640625 370.390625 C-97.640625 371.050625 -97.640625 371.710625 -97.640625 372.390625 C-98.300625 372.390625 -98.960625 372.390625 -99.640625 372.390625 C-99.640625 373.050625 -99.640625 373.710625 -99.640625 374.390625 C-102.640625 376.390625 -102.640625 376.390625 -105.640625 376.390625 C-105.640625 377.050625 -105.640625 377.710625 -105.640625 378.390625 C-106.300625 378.390625 -106.960625 378.390625 -107.640625 378.390625 C-107.640625 379.050625 -107.640625 379.710625 -107.640625 380.390625 C-108.300625 380.390625 -108.960625 380.390625 -109.640625 380.390625 C-109.640625 381.050625 -109.640625 381.710625 -109.640625 382.390625 C-110.960625 382.390625 -112.280625 382.390625 -113.640625 382.390625 C-113.640625 383.050625 -113.640625 383.710625 -113.640625 384.390625 C-114.300625 384.390625 -114.960625 384.390625 -115.640625 384.390625 C-115.640625 385.050625 -115.640625 385.710625 -115.640625 386.390625 C-116.300625 386.390625 -116.960625 386.390625 -117.640625 386.390625 C-117.640625 387.050625 -117.640625 387.710625 -117.640625 388.390625 C-118.960625 388.390625 -120.280625 388.390625 -121.640625 388.390625 C-121.640625 389.050625 -121.640625 389.710625 -121.640625 390.390625 C-122.300625 390.390625 -122.960625 390.390625 -123.640625 390.390625 C-123.640625 391.050625 -123.640625 391.710625 -123.640625 392.390625 C-124.960625 392.390625 -126.280625 392.390625 -127.640625 392.390625 C-127.640625 393.050625 -127.640625 393.710625 -127.640625 394.390625 C-128.300625 394.390625 -128.960625 394.390625 -129.640625 394.390625 C-129.640625 395.050625 -129.640625 395.710625 -129.640625 396.390625 C-130.960625 396.390625 -132.280625 396.390625 -133.640625 396.390625 C-133.640625 397.050625 -133.640625 397.710625 -133.640625 398.390625 C-134.960625 398.390625 -136.280625 398.390625 -137.640625 398.390625 C-137.640625 399.050625 -137.640625 399.710625 -137.640625 400.390625 C-141.14839284 401.99417601 -143.78417379 402.61099364 -147.640625 402.390625 C-147.640625 403.050625 -147.640625 403.710625 -147.640625 404.390625 C-152.99381684 406.16264905 -157.69926182 406.7102482 -163.3203125 406.7265625 C-164.13251251 406.7332193 -164.94471252 406.7398761 -165.78152466 406.74673462 C-167.49088291 406.75680789 -169.20028007 406.7615533 -170.90966797 406.76123047 C-173.50164626 406.76560143 -176.09191614 406.80196955 -178.68359375 406.83984375 C-187.2320781 406.89610412 -194.09112996 406.90604402 -201.640625 402.390625 C-201.640625 401.730625 -201.640625 401.070625 -201.640625 400.390625 C-202.300625 400.390625 -202.960625 400.390625 -203.640625 400.390625 C-203.640625 399.730625 -203.640625 399.070625 -203.640625 398.390625 C-204.300625 398.390625 -204.960625 398.390625 -205.640625 398.390625 C-205.640625 397.730625 -205.640625 397.070625 -205.640625 396.390625 C-206.300625 396.390625 -206.960625 396.390625 -207.640625 396.390625 C-207.640625 395.070625 -207.640625 393.750625 -207.640625 392.390625 C-208.300625 392.390625 -208.960625 392.390625 -209.640625 392.390625 C-209.640625 391.730625 -209.640625 391.070625 -209.640625 390.390625 C-210.300625 390.390625 -210.960625 390.390625 -211.640625 390.390625 C-211.640625 389.730625 -211.640625 389.070625 -211.640625 388.390625 C-212.300625 388.390625 -212.960625 388.390625 -213.640625 388.390625 C-213.640625 387.070625 -213.640625 385.750625 -213.640625 384.390625 C-214.300625 384.390625 -214.960625 384.390625 -215.640625 384.390625 C-215.640625 383.730625 -215.640625 383.070625 -215.640625 382.390625 C-216.300625 382.390625 -216.960625 382.390625 -217.640625 382.390625 C-217.640625 381.070625 -217.640625 379.750625 -217.640625 378.390625 C-218.300625 378.390625 -218.960625 378.390625 -219.640625 378.390625 C-223.640625 371.765625 -223.640625 371.765625 -223.640625 368.390625 C-224.300625 368.390625 -224.960625 368.390625 -225.640625 368.390625 C-232.0309031 353.33268246 -235.35627261 338.65908862 -236.640625 322.390625 C-241.920625 320.410625 -247.200625 318.430625 -252.640625 316.390625 C-252.640625 315.730625 -252.640625 315.070625 -252.640625 314.390625 C-253.23875 314.24625 -253.836875 314.101875 -254.453125 313.953125 C-256.20212904 313.5033811 -257.92739523 312.96170159 -259.640625 312.390625 C-259.640625 311.730625 -259.640625 311.070625 -259.640625 310.390625 C-260.3625 310.143125 -261.084375 309.895625 -261.828125 309.640625 C-264.95935789 308.24896594 -267.182151 306.77885689 -269.640625 304.390625 C-269.640625 303.070625 -269.640625 301.750625 -269.640625 300.390625 C-270.300625 300.390625 -270.960625 300.390625 -271.640625 300.390625 C-271.640625 299.730625 -271.640625 299.070625 -271.640625 298.390625 C-272.300625 298.390625 -272.960625 298.390625 -273.640625 298.390625 C-273.640625 297.730625 -273.640625 297.070625 -273.640625 296.390625 C-274.300625 296.390625 -274.960625 296.390625 -275.640625 296.390625 C-275.640625 295.070625 -275.640625 293.750625 -275.640625 292.390625 C-276.300625 292.390625 -276.960625 292.390625 -277.640625 292.390625 C-277.640625 291.730625 -277.640625 291.070625 -277.640625 290.390625 C-278.300625 290.390625 -278.960625 290.390625 -279.640625 290.390625 C-279.640625 289.070625 -279.640625 287.750625 -279.640625 286.390625 C-280.300625 286.390625 -280.960625 286.390625 -281.640625 286.390625 C-284.97243169 280.91694259 -287.50106723 275.43076116 -289.640625 269.390625 C-290.01703125 268.40320313 -290.3934375 267.41578125 -290.78125 266.3984375 C-297.4989284 245.91424915 -295.35417418 220.95587658 -286.640625 201.390625 C-286.01030705 199.76768037 -285.38474658 198.14287374 -284.765625 196.515625 C-282.80271934 191.55510371 -280.34625247 186.98132079 -277.640625 182.390625 C-276.980625 182.390625 -276.320625 182.390625 -275.640625 182.390625 C-275.640625 181.730625 -275.640625 181.070625 -275.640625 180.390625 C-274.980625 180.390625 -274.320625 180.390625 -273.640625 180.390625 C-273.640625 179.730625 -273.640625 179.070625 -273.640625 178.390625 C-272.980625 178.390625 -272.320625 178.390625 -271.640625 178.390625 C-271.640625 177.730625 -271.640625 177.070625 -271.640625 176.390625 C-270.320625 176.390625 -269.000625 176.390625 -267.640625 176.390625 C-267.640625 175.730625 -267.640625 175.070625 -267.640625 174.390625 C-266.980625 174.390625 -266.320625 174.390625 -265.640625 174.390625 C-265.640625 173.730625 -265.640625 173.070625 -265.640625 172.390625 C-264.980625 172.390625 -264.320625 172.390625 -263.640625 172.390625 C-263.640625 171.730625 -263.640625 171.070625 -263.640625 170.390625 C-262.320625 170.390625 -261.000625 170.390625 -259.640625 170.390625 C-259.640625 169.730625 -259.640625 169.070625 -259.640625 168.390625 C-258.320625 168.390625 -257.000625 168.390625 -255.640625 168.390625 C-255.640625 167.730625 -255.640625 167.070625 -255.640625 166.390625 C-254.320625 166.390625 -253.000625 166.390625 -251.640625 166.390625 C-251.640625 165.730625 -251.640625 165.070625 -251.640625 164.390625 C-251.0115625 164.20886719 -250.3825 164.02710938 -249.734375 163.83984375 C-245.59156486 162.62320523 -241.5202961 161.38504379 -237.515625 159.765625 C-233.5811664 158.22709944 -229.82959876 157.83156961 -225.640625 157.390625 C-225.310625 157.060625 -224.980625 156.730625 -224.640625 156.390625 C-222.06164806 156.06825288 -219.48130679 155.87795196 -216.890625 155.671875 C-214.67397148 155.62861835 -214.67397148 155.62861835 -213.640625 154.390625 C-210.27953215 154.06535795 -206.9172851 153.8770304 -203.546875 153.671875 C-200.75012368 153.7120261 -200.75012368 153.7120261 -199.640625 152.390625 C-198.09123044 152.29216548 -196.53738246 152.26263892 -194.98486328 152.26123047 C-193.49794479 152.25650223 -193.49794479 152.25650223 -191.98098755 152.25167847 C-190.90187103 152.2537027 -189.82275452 152.25572693 -188.7109375 152.2578125 C-187.60966522 152.25685577 -186.50839294 152.25589905 -185.37374878 152.25491333 C-183.03839053 152.25423122 -180.70303041 152.25608764 -178.36767578 152.26025391 C-174.78804259 152.26559157 -171.20853546 152.26031517 -167.62890625 152.25390625 C-165.36458306 152.25456723 -163.10025994 152.25584879 -160.8359375 152.2578125 C-159.76086945 152.25578827 -158.68580139 152.25376404 -157.57815552 152.25167847 C-156.08178055 152.25640671 -156.08178055 152.25640671 -154.55517578 152.26123047 C-153.67660919 152.26202606 -152.7980426 152.26282166 -151.89285278 152.26364136 C-149.640625 152.390625 -149.640625 152.390625 -146.640625 153.390625 C-143.28783328 153.6981422 -139.93443203 153.8995958 -136.57421875 154.109375 C-133.640625 154.390625 -133.640625 154.390625 -131.640625 155.390625 C-130.29055106 155.57044457 -128.93506396 155.71085867 -127.578125 155.828125 C-114.90957807 157.12167193 -114.90957807 157.12167193 -112.640625 159.390625 C-111.609375 159.514375 -110.578125 159.638125 -109.515625 159.765625 C-105.43765017 160.42336288 -102.40007585 161.70535393 -98.640625 163.390625 C-95.65793638 164.4453037 -92.65390559 165.42719515 -89.640625 166.390625 C-90.300625 165.400625 -90.960625 164.410625 -91.640625 163.390625 C-98.61278598 145.26795124 -94.19644656 119.16043419 -87.078125 101.515625 C-86.28909752 99.79632437 -85.47990165 98.08596383 -84.640625 96.390625 C-84.31578125 95.71257812 -83.9909375 95.03453125 -83.65625 94.3359375 C-83.00806667 93.00899615 -82.32993045 91.69667744 -81.640625 90.390625 C-80.980625 90.390625 -80.320625 90.390625 -79.640625 90.390625 C-79.640625 89.730625 -79.640625 89.070625 -79.640625 88.390625 C-78.980625 88.390625 -78.320625 88.390625 -77.640625 88.390625 C-77.640625 87.730625 -77.640625 87.070625 -77.640625 86.390625 C-76.980625 86.390625 -76.320625 86.390625 -75.640625 86.390625 C-75.640625 85.730625 -75.640625 85.070625 -75.640625 84.390625 C-74.980625 84.390625 -74.320625 84.390625 -73.640625 84.390625 C-73.640625 83.730625 -73.640625 83.070625 -73.640625 82.390625 C-72.980625 82.390625 -72.320625 82.390625 -71.640625 82.390625 C-71.640625 81.730625 -71.640625 81.070625 -71.640625 80.390625 C-70.980625 80.390625 -70.320625 80.390625 -69.640625 80.390625 C-69.640625 79.070625 -69.640625 77.750625 -69.640625 76.390625 C-70.18203125 76.28492188 -70.7234375 76.17921875 -71.28125 76.0703125 C-74.20633888 75.22765445 -76.69107182 73.92135088 -79.390625 72.515625 C-87.14879613 68.21664223 -87.14879613 68.21664223 -95.640625 66.390625 C-96.630625 67.050625 -97.620625 67.710625 -98.640625 68.390625 C-101.015625 68.65625 -101.015625 68.65625 -103.640625 68.640625 C-104.506875 68.64578125 -105.373125 68.6509375 -106.265625 68.65625 C-108.640625 68.390625 -108.640625 68.390625 -111.640625 66.390625 C-111.640625 65.730625 -111.640625 65.070625 -111.640625 64.390625 C-112.300625 64.390625 -112.960625 64.390625 -113.640625 64.390625 C-113.640625 63.070625 -113.640625 61.750625 -113.640625 60.390625 C-114.300625 60.390625 -114.960625 60.390625 -115.640625 60.390625 C-115.640625 59.730625 -115.640625 59.070625 -115.640625 58.390625 C-116.300625 58.390625 -116.960625 58.390625 -117.640625 58.390625 C-119.93311309 53.5190878 -120.42662843 49.65038485 -118.640625 44.515625 C-118.310625 43.814375 -117.980625 43.113125 -117.640625 42.390625 C-116.980625 42.390625 -116.320625 42.390625 -115.640625 42.390625 C-115.640625 41.730625 -115.640625 41.070625 -115.640625 40.390625 C-114.980625 40.390625 -114.320625 40.390625 -113.640625 40.390625 C-113.640625 39.730625 -113.640625 39.070625 -113.640625 38.390625 C-112.980625 38.390625 -112.320625 38.390625 -111.640625 38.390625 C-111.640625 37.730625 -111.640625 37.070625 -111.640625 36.390625 C-110.320625 36.390625 -109.000625 36.390625 -107.640625 36.390625 C-107.640625 35.730625 -107.640625 35.070625 -107.640625 34.390625 C-104.21968258 32.10999672 -102.95875278 32.17137493 -98.953125 32.265625 C-97.46232422 32.29269531 -97.46232422 32.29269531 -95.94140625 32.3203125 C-95.18214844 32.34351563 -94.42289063 32.36671875 -93.640625 32.390625 C-93.640625 33.050625 -93.640625 33.710625 -93.640625 34.390625 C-92.980625 34.390625 -92.320625 34.390625 -91.640625 34.390625 C-91.640625 35.050625 -91.640625 35.710625 -91.640625 36.390625 C-90.980625 36.390625 -90.320625 36.390625 -89.640625 36.390625 C-89.640625 37.050625 -89.640625 37.710625 -89.640625 38.390625 C-88.980625 38.390625 -88.320625 38.390625 -87.640625 38.390625 C-87.640625 39.710625 -87.640625 41.030625 -87.640625 42.390625 C-86.980625 42.390625 -86.320625 42.390625 -85.640625 42.390625 C-85.310625 43.710625 -84.980625 45.030625 -84.640625 46.390625 C-84.07150391 46.51445557 -83.50238281 46.63828613 -82.91601562 46.76586914 C-80.52671902 47.42190026 -78.46788405 48.31677573 -76.234375 49.38671875 C-75.40808594 49.78052734 -74.58179688 50.17433594 -73.73046875 50.58007812 C-72.87582031 50.99193359 -72.02117187 51.40378906 -71.140625 51.828125 C-70.28597656 52.23611328 -69.43132812 52.64410156 -68.55078125 53.06445312 C-64.89887077 54.81064745 -61.25735775 56.57253072 -57.640625 58.390625 C-57.640625 59.050625 -57.640625 59.710625 -57.640625 60.390625 C-56.320625 60.390625 -55.000625 60.390625 -53.640625 60.390625 C-53.640625 61.050625 -53.640625 61.710625 -53.640625 62.390625 C-53.0425 62.514375 -52.444375 62.638125 -51.828125 62.765625 C-49.640625 63.390625 -49.640625 63.390625 -46.640625 65.390625 C-46.310625 65.060625 -45.980625 64.730625 -45.640625 64.390625 C-44.20868579 64.18149797 -42.76921446 64.02270521 -41.328125 63.890625 C-38.33473354 63.61355075 -35.54154082 63.18721516 -32.640625 62.390625 C-32.640625 61.730625 -32.640625 61.070625 -32.640625 60.390625 C-30.990625 60.390625 -29.340625 60.390625 -27.640625 60.390625 C-27.5375 59.730625 -27.434375 59.070625 -27.328125 58.390625 C-25.6209705 50.94122353 -22.22925225 44.38958196 -18.640625 37.703125 C-18.20234375 36.87490234 -17.7640625 36.04667969 -17.3125 35.19335938 C-16.67054688 33.98583008 -16.67054688 33.98583008 -16.015625 32.75390625 C-15.60642822 31.98312744 -15.19723145 31.21234863 -14.77563477 30.41821289 C-13.640625 28.390625 -13.640625 28.390625 -11.85546875 25.90625 C-9.65141384 21.34222633 -10.20495357 16.24001119 -10.20117188 11.25195312 C-10.17313477 10.01928711 -10.17313477 10.01928711 -10.14453125 8.76171875 C-10.14267822 8.01849365 -10.1408252 7.27526855 -10.13891602 6.50952148 C-8.85154749 1.03520919 -5.13143959 -0.10917957 0 0 Z M208.359375 36.390625 C208.359375 37.050625 208.359375 37.710625 208.359375 38.390625 C207.328125 38.349375 206.296875 38.308125 205.234375 38.265625 C201.49107873 38.38637649 198.82202953 39.03934518 195.359375 40.390625 C195.359375 41.050625 195.359375 41.710625 195.359375 42.390625 C194.66714844 42.32746094 193.97492188 42.26429688 193.26171875 42.19921875 C189.54431044 42.44437758 187.21545106 43.72066591 183.921875 45.453125 C182.6708591 46.10471642 181.41954884 46.75574294 180.16796875 47.40625 C179.53358887 47.73947266 178.89920898 48.07269531 178.24560547 48.41601562 C175.35629904 49.90891121 172.41490505 51.293248 169.484375 52.703125 C162.06537079 56.40425351 155.07797347 60.72936269 148.12890625 65.24365234 C146.94599109 66.01039288 145.75574188 66.7659316 144.55859375 67.51025391 C143.12452382 68.41830228 141.73641593 69.3982205 140.359375 70.390625 C140.359375 71.050625 140.359375 71.710625 140.359375 72.390625 C139.2146875 72.82375 139.2146875 72.82375 138.046875 73.265625 C135.20908192 74.35331513 135.20908192 74.35331513 132.359375 76.390625 C132.359375 77.050625 132.359375 77.710625 132.359375 78.390625 C131.78703125 78.65875 131.2146875 78.926875 130.625 79.203125 C128.28052866 80.43195136 126.23532562 81.81584676 124.109375 83.390625 C123.40296875 83.90625 122.6965625 84.421875 121.96875 84.953125 C121.43765625 85.4275 120.9065625 85.901875 120.359375 86.390625 C120.359375 87.050625 120.359375 87.710625 120.359375 88.390625 C119.699375 88.390625 119.039375 88.390625 118.359375 88.390625 C118.359375 89.050625 118.359375 89.710625 118.359375 90.390625 C117.699375 90.390625 117.039375 90.390625 116.359375 90.390625 C116.359375 91.050625 116.359375 91.710625 116.359375 92.390625 C115.78703125 92.638125 115.2146875 92.885625 114.625 93.140625 C112.00926889 94.58378699 110.21164044 96.27278722 108.109375 98.390625 C107.40296875 99.091875 106.6965625 99.793125 105.96875 100.515625 C104.14227101 102.23173268 104.14227101 102.23173268 104.359375 104.390625 C103.699375 104.390625 103.039375 104.390625 102.359375 104.390625 C102.359375 105.050625 102.359375 105.710625 102.359375 106.390625 C101.699375 106.390625 101.039375 106.390625 100.359375 106.390625 C98.31481441 108.56327155 98.31481441 108.56327155 96.234375 111.265625 C95.50992187 112.17054688 94.78546875 113.07546875 94.0390625 114.0078125 C92.16732266 116.17718311 92.16732266 116.17718311 92.359375 118.390625 C91.699375 118.390625 91.039375 118.390625 90.359375 118.390625 C87.39701805 122.02386189 87.39701805 122.02386189 86.359375 126.390625 C85.699375 126.390625 85.039375 126.390625 84.359375 126.390625 C82.70444952 128.8277967 82.70444952 128.8277967 81.046875 131.890625 C79.08976779 135.35784581 77.14402645 138.77513119 74.921875 142.078125 C72.47043866 145.95890044 70.55061159 150.05192303 68.609375 154.203125 C68.27260742 154.92274414 67.93583984 155.64236328 67.58886719 156.38378906 C65.69511119 160.45598333 63.84356304 164.54455465 62.01953125 168.6484375 C61.23699559 170.37500744 60.45444386 172.10157011 59.671875 173.828125 C59.31577148 174.65094971 58.95966797 175.47377441 58.59277344 176.3215332 C55.97659571 182.04849843 55.97659571 182.04849843 52.58984375 183.92578125 C51.85378906 184.07917969 51.11773438 184.23257813 50.359375 184.390625 C50.359375 185.050625 50.359375 185.710625 50.359375 186.390625 C49.699375 186.390625 49.039375 186.390625 48.359375 186.390625 C48.359375 187.050625 48.359375 187.710625 48.359375 188.390625 C47.369375 188.390625 46.379375 188.390625 45.359375 188.390625 C45.359375 189.050625 45.359375 189.710625 45.359375 190.390625 C43.25458896 190.27652818 41.15052923 190.14897139 39.046875 190.015625 C37.87511719 189.94601562 36.70335937 189.87640625 35.49609375 189.8046875 C32.359375 189.390625 32.359375 189.390625 29.359375 187.390625 C29.029375 186.400625 28.699375 185.410625 28.359375 184.390625 C27.699375 184.390625 27.039375 184.390625 26.359375 184.390625 C26.359375 181.090625 26.359375 177.790625 26.359375 174.390625 C27.019375 174.390625 27.679375 174.390625 28.359375 174.390625 C28.359375 173.730625 28.359375 173.070625 28.359375 172.390625 C29.679375 172.390625 30.999375 172.390625 32.359375 172.390625 C32.359375 171.730625 32.359375 171.070625 32.359375 170.390625 C33.349375 170.390625 34.339375 170.390625 35.359375 170.390625 C35.359375 169.730625 35.359375 169.070625 35.359375 168.390625 C36.679375 168.390625 37.999375 168.390625 39.359375 168.390625 C40.019375 166.410625 40.679375 164.430625 41.359375 162.390625 C40.369375 162.390625 39.379375 162.390625 38.359375 162.390625 C38.359375 163.050625 38.359375 163.710625 38.359375 164.390625 C37.039375 164.390625 35.719375 164.390625 34.359375 164.390625 C34.359375 165.050625 34.359375 165.710625 34.359375 166.390625 C33.81410156 166.50019531 33.26882813 166.60976563 32.70703125 166.72265625 C27.83369104 167.74730727 23.17592996 169.04303856 18.47265625 170.67578125 C16.64394694 171.29436499 14.78434989 171.8201773 12.921875 172.328125 C9.9408219 173.21721101 7.22030081 174.25352111 4.359375 175.453125 C0.33141891 177.11061979 -3.31427352 177.81922009 -7.640625 178.390625 C-9.98632585 179.36125983 -12.32083119 180.35960553 -14.640625 181.390625 C-17.578125 182.078125 -17.578125 182.078125 -19.640625 182.390625 C-19.640625 183.050625 -19.640625 183.710625 -19.640625 184.390625 C-21.290625 184.390625 -22.940625 184.390625 -24.640625 184.390625 C-24.640625 185.050625 -24.640625 185.710625 -24.640625 186.390625 C-25.445 186.37 -26.249375 186.349375 -27.078125 186.328125 C-29.57417385 186.09428879 -29.57417385 186.09428879 -30.640625 187.390625 C-32.82355274 187.62544193 -35.01265674 187.80425823 -37.203125 187.953125 C-38.40066406 188.03691406 -39.59820312 188.12070312 -40.83203125 188.20703125 C-41.75886719 188.26761719 -42.68570313 188.32820312 -43.640625 188.390625 C-43.640625 189.050625 -43.640625 189.710625 -43.640625 190.390625 C-40.57905846 192.16731723 -38.40026285 192.63113318 -34.875 192.5859375 C-33.98554688 192.57949219 -33.09609375 192.57304687 -32.1796875 192.56640625 C-31.25929688 192.54964844 -30.33890625 192.53289062 -29.390625 192.515625 C-28.45476562 192.50660156 -27.51890625 192.49757813 -26.5546875 192.48828125 C-24.24973843 192.46476136 -21.9453134 192.43189353 -19.640625 192.390625 C-19.3793028 206.28969928 -19.3793028 206.28969928 -21.92578125 210.53125 C-28.09474345 215.03255868 -37.31616072 214.29284696 -44.640625 214.390625 C-44.640625 213.730625 -44.640625 213.070625 -44.640625 212.390625 C-45.960625 212.390625 -47.280625 212.390625 -48.640625 212.390625 C-48.640625 211.730625 -48.640625 211.070625 -48.640625 210.390625 C-49.30449219 210.06449219 -49.96835937 209.73835937 -50.65234375 209.40234375 C-58.16249682 205.68564026 -58.16249682 205.68564026 -61.578125 203.578125 C-63.67728138 202.14114278 -63.67728138 202.14114278 -66.640625 202.390625 C-66.640625 201.730625 -66.640625 201.070625 -66.640625 200.390625 C-69.21921467 199.04735969 -71.80279921 197.71587835 -74.390625 196.390625 C-75.48503906 195.81828125 -75.48503906 195.81828125 -76.6015625 195.234375 C-77.66503906 194.69296875 -77.66503906 194.69296875 -78.75 194.140625 C-79.39936523 193.80546875 -80.04873047 193.4703125 -80.71777344 193.125 C-82.92036351 192.15276875 -82.92036351 192.15276875 -86.640625 192.390625 C-86.640625 191.730625 -86.640625 191.070625 -86.640625 190.390625 C-87.630625 190.06449219 -88.620625 189.73835937 -89.640625 189.40234375 C-90.97402688 188.9611446 -92.30735533 188.5197235 -93.640625 188.078125 C-94.33542969 187.84883301 -95.03023437 187.61954102 -95.74609375 187.38330078 C-99.09181914 186.27145911 -102.38561049 185.12430293 -105.640625 183.765625 C-110.51125172 181.88499256 -115.66894005 181.10793953 -120.78125 180.14453125 C-124.24632396 179.46764939 -127.65188981 178.67616082 -131.078125 177.828125 C-145.09044911 174.60048501 -158.87643806 174.06790878 -173.19482422 174.12988281 C-176.1366028 174.14061033 -179.07777096 174.12992027 -182.01953125 174.1171875 C-199.76353384 173.36680431 -199.76353384 173.36680431 -216.640625 177.390625 C-217.99069894 177.57044457 -219.34618604 177.71085867 -220.703125 177.828125 C-227.77139281 178.5644029 -234.24021805 180.11156385 -240.84375 182.7265625 C-243.07166359 183.54992187 -245.29691515 184.02442034 -247.640625 184.390625 C-247.640625 185.050625 -247.640625 185.710625 -247.640625 186.390625 C-248.7853125 186.6071875 -248.7853125 186.6071875 -249.953125 186.828125 C-252.72235408 187.3538844 -252.72235408 187.3538844 -255.640625 188.390625 C-255.640625 189.050625 -255.640625 189.710625 -255.640625 190.390625 C-256.300625 190.390625 -256.960625 190.390625 -257.640625 190.390625 C-258.300625 192.370625 -258.960625 194.350625 -259.640625 196.390625 C-260.300625 196.390625 -260.960625 196.390625 -261.640625 196.390625 C-261.98996094 197.38964844 -262.33929688 198.38867188 -262.69921875 199.41796875 C-263.15870419 200.72140705 -263.61834779 202.0247896 -264.078125 203.328125 C-264.42327148 204.3171582 -264.42327148 204.3171582 -264.77539062 205.32617188 C-266.52734375 210.27734375 -266.52734375 210.27734375 -267.640625 211.390625 C-267.805625 212.545625 -267.970625 213.700625 -268.140625 214.890625 C-268.640625 218.390625 -268.640625 218.390625 -269.640625 219.390625 C-272.04293036 227.44972145 -271.90993266 235.62166087 -271.828125 243.953125 C-271.82748047 245.23509766 -271.82683594 246.51707031 -271.82617188 247.83789062 C-272.35138174 253.48625327 -272.35138174 253.48625327 -270.640625 258.390625 C-270.558125 259.339375 -270.475625 260.288125 -270.390625 261.265625 C-269.23471751 270.09748067 -263.63595967 278.55296847 -259.640625 286.390625 C-258.980625 286.390625 -258.320625 286.390625 -257.640625 286.390625 C-257.640625 287.050625 -257.640625 287.710625 -257.640625 288.390625 C-255.660625 289.050625 -253.680625 289.710625 -251.640625 290.390625 C-251.640625 291.050625 -251.640625 291.710625 -251.640625 292.390625 C-246.5011658 295.15070494 -241.6237965 297.10015155 -236.01171875 298.671875 C-233.640625 299.390625 -233.640625 299.390625 -230.140625 300.953125 C-222.49113128 304.09488135 -214.74104077 304.6894935 -206.546875 304.62109375 C-205.63353394 304.62063553 -204.72019287 304.62017731 -203.7791748 304.6197052 C-201.8700224 304.61670975 -199.96087184 304.60890601 -198.05175781 304.59643555 C-195.12035565 304.57799751 -192.18926703 304.57592751 -189.2578125 304.57617188 C-187.39583059 304.57126234 -185.53385081 304.56543651 -183.671875 304.55859375 C-182.79486938 304.55748093 -181.91786377 304.5563681 -181.01428223 304.55522156 C-176.69121018 304.64989882 -176.69121018 304.64989882 -172.640625 303.390625 C-169.78854722 303.07806853 -166.93565646 302.88025018 -164.07421875 302.671875 C-161.69519195 302.65227578 -161.69519195 302.65227578 -160.640625 301.390625 C-159.58875 301.24625 -158.536875 301.101875 -157.453125 300.953125 C-153.95896163 300.4375927 -150.94678351 299.60019519 -147.640625 298.390625 C-147.640625 297.730625 -147.640625 297.070625 -147.640625 296.390625 C-146.320625 296.390625 -145.000625 296.390625 -143.640625 296.390625 C-143.640625 295.730625 -143.640625 295.070625 -143.640625 294.390625 C-142.320625 294.390625 -141.000625 294.390625 -139.640625 294.390625 C-139.640625 293.730625 -139.640625 293.070625 -139.640625 292.390625 C-138.7125 292.1740625 -138.7125 292.1740625 -137.765625 291.953125 C-135.60804178 291.45910275 -135.60804178 291.45910275 -133.640625 290.390625 C-133.640625 289.730625 -133.640625 289.070625 -133.640625 288.390625 C-132.320625 288.390625 -131.000625 288.390625 -129.640625 288.390625 C-129.640625 287.730625 -129.640625 287.070625 -129.640625 286.390625 C-128.980625 286.390625 -128.320625 286.390625 -127.640625 286.390625 C-127.640625 285.730625 -127.640625 285.070625 -127.640625 284.390625 C-126.320625 284.390625 -125.000625 284.390625 -123.640625 284.390625 C-123.640625 283.730625 -123.640625 283.070625 -123.640625 282.390625 C-122.980625 282.390625 -122.320625 282.390625 -121.640625 282.390625 C-121.640625 281.730625 -121.640625 281.070625 -121.640625 280.390625 C-120.320625 280.390625 -119.000625 280.390625 -117.640625 280.390625 C-117.640625 279.730625 -117.640625 279.070625 -117.640625 278.390625 C-116.980625 278.390625 -116.320625 278.390625 -115.640625 278.390625 C-115.640625 277.730625 -115.640625 277.070625 -115.640625 276.390625 C-114.980625 276.390625 -114.320625 276.390625 -113.640625 276.390625 C-113.640625 275.730625 -113.640625 275.070625 -113.640625 274.390625 C-112.320625 274.390625 -111.000625 274.390625 -109.640625 274.390625 C-109.640625 273.730625 -109.640625 273.070625 -109.640625 272.390625 C-108.980625 272.390625 -108.320625 272.390625 -107.640625 272.390625 C-107.640625 271.730625 -107.640625 271.070625 -107.640625 270.390625 C-106.980625 270.390625 -106.320625 270.390625 -105.640625 270.390625 C-105.640625 269.730625 -105.640625 269.070625 -105.640625 268.390625 C-104.320625 268.390625 -103.000625 268.390625 -101.640625 268.390625 C-101.640625 267.730625 -101.640625 267.070625 -101.640625 266.390625 C-100.980625 266.390625 -100.320625 266.390625 -99.640625 266.390625 C-99.640625 265.730625 -99.640625 265.070625 -99.640625 264.390625 C-98.980625 264.390625 -98.320625 264.390625 -97.640625 264.390625 C-97.640625 263.730625 -97.640625 263.070625 -97.640625 262.390625 C-96.320625 262.390625 -95.000625 262.390625 -93.640625 262.390625 C-93.640625 261.730625 -93.640625 261.070625 -93.640625 260.390625 C-92.980625 260.390625 -92.320625 260.390625 -91.640625 260.390625 C-91.640625 259.730625 -91.640625 259.070625 -91.640625 258.390625 C-90.980625 258.390625 -90.320625 258.390625 -89.640625 258.390625 C-89.640625 257.730625 -89.640625 257.070625 -89.640625 256.390625 C-88.7125 256.1740625 -88.7125 256.1740625 -87.765625 255.953125 C-85.60804178 255.45910275 -85.60804178 255.45910275 -83.640625 254.390625 C-83.640625 253.730625 -83.640625 253.070625 -83.640625 252.390625 C-82.980625 252.390625 -82.320625 252.390625 -81.640625 252.390625 C-81.640625 251.730625 -81.640625 251.070625 -81.640625 250.390625 C-80.980625 250.390625 -80.320625 250.390625 -79.640625 250.390625 C-79.640625 249.730625 -79.640625 249.070625 -79.640625 248.390625 C-78.320625 248.390625 -77.000625 248.390625 -75.640625 248.390625 C-75.640625 247.730625 -75.640625 247.070625 -75.640625 246.390625 C-74.980625 246.390625 -74.320625 246.390625 -73.640625 246.390625 C-73.640625 245.730625 -73.640625 245.070625 -73.640625 244.390625 C-72.980625 244.390625 -72.320625 244.390625 -71.640625 244.390625 C-71.640625 243.730625 -71.640625 243.070625 -71.640625 242.390625 C-70.320625 242.390625 -69.000625 242.390625 -67.640625 242.390625 C-67.640625 241.730625 -67.640625 241.070625 -67.640625 240.390625 C-66.980625 240.390625 -66.320625 240.390625 -65.640625 240.390625 C-65.640625 239.730625 -65.640625 239.070625 -65.640625 238.390625 C-64.980625 238.390625 -64.320625 238.390625 -63.640625 238.390625 C-63.640625 237.730625 -63.640625 237.070625 -63.640625 236.390625 C-62.320625 236.390625 -61.000625 236.390625 -59.640625 236.390625 C-59.640625 235.730625 -59.640625 235.070625 -59.640625 234.390625 C-58.980625 234.390625 -58.320625 234.390625 -57.640625 234.390625 C-57.640625 233.730625 -57.640625 233.070625 -57.640625 232.390625 C-56.980625 232.390625 -56.320625 232.390625 -55.640625 232.390625 C-55.640625 231.730625 -55.640625 231.070625 -55.640625 230.390625 C-54.320625 230.390625 -53.000625 230.390625 -51.640625 230.390625 C-51.640625 229.730625 -51.640625 229.070625 -51.640625 228.390625 C-50.980625 228.390625 -50.320625 228.390625 -49.640625 228.390625 C-49.640625 227.730625 -49.640625 227.070625 -49.640625 226.390625 C-48.980625 226.390625 -48.320625 226.390625 -47.640625 226.390625 C-47.640625 225.730625 -47.640625 225.070625 -47.640625 224.390625 C-45.20275115 224.5315599 -42.76544647 224.67817042 -40.328125 224.828125 C-39.63783203 224.86744141 -38.94753906 224.90675781 -38.23632812 224.94726562 C-35.16900965 225.13989915 -32.57094348 225.41385217 -29.640625 226.390625 C-28.60930765 228.99925124 -28.21005051 231.63110135 -27.640625 234.390625 C-22.360625 234.390625 -17.080625 234.390625 -11.640625 234.390625 C-11.640625 233.730625 -11.640625 233.070625 -11.640625 232.390625 C-10.93035156 232.40222656 -10.22007812 232.41382813 -9.48828125 232.42578125 C-8.56917969 232.43480469 -7.65007812 232.44382812 -6.703125 232.453125 C-5.32833984 232.47052734 -5.32833984 232.47052734 -3.92578125 232.48828125 C-1.67469173 232.65011549 -1.67469173 232.65011549 -0.640625 231.390625 C2.01400621 230.93602642 4.68126638 230.68819262 7.359375 230.390625 C7.359375 229.730625 7.359375 229.070625 7.359375 228.390625 C9.999375 228.390625 12.639375 228.390625 15.359375 228.390625 C15.359375 227.730625 15.359375 227.070625 15.359375 226.390625 C17.009375 226.390625 18.659375 226.390625 20.359375 226.390625 C20.359375 225.730625 20.359375 225.070625 20.359375 224.390625 C22.009375 224.390625 23.659375 224.390625 25.359375 224.390625 C25.359375 223.730625 25.359375 223.070625 25.359375 222.390625 C27.009375 222.390625 28.659375 222.390625 30.359375 222.390625 C30.359375 221.730625 30.359375 221.070625 30.359375 220.390625 C31.679375 220.390625 32.999375 220.390625 34.359375 220.390625 C34.359375 219.730625 34.359375 219.070625 34.359375 218.390625 C35.679375 218.390625 36.999375 218.390625 38.359375 218.390625 C38.359375 217.730625 38.359375 217.070625 38.359375 216.390625 C39.679375 216.390625 40.999375 216.390625 42.359375 216.390625 C42.359375 215.730625 42.359375 215.070625 42.359375 214.390625 C43.679375 214.390625 44.999375 214.390625 46.359375 214.390625 C46.359375 213.730625 46.359375 213.070625 46.359375 212.390625 C47.679375 212.390625 48.999375 212.390625 50.359375 212.390625 C50.359375 211.730625 50.359375 211.070625 50.359375 210.390625 C51.019375 210.390625 51.679375 210.390625 52.359375 210.390625 C52.359375 209.730625 52.359375 209.070625 52.359375 208.390625 C53.679375 208.390625 54.999375 208.390625 56.359375 208.390625 C56.359375 207.730625 56.359375 207.070625 56.359375 206.390625 C55.699375 206.390625 55.039375 206.390625 54.359375 206.390625 C53.234375 199.765625 53.234375 199.765625 54.359375 196.390625 C55.019375 196.390625 55.679375 196.390625 56.359375 196.390625 C56.359375 195.730625 56.359375 195.070625 56.359375 194.390625 C57.019375 194.390625 57.679375 194.390625 58.359375 194.390625 C58.359375 193.730625 58.359375 193.070625 58.359375 192.390625 C59.679375 191.730625 60.999375 191.070625 62.359375 190.390625 C62.359375 189.730625 62.359375 189.070625 62.359375 188.390625 C69.619375 188.390625 76.879375 188.390625 84.359375 188.390625 C84.359375 189.050625 84.359375 189.710625 84.359375 190.390625 C116.369375 190.390625 148.379375 190.390625 181.359375 190.390625 C181.359375 189.730625 181.359375 189.070625 181.359375 188.390625 C184.659375 188.390625 187.959375 188.390625 191.359375 188.390625 C191.359375 187.730625 191.359375 187.070625 191.359375 186.390625 C193.339375 186.390625 195.319375 186.390625 197.359375 186.390625 C197.359375 185.730625 197.359375 185.070625 197.359375 184.390625 C199.009375 184.390625 200.659375 184.390625 202.359375 184.390625 C202.359375 183.730625 202.359375 183.070625 202.359375 182.390625 C203.09542969 182.26558594 203.83148437 182.14054688 204.58984375 182.01171875 C215.96240091 179.46131453 226.76300677 170.78820382 236.359375 164.390625 C236.359375 163.730625 236.359375 163.070625 236.359375 162.390625 C238.009375 161.730625 239.659375 161.070625 241.359375 160.390625 C241.359375 159.730625 241.359375 159.070625 241.359375 158.390625 C241.92011719 158.1534375 242.48085938 157.91625 243.05859375 157.671875 C251.12895709 153.17768285 257.78160948 144.27287027 262.359375 136.390625 C262.359375 135.730625 262.359375 135.070625 262.359375 134.390625 C263.019375 134.390625 263.679375 134.390625 264.359375 134.390625 C265.32127497 132.66343984 266.27874008 130.93378442 267.234375 129.203125 C268.03488281 127.75873047 268.03488281 127.75873047 268.8515625 126.28515625 C271.91481634 120.40466118 272.65194194 116.19901423 272.546875 109.640625 C272.54623047 108.86074219 272.54558594 108.08085937 272.54492188 107.27734375 C272.86647699 103.52907603 272.86647699 103.52907603 271.359375 100.390625 C271.2046875 98.9365625 271.2046875 98.9365625 271.046875 97.453125 C269.82450571 88.35943832 264.83165766 80.23202727 260.359375 72.390625 C259.699375 72.390625 259.039375 72.390625 258.359375 72.390625 C258.111875 71.66875 257.864375 70.946875 257.609375 70.203125 C256.23667908 67.11455918 254.63584204 64.88051082 252.359375 62.390625 C251.699375 62.390625 251.039375 62.390625 250.359375 62.390625 C250.359375 61.730625 250.359375 61.070625 250.359375 60.390625 C249.699375 60.390625 249.039375 60.390625 248.359375 60.390625 C248.359375 59.730625 248.359375 59.070625 248.359375 58.390625 C246.87511267 56.80870682 246.87511267 56.80870682 244.984375 55.265625 C244.35789062 54.72679687 243.73140625 54.18796875 243.0859375 53.6328125 C241.44329072 52.19595353 241.44329072 52.19595353 239.359375 52.390625 C239.359375 51.730625 239.359375 51.070625 239.359375 50.390625 C235.72613811 47.42826805 235.72613811 47.42826805 231.359375 46.390625 C231.359375 45.730625 231.359375 45.070625 231.359375 44.390625 C229.63218984 43.42872503 227.90253442 42.47125992 226.171875 41.515625 C225.20894531 40.98195313 224.24601562 40.44828125 223.25390625 39.8984375 C217.9659819 37.14386422 214.38351881 36.15438407 208.359375 36.390625 Z M259.359375 172.390625 C259.359375 173.050625 259.359375 173.710625 259.359375 174.390625 C256.884375 175.380625 256.884375 175.380625 254.359375 176.390625 C254.359375 177.050625 254.359375 177.710625 254.359375 178.390625 C253.62976563 178.64714844 252.90015625 178.90367187 252.1484375 179.16796875 C249.23560879 180.44488105 247.18295729 181.93788287 244.734375 183.953125 C242.16088856 186.06549186 240.54282421 187.32947526 237.359375 188.390625 C237.359375 189.050625 237.359375 189.710625 237.359375 190.390625 C236.84632813 190.47570312 236.33328125 190.56078125 235.8046875 190.6484375 C232.35252369 191.69621885 229.36274239 193.5069243 226.234375 195.265625 C220.43954896 198.45380389 214.85000962 200.92450518 208.359375 202.390625 C208.359375 203.050625 208.359375 203.710625 208.359375 204.390625 C207.39 204.37 206.420625 204.349375 205.421875 204.328125 C202.48471605 204.03444001 202.48471605 204.03444001 201.359375 205.390625 C197.99828215 205.71589205 194.6360351 205.9042196 191.265625 206.109375 C188.46887368 206.0692239 188.46887368 206.0692239 187.359375 207.390625 C184.52976782 207.51585579 181.72338163 207.57671728 178.89233398 207.59594727 C177.56075256 207.61079666 177.56075256 207.61079666 176.20227051 207.62594604 C173.25336418 207.65765984 170.30444171 207.68235734 167.35546875 207.70703125 C165.3166511 207.72759226 163.27783779 207.74858849 161.23902893 207.77000427 C155.86157745 207.8253131 150.48408694 207.87468338 145.10656738 207.92285156 C139.62374379 207.97300242 134.14097716 208.02872189 128.65820312 208.08398438 C117.8919757 208.19167365 107.1256989 208.29309454 96.359375 208.390625 C96.689375 209.050625 97.019375 209.710625 97.359375 210.390625 C98.349375 210.390625 99.339375 210.390625 100.359375 210.390625 C100.359375 211.050625 100.359375 211.710625 100.359375 212.390625 C103.00676416 213.8512535 104.25385834 214.390625 107.359375 214.390625 C107.359375 215.050625 107.359375 215.710625 107.359375 216.390625 C108.349375 216.390625 109.339375 216.390625 110.359375 216.390625 C110.359375 217.050625 110.359375 217.710625 110.359375 218.390625 C111.4525 219.050625 112.545625 219.710625 113.671875 220.390625 C114.28675781 220.761875 114.90164063 221.133125 115.53515625 221.515625 C117.47299426 222.60686499 117.47299426 222.60686499 120.359375 222.390625 C120.359375 223.050625 120.359375 223.710625 120.359375 224.390625 C123.17447493 226.6679751 123.17447493 226.6679751 126.359375 226.390625 C126.359375 227.050625 126.359375 227.710625 126.359375 228.390625 C133.82852948 232.63321459 140.96012898 236.37849793 149.359375 238.390625 C149.359375 239.050625 149.359375 239.710625 149.359375 240.390625 C149.90352051 240.64755127 150.44766602 240.90447754 151.00830078 241.16918945 C153.50065454 242.34647286 155.99251787 243.5247908 158.484375 244.703125 C159.3403125 245.10724609 160.19625 245.51136719 161.078125 245.92773438 C161.91601562 246.32412109 162.75390625 246.72050781 163.6171875 247.12890625 C164.84332764 247.70862183 164.84332764 247.70862183 166.09423828 248.30004883 C168.01186693 249.22331323 169.90719543 250.19267741 171.796875 251.171875 C174.55794858 252.48506853 176.34105373 252.65694747 179.359375 252.390625 C179.359375 253.050625 179.359375 253.710625 179.359375 254.390625 C183.17241392 255.58219966 186.76036959 256.50838071 190.734375 256.953125 C194.359375 257.390625 194.359375 257.390625 195.359375 258.390625 C197.52233773 258.59994397 199.6903221 258.75859569 201.859375 258.890625 C208.24826389 259.27951389 208.24826389 259.27951389 209.359375 260.390625 C211.69097555 260.48971802 214.02567442 260.52033004 216.359375 260.515625 C217.638125 260.51820313 218.916875 260.52078125 220.234375 260.5234375 C223.22624744 260.74923393 223.22624744 260.74923393 224.359375 259.390625 C225.89676748 259.20507763 227.44005083 259.06743298 228.984375 258.953125 C233.35629304 258.56367253 237.19389479 257.74893376 241.359375 256.390625 C241.359375 255.730625 241.359375 255.070625 241.359375 254.390625 C242.04 254.2875 242.720625 254.184375 243.421875 254.078125 C246.98853489 253.24337481 250.02159694 251.89589746 253.359375 250.390625 C253.359375 249.730625 253.359375 249.070625 253.359375 248.390625 C254.349375 248.390625 255.339375 248.390625 256.359375 248.390625 C256.359375 247.730625 256.359375 247.070625 256.359375 246.390625 C257.349375 246.390625 258.339375 246.390625 259.359375 246.390625 C259.359375 245.730625 259.359375 245.070625 259.359375 244.390625 C261.834375 243.400625 261.834375 243.400625 264.359375 242.390625 C264.359375 241.730625 264.359375 241.070625 264.359375 240.390625 C265.04 240.225625 265.720625 240.060625 266.421875 239.890625 C271.08267023 237.51064446 274.10460659 235.21773484 276.359375 230.390625 C277.28103965 224.11169823 276.90438846 217.68924645 276.359375 211.390625 C276.029375 211.060625 275.699375 210.730625 275.359375 210.390625 C275.03232016 208.91887821 274.74836348 207.43748128 274.484375 205.953125 C272.10674664 193.80654534 267.85205957 182.3808711 260.359375 172.390625 C260.029375 172.390625 259.699375 172.390625 259.359375 172.390625 Z M108.359375 244.390625 C108.359375 245.050625 108.359375 245.710625 108.359375 246.390625 C107.039375 246.390625 105.719375 246.390625 104.359375 246.390625 C104.359375 247.050625 104.359375 247.710625 104.359375 248.390625 C103.43125 248.6071875 103.43125 248.6071875 102.484375 248.828125 C100.32679178 249.32214725 100.32679178 249.32214725 98.359375 250.390625 C98.359375 251.050625 98.359375 251.710625 98.359375 252.390625 C97.039375 252.390625 95.719375 252.390625 94.359375 252.390625 C94.359375 253.050625 94.359375 253.710625 94.359375 254.390625 C93.039375 254.390625 91.719375 254.390625 90.359375 254.390625 C90.359375 255.050625 90.359375 255.710625 90.359375 256.390625 C89.699375 256.390625 89.039375 256.390625 88.359375 256.390625 C88.359375 257.050625 88.359375 257.710625 88.359375 258.390625 C87.039375 258.390625 85.719375 258.390625 84.359375 258.390625 C84.359375 259.050625 84.359375 259.710625 84.359375 260.390625 C82.379375 261.050625 80.399375 261.710625 78.359375 262.390625 C78.359375 263.050625 78.359375 263.710625 78.359375 264.390625 C77.039375 264.390625 75.719375 264.390625 74.359375 264.390625 C74.359375 265.050625 74.359375 265.710625 74.359375 266.390625 C73.039375 266.390625 71.719375 266.390625 70.359375 266.390625 C70.359375 267.050625 70.359375 267.710625 70.359375 268.390625 C69.039375 268.390625 67.719375 268.390625 66.359375 268.390625 C66.359375 269.050625 66.359375 269.710625 66.359375 270.390625 C65.039375 270.390625 63.719375 270.390625 62.359375 270.390625 C62.359375 271.050625 62.359375 271.710625 62.359375 272.390625 C61.039375 272.390625 59.719375 272.390625 58.359375 272.390625 C58.359375 273.050625 58.359375 273.710625 58.359375 274.390625 C57.039375 274.390625 55.719375 274.390625 54.359375 274.390625 C54.359375 275.050625 54.359375 275.710625 54.359375 276.390625 C53.67875 276.32875 52.998125 276.266875 52.296875 276.203125 C49.26906529 276.39638945 47.25974854 277.25378402 44.5390625 278.5234375 C39.98250645 280.33626087 35.12793969 281.28657308 30.359375 282.390625 C30.359375 283.050625 30.359375 283.710625 30.359375 284.390625 C28.379375 284.390625 26.399375 284.390625 24.359375 284.390625 C24.359375 285.050625 24.359375 285.710625 24.359375 286.390625 C23.39 286.37 22.420625 286.349375 21.421875 286.328125 C18.48471605 286.03444001 18.48471605 286.03444001 17.359375 287.390625 C15.84468052 287.62255365 14.32182938 287.80277738 12.796875 287.953125 C11.97058594 288.03691406 11.14429688 288.12070312 10.29296875 288.20703125 C9.65488281 288.26761719 9.01679688 288.32820313 8.359375 288.390625 C8.359375 289.050625 8.359375 289.710625 8.359375 290.390625 C4.399375 290.390625 0.439375 290.390625 -3.640625 290.390625 C-3.640625 291.050625 -3.640625 291.710625 -3.640625 292.390625 C-4.78402344 292.37902344 -5.92742187 292.36742187 -7.10546875 292.35546875 C-8.59635254 292.34609212 -10.08723809 292.33699179 -11.578125 292.328125 C-12.71024414 292.31555664 -12.71024414 292.31555664 -13.86523438 292.30273438 C-15.79056813 292.29410059 -17.71598081 292.33838167 -19.640625 292.390625 C-19.970625 292.720625 -20.300625 293.050625 -20.640625 293.390625 C-22.33787487 293.52420311 -24.04022266 293.59410506 -25.7421875 293.63671875 C-26.79019531 293.66958984 -27.83820313 293.70246094 -28.91796875 293.73632812 C-31.12621507 293.79688097 -33.3345515 293.85424299 -35.54296875 293.90820312 C-43.78551408 294.14993665 -43.78551408 294.14993665 -51.640625 296.390625 C-54.73372682 303.38372478 -53.88274462 309.38400118 -51.640625 316.390625 C-50.980625 316.390625 -50.320625 316.390625 -49.640625 316.390625 C-49.640625 317.050625 -49.640625 317.710625 -49.640625 318.390625 C-46.82806219 318.41746812 -44.01575259 318.43738688 -41.203125 318.453125 C-40.40068359 318.46150391 -39.59824219 318.46988281 -38.77148438 318.47851562 C-36.72767279 318.4871393 -34.68378598 318.4429065 -32.640625 318.390625 C-32.310625 318.060625 -31.980625 317.730625 -31.640625 317.390625 C-30.08113958 317.23376251 -28.51519832 317.13985861 -26.94921875 317.07421875 C-26.00498047 317.03232422 -25.06074219 316.99042969 -24.08789062 316.94726562 C-23.09466797 316.90794922 -22.10144531 316.86863281 -21.078125 316.828125 C-20.08103516 316.78494141 -19.08394531 316.74175781 -18.05664062 316.69726562 C-15.5847835 316.59082202 -13.1128219 316.48880572 -10.640625 316.390625 C-10.640625 315.730625 -10.640625 315.070625 -10.640625 314.390625 C-9.85816406 314.40222656 -9.07570313 314.41382813 -8.26953125 314.42578125 C-7.25761719 314.43480469 -6.24570312 314.44382812 -5.203125 314.453125 C-4.19378906 314.46472656 -3.18445313 314.47632813 -2.14453125 314.48828125 C0.29958567 314.67675176 0.29958567 314.67675176 1.359375 313.390625 C3.4166667 313.07139008 5.47551021 312.87901148 7.546875 312.671875 C9.3761283 312.57064457 9.3761283 312.57064457 10.359375 311.390625 C12.4166667 311.07139008 14.47551021 310.87901148 16.546875 310.671875 C18.3761283 310.57064457 18.3761283 310.57064457 19.359375 309.390625 C21.68755464 309.02301769 24.0212135 308.68820919 26.359375 308.390625 C26.359375 307.730625 26.359375 307.070625 26.359375 306.390625 C28.999375 306.390625 31.639375 306.390625 34.359375 306.390625 C34.359375 305.730625 34.359375 305.070625 34.359375 304.390625 C35.225625 304.431875 36.091875 304.473125 36.984375 304.515625 C40.48295968 304.38604779 43.10489097 303.63042844 46.359375 302.390625 C46.359375 301.730625 46.359375 301.070625 46.359375 300.390625 C47.08125 300.431875 47.803125 300.473125 48.546875 300.515625 C51.56666869 300.38141195 53.62873229 299.63891881 56.359375 298.390625 C56.359375 297.730625 56.359375 297.070625 56.359375 296.390625 C58.009375 296.390625 59.659375 296.390625 61.359375 296.390625 C61.359375 295.730625 61.359375 295.070625 61.359375 294.390625 C63.009375 294.390625 64.659375 294.390625 66.359375 294.390625 C66.359375 293.730625 66.359375 293.070625 66.359375 292.390625 C67.101875 292.24625 67.844375 292.101875 68.609375 291.953125 C70.87965239 291.48875008 73.11696979 290.97198931 75.359375 290.390625 C75.359375 289.730625 75.359375 289.070625 75.359375 288.390625 C77.009375 288.390625 78.659375 288.390625 80.359375 288.390625 C80.359375 287.730625 80.359375 287.070625 80.359375 286.390625 C81.679375 286.390625 82.999375 286.390625 84.359375 286.390625 C84.359375 285.730625 84.359375 285.070625 84.359375 284.390625 C85.679375 284.390625 86.999375 284.390625 88.359375 284.390625 C88.359375 283.730625 88.359375 283.070625 88.359375 282.390625 C89.679375 282.390625 90.999375 282.390625 92.359375 282.390625 C92.359375 281.730625 92.359375 281.070625 92.359375 280.390625 C93.679375 280.390625 94.999375 280.390625 96.359375 280.390625 C96.359375 279.730625 96.359375 279.070625 96.359375 278.390625 C97.019375 278.390625 97.679375 278.390625 98.359375 278.390625 C98.359375 277.730625 98.359375 277.070625 98.359375 276.390625 C99.679375 276.390625 100.999375 276.390625 102.359375 276.390625 C102.359375 275.730625 102.359375 275.070625 102.359375 274.390625 C103.019375 274.390625 103.679375 274.390625 104.359375 274.390625 C104.359375 273.730625 104.359375 273.070625 104.359375 272.390625 C105.679375 272.390625 106.999375 272.390625 108.359375 272.390625 C108.359375 271.730625 108.359375 271.070625 108.359375 270.390625 C109.019375 270.390625 109.679375 270.390625 110.359375 270.390625 C110.359375 269.730625 110.359375 269.070625 110.359375 268.390625 C111.679375 268.390625 112.999375 268.390625 114.359375 268.390625 C114.359375 267.730625 114.359375 267.070625 114.359375 266.390625 C115.019375 266.390625 115.679375 266.390625 116.359375 266.390625 C116.359375 265.730625 116.359375 265.070625 116.359375 264.390625 C117.019375 264.390625 117.679375 264.390625 118.359375 264.390625 C118.359375 263.730625 118.359375 263.070625 118.359375 262.390625 C119.679375 262.390625 120.999375 262.390625 122.359375 262.390625 C122.57974364 258.53417379 121.96292601 255.89839284 120.359375 252.390625 C119.699375 252.390625 119.039375 252.390625 118.359375 252.390625 C117.369375 250.410625 117.369375 250.410625 116.359375 248.390625 C115.699375 248.390625 115.039375 248.390625 114.359375 248.390625 C114.359375 247.730625 114.359375 247.070625 114.359375 246.390625 C113.699375 246.390625 113.039375 246.390625 112.359375 246.390625 C112.359375 245.730625 112.359375 245.070625 112.359375 244.390625 C111.039375 244.390625 109.719375 244.390625 108.359375 244.390625 Z M-61.640625 258.390625 C-61.640625 259.050625 -61.640625 259.710625 -61.640625 260.390625 C-62.300625 260.390625 -62.960625 260.390625 -63.640625 260.390625 C-63.640625 261.050625 -63.640625 261.710625 -63.640625 262.390625 C-64.300625 262.390625 -64.960625 262.390625 -65.640625 262.390625 C-65.640625 263.050625 -65.640625 263.710625 -65.640625 264.390625 C-66.960625 264.390625 -68.280625 264.390625 -69.640625 264.390625 C-69.640625 265.050625 -69.640625 265.710625 -69.640625 266.390625 C-70.300625 266.390625 -70.960625 266.390625 -71.640625 266.390625 C-71.640625 267.050625 -71.640625 267.710625 -71.640625 268.390625 C-72.300625 268.390625 -72.960625 268.390625 -73.640625 268.390625 C-73.640625 269.050625 -73.640625 269.710625 -73.640625 270.390625 C-74.960625 270.390625 -76.280625 270.390625 -77.640625 270.390625 C-77.640625 271.050625 -77.640625 271.710625 -77.640625 272.390625 C-78.300625 272.390625 -78.960625 272.390625 -79.640625 272.390625 C-79.640625 273.050625 -79.640625 273.710625 -79.640625 274.390625 C-80.300625 274.390625 -80.960625 274.390625 -81.640625 274.390625 C-81.640625 275.050625 -81.640625 275.710625 -81.640625 276.390625 C-82.960625 276.390625 -84.280625 276.390625 -85.640625 276.390625 C-85.640625 277.050625 -85.640625 277.710625 -85.640625 278.390625 C-86.300625 278.390625 -86.960625 278.390625 -87.640625 278.390625 C-87.640625 279.050625 -87.640625 279.710625 -87.640625 280.390625 C-88.300625 280.390625 -88.960625 280.390625 -89.640625 280.390625 C-89.640625 281.050625 -89.640625 281.710625 -89.640625 282.390625 C-90.960625 282.390625 -92.280625 282.390625 -93.640625 282.390625 C-93.640625 283.050625 -93.640625 283.710625 -93.640625 284.390625 C-94.300625 284.390625 -94.960625 284.390625 -95.640625 284.390625 C-95.640625 285.050625 -95.640625 285.710625 -95.640625 286.390625 C-96.300625 286.390625 -96.960625 286.390625 -97.640625 286.390625 C-97.640625 287.050625 -97.640625 287.710625 -97.640625 288.390625 C-98.960625 288.390625 -100.280625 288.390625 -101.640625 288.390625 C-101.640625 289.050625 -101.640625 289.710625 -101.640625 290.390625 C-102.300625 290.390625 -102.960625 290.390625 -103.640625 290.390625 C-103.640625 291.050625 -103.640625 291.710625 -103.640625 292.390625 C-104.960625 292.390625 -106.280625 292.390625 -107.640625 292.390625 C-107.640625 293.050625 -107.640625 293.710625 -107.640625 294.390625 C-108.300625 294.390625 -108.960625 294.390625 -109.640625 294.390625 C-109.640625 295.050625 -109.640625 295.710625 -109.640625 296.390625 C-110.300625 296.390625 -110.960625 296.390625 -111.640625 296.390625 C-111.640625 297.050625 -111.640625 297.710625 -111.640625 298.390625 C-112.960625 298.390625 -114.280625 298.390625 -115.640625 298.390625 C-115.640625 299.050625 -115.640625 299.710625 -115.640625 300.390625 C-116.300625 300.390625 -116.960625 300.390625 -117.640625 300.390625 C-117.640625 301.050625 -117.640625 301.710625 -117.640625 302.390625 C-118.960625 302.390625 -120.280625 302.390625 -121.640625 302.390625 C-121.640625 303.050625 -121.640625 303.710625 -121.640625 304.390625 C-122.300625 304.390625 -122.960625 304.390625 -123.640625 304.390625 C-123.640625 305.050625 -123.640625 305.710625 -123.640625 306.390625 C-125.620625 307.050625 -127.600625 307.710625 -129.640625 308.390625 C-129.640625 309.050625 -129.640625 309.710625 -129.640625 310.390625 C-130.960625 310.390625 -132.280625 310.390625 -133.640625 310.390625 C-133.640625 311.050625 -133.640625 311.710625 -133.640625 312.390625 C-134.300625 312.390625 -134.960625 312.390625 -135.640625 312.390625 C-135.640625 313.050625 -135.640625 313.710625 -135.640625 314.390625 C-136.960625 314.390625 -138.280625 314.390625 -139.640625 314.390625 C-139.640625 315.050625 -139.640625 315.710625 -139.640625 316.390625 C-140.960625 316.390625 -142.280625 316.390625 -143.640625 316.390625 C-143.640625 317.050625 -143.640625 317.710625 -143.640625 318.390625 C-145.290625 318.390625 -146.940625 318.390625 -148.640625 318.390625 C-148.640625 319.050625 -148.640625 319.710625 -148.640625 320.390625 C-150.620625 320.390625 -152.600625 320.390625 -154.640625 320.390625 C-154.640625 321.050625 -154.640625 321.710625 -154.640625 322.390625 C-156.31125 322.3596875 -156.31125 322.3596875 -158.015625 322.328125 C-161.47278421 322.12681782 -161.47278421 322.12681782 -163.640625 323.390625 C-179.9229385 327.11229666 -197.04912731 326.54649502 -213.640625 326.390625 C-213.66749779 328.20304552 -213.68696215 330.01557733 -213.703125 331.828125 C-213.71472656 332.83746094 -213.72632813 333.84679687 -213.73828125 334.88671875 C-213.92675176 337.33083567 -213.92675176 337.33083567 -212.640625 338.390625 C-212.40775492 340.07246448 -212.22798334 341.7618666 -212.078125 343.453125 C-211.95244141 344.83177734 -211.95244141 344.83177734 -211.82421875 346.23828125 C-211.76363281 346.94855469 -211.70304687 347.65882813 -211.640625 348.390625 C-210.980625 348.390625 -210.320625 348.390625 -209.640625 348.390625 C-209.640625 350.370625 -209.640625 352.350625 -209.640625 354.390625 C-208.980625 354.390625 -208.320625 354.390625 -207.640625 354.390625 C-207.49625 355.298125 -207.351875 356.205625 -207.203125 357.140625 C-206.77653027 359.60539456 -206.28988279 361.97909607 -205.640625 364.390625 C-204.980625 364.390625 -204.320625 364.390625 -203.640625 364.390625 C-203.640625 365.710625 -203.640625 367.030625 -203.640625 368.390625 C-202.980625 368.390625 -202.320625 368.390625 -201.640625 368.390625 C-201.640625 369.710625 -201.640625 371.030625 -201.640625 372.390625 C-200.980625 372.390625 -200.320625 372.390625 -199.640625 372.390625 C-199.640625 373.050625 -199.640625 373.710625 -199.640625 374.390625 C-198.980625 374.390625 -198.320625 374.390625 -197.640625 374.390625 C-197.640625 375.710625 -197.640625 377.030625 -197.640625 378.390625 C-196.980625 378.390625 -196.320625 378.390625 -195.640625 378.390625 C-195.640625 379.050625 -195.640625 379.710625 -195.640625 380.390625 C-194.980625 380.390625 -194.320625 380.390625 -193.640625 380.390625 C-193.640625 381.050625 -193.640625 381.710625 -193.640625 382.390625 C-189.36410377 384.47976306 -185.44938186 384.69736435 -180.77734375 384.69140625 C-179.65112358 384.69783394 -179.65112358 384.69783394 -178.50215149 384.70439148 C-176.91786707 384.710117 -175.33355637 384.71064817 -173.74926758 384.70629883 C-171.34605134 384.7031485 -168.94407906 384.72658513 -166.54101562 384.75195312 C-164.9947932 384.75422753 -163.44856751 384.75492896 -161.90234375 384.75390625 C-160.83943367 384.76772087 -160.83943367 384.76772087 -159.75505066 384.78181458 C-155.2241733 384.74055352 -151.66482342 383.90170022 -147.49079895 382.13175964 C-145.56415558 381.35999321 -143.6617406 380.8525459 -141.640625 380.390625 C-141.640625 379.730625 -141.640625 379.070625 -141.640625 378.390625 C-140.320625 378.390625 -139.000625 378.390625 -137.640625 378.390625 C-137.640625 377.730625 -137.640625 377.070625 -137.640625 376.390625 C-136.320625 376.390625 -135.000625 376.390625 -133.640625 376.390625 C-133.640625 375.730625 -133.640625 375.070625 -133.640625 374.390625 C-132.320625 374.390625 -131.000625 374.390625 -129.640625 374.390625 C-129.640625 373.730625 -129.640625 373.070625 -129.640625 372.390625 C-128.980625 372.390625 -128.320625 372.390625 -127.640625 372.390625 C-127.640625 371.730625 -127.640625 371.070625 -127.640625 370.390625 C-126.980625 370.390625 -126.320625 370.390625 -125.640625 370.390625 C-125.640625 369.730625 -125.640625 369.070625 -125.640625 368.390625 C-125.021875 368.24625 -124.403125 368.101875 -123.765625 367.953125 C-121.60804178 367.45910275 -121.60804178 367.45910275 -119.640625 366.390625 C-119.640625 365.730625 -119.640625 365.070625 -119.640625 364.390625 C-118.980625 364.390625 -118.320625 364.390625 -117.640625 364.390625 C-117.640625 363.730625 -117.640625 363.070625 -117.640625 362.390625 C-116.980625 362.390625 -116.320625 362.390625 -115.640625 362.390625 C-115.640625 361.730625 -115.640625 361.070625 -115.640625 360.390625 C-114.980625 360.390625 -114.320625 360.390625 -113.640625 360.390625 C-113.640625 359.730625 -113.640625 359.070625 -113.640625 358.390625 C-112.980625 358.390625 -112.320625 358.390625 -111.640625 358.390625 C-111.640625 357.730625 -111.640625 357.070625 -111.640625 356.390625 C-110.980625 356.390625 -110.320625 356.390625 -109.640625 356.390625 C-109.640625 355.730625 -109.640625 355.070625 -109.640625 354.390625 C-108.980625 354.390625 -108.320625 354.390625 -107.640625 354.390625 C-104.67826805 350.75738811 -104.67826805 350.75738811 -103.640625 346.390625 C-102.980625 346.390625 -102.320625 346.390625 -101.640625 346.390625 C-101.640625 345.730625 -101.640625 345.070625 -101.640625 344.390625 C-100.980625 344.390625 -100.320625 344.390625 -99.640625 344.390625 C-98.980625 343.2975 -98.320625 342.204375 -97.640625 341.078125 C-97.08375 340.15580078 -97.08375 340.15580078 -96.515625 339.21484375 C-95.42438501 337.27700574 -95.42438501 337.27700574 -95.640625 334.390625 C-94.980625 334.390625 -94.320625 334.390625 -93.640625 334.390625 C-93.34406006 333.75672852 -93.04749512 333.12283203 -92.74194336 332.46972656 C-82.97387982 311.65186016 -82.97387982 311.65186016 -77.1328125 302.09375 C-74.88966981 298.03025591 -73.33493592 293.7640761 -71.78125 289.3984375 C-70.640625 286.390625 -70.640625 286.390625 -69 283.2578125 C-67.35502245 280.31708606 -67.35502245 280.31708606 -67.640625 276.390625 C-66.980625 276.390625 -66.320625 276.390625 -65.640625 276.390625 C-65.45886719 275.72675781 -65.27710938 275.06289063 -65.08984375 274.37890625 C-63.72879509 269.5977866 -62.3254013 265.60955918 -59.640625 261.390625 C-59.640625 260.400625 -59.640625 259.410625 -59.640625 258.390625 C-60.300625 258.390625 -60.960625 258.390625 -61.640625 258.390625 Z M125.359375 328.390625 C125.359375 329.050625 125.359375 329.710625 125.359375 330.390625 C123.709375 330.390625 122.059375 330.390625 120.359375 330.390625 C120.359375 331.050625 120.359375 331.710625 120.359375 332.390625 C119.039375 332.390625 117.719375 332.390625 116.359375 332.390625 C116.359375 333.050625 116.359375 333.710625 116.359375 334.390625 C115.039375 334.390625 113.719375 334.390625 112.359375 334.390625 C112.359375 335.050625 112.359375 335.710625 112.359375 336.390625 C111.039375 336.390625 109.719375 336.390625 108.359375 336.390625 C108.359375 337.050625 108.359375 337.710625 108.359375 338.390625 C107.039375 338.390625 105.719375 338.390625 104.359375 338.390625 C104.359375 339.050625 104.359375 339.710625 104.359375 340.390625 C103.823125 340.49375 103.286875 340.596875 102.734375 340.703125 C99.72049993 341.57556252 97.14198848 342.94366599 94.359375 344.390625 C88.02134683 347.68639965 88.02134683 347.68639965 84.359375 348.390625 C84.359375 349.050625 84.359375 349.710625 84.359375 350.390625 C83.64265625 350.5246875 82.9259375 350.65875 82.1875 350.796875 C79.44266156 351.37313942 76.795474 352.08640374 74.109375 352.890625 C73.23796875 353.1484375 72.3665625 353.40625 71.46875 353.671875 C69.39889628 354.20401899 69.39889628 354.20401899 68.359375 355.390625 C67.328125 355.514375 66.296875 355.638125 65.234375 355.765625 C61.19141096 356.41771597 58.07467636 357.70822438 54.359375 359.390625 C53.03661444 359.76371131 51.70705423 360.12108915 50.359375 360.390625 C50.359375 361.050625 50.359375 361.710625 50.359375 362.390625 C49.39 362.37 48.420625 362.349375 47.421875 362.328125 C44.48471605 362.03444001 44.48471605 362.03444001 43.359375 363.390625 C41.03119536 363.75823231 38.6975365 364.09304081 36.359375 364.390625 C36.359375 365.050625 36.359375 365.710625 36.359375 366.390625 C35.72128906 366.37902344 35.08320312 366.36742187 34.42578125 366.35546875 C33.59949219 366.34644531 32.77320313 366.33742188 31.921875 366.328125 C31.09816406 366.31652344 30.27445313 366.30492187 29.42578125 366.29296875 C27.36773562 366.15795152 27.36773562 366.15795152 26.359375 367.390625 C24.34342918 367.62490278 22.320901 367.80398624 20.296875 367.953125 C19.19214844 368.03691406 18.08742188 368.12070312 16.94921875 368.20703125 C16.09457031 368.26761719 15.23992187 368.32820313 14.359375 368.390625 C14.359375 369.050625 14.359375 369.710625 14.359375 370.390625 C13.36035156 370.37902344 12.36132812 370.36742187 11.33203125 370.35546875 C10.04167969 370.34644531 8.75132812 370.33742188 7.421875 370.328125 C6.13410156 370.31652344 4.84632813 370.30492187 3.51953125 370.29296875 C0.49639097 370.02529951 0.49639097 370.02529951 -0.640625 371.390625 C-2.15531948 371.62255365 -3.67817062 371.80277738 -5.203125 371.953125 C-6.02941406 372.03691406 -6.85570312 372.12070312 -7.70703125 372.20703125 C-8.34511719 372.26761719 -8.98320312 372.32820313 -9.640625 372.390625 C-9.640625 373.050625 -9.640625 373.710625 -9.640625 374.390625 C-11.620625 374.885625 -11.620625 374.885625 -13.640625 375.390625 C-12.650625 375.720625 -11.660625 376.050625 -10.640625 376.390625 C-10.640625 377.050625 -10.640625 377.710625 -10.640625 378.390625 C-9.650625 378.390625 -8.660625 378.390625 -7.640625 378.390625 C-7.640625 379.050625 -7.640625 379.710625 -7.640625 380.390625 C-6.980625 380.390625 -6.320625 380.390625 -5.640625 380.390625 C-5.640625 381.050625 -5.640625 381.710625 -5.640625 382.390625 C-4.980625 382.390625 -4.320625 382.390625 -3.640625 382.390625 C-3.640625 383.050625 -3.640625 383.710625 -3.640625 384.390625 C-1.660625 384.390625 0.319375 384.390625 2.359375 384.390625 C2.359375 385.050625 2.359375 385.710625 2.359375 386.390625 C4.999375 386.390625 7.639375 386.390625 10.359375 386.390625 C10.359375 387.050625 10.359375 387.710625 10.359375 388.390625 C13.00527514 388.41747179 15.65090596 388.43738857 18.296875 388.453125 C19.42899414 388.46569336 19.42899414 388.46569336 20.58398438 388.47851562 C22.50931813 388.48714941 24.43473081 388.44286833 26.359375 388.390625 C26.689375 388.060625 27.019375 387.730625 27.359375 387.390625 C29.54230274 387.15580807 31.73140674 386.97699177 33.921875 386.828125 C35.11941406 386.74433594 36.31695313 386.66054688 37.55078125 386.57421875 C38.47761719 386.51363281 39.40445313 386.45304687 40.359375 386.390625 C40.359375 385.730625 40.359375 385.070625 40.359375 384.390625 C42.339375 384.390625 44.319375 384.390625 46.359375 384.390625 C46.359375 383.730625 46.359375 383.070625 46.359375 382.390625 C47.32875 382.41125 48.298125 382.431875 49.296875 382.453125 C52.23403395 382.74680999 52.23403395 382.74680999 53.359375 381.390625 C55.68755464 381.02301769 58.0212135 380.68820919 60.359375 380.390625 C60.359375 379.730625 60.359375 379.070625 60.359375 378.390625 C62.339375 378.390625 64.319375 378.390625 66.359375 378.390625 C66.359375 377.730625 66.359375 377.070625 66.359375 376.390625 C68.339375 376.390625 70.319375 376.390625 72.359375 376.390625 C72.359375 375.730625 72.359375 375.070625 72.359375 374.390625 C74.339375 374.390625 76.319375 374.390625 78.359375 374.390625 C78.359375 373.730625 78.359375 373.070625 78.359375 372.390625 C80.339375 372.390625 82.319375 372.390625 84.359375 372.390625 C84.359375 371.730625 84.359375 371.070625 84.359375 370.390625 C86.339375 370.390625 88.319375 370.390625 90.359375 370.390625 C90.359375 369.730625 90.359375 369.070625 90.359375 368.390625 C91.679375 368.390625 92.999375 368.390625 94.359375 368.390625 C94.359375 367.730625 94.359375 367.070625 94.359375 366.390625 C95.019375 366.390625 95.679375 366.390625 96.359375 366.390625 C96.359375 365.730625 96.359375 365.070625 96.359375 364.390625 C97.679375 364.390625 98.999375 364.390625 100.359375 364.390625 C100.359375 363.730625 100.359375 363.070625 100.359375 362.390625 C101.679375 362.390625 102.999375 362.390625 104.359375 362.390625 C104.359375 361.730625 104.359375 361.070625 104.359375 360.390625 C105.019375 360.390625 105.679375 360.390625 106.359375 360.390625 C106.359375 359.730625 106.359375 359.070625 106.359375 358.390625 C107.679375 358.390625 108.999375 358.390625 110.359375 358.390625 C110.359375 357.730625 110.359375 357.070625 110.359375 356.390625 C111.019375 356.390625 111.679375 356.390625 112.359375 356.390625 C112.359375 355.730625 112.359375 355.070625 112.359375 354.390625 C113.019375 354.390625 113.679375 354.390625 114.359375 354.390625 C114.359375 353.730625 114.359375 353.070625 114.359375 352.390625 C115.019375 352.390625 115.679375 352.390625 116.359375 352.390625 C116.359375 351.730625 116.359375 351.070625 116.359375 350.390625 C117.019375 350.390625 117.679375 350.390625 118.359375 350.390625 C118.359375 349.730625 118.359375 349.070625 118.359375 348.390625 C119.019375 348.390625 119.679375 348.390625 120.359375 348.390625 C120.359375 347.070625 120.359375 345.750625 120.359375 344.390625 C121.019375 344.390625 121.679375 344.390625 122.359375 344.390625 C122.359375 343.730625 122.359375 343.070625 122.359375 342.390625 C123.019375 342.390625 123.679375 342.390625 124.359375 342.390625 C124.359375 340.410625 124.359375 338.430625 124.359375 336.390625 C125.019375 336.390625 125.679375 336.390625 126.359375 336.390625 C126.689375 333.750625 127.019375 331.110625 127.359375 328.390625 C126.699375 328.390625 126.039375 328.390625 125.359375 328.390625 Z " fill="#FEBF60" transform="translate(492.640625,286.609375)"/>
<path d="M0 0 C0.66 0 1.32 0 2 0 C0.62845496 2.95409701 -0.98863724 5.44008376 -3 8 C-3 7.01 -3 6.02 -3 5 C-3.66 5 -4.32 5 -5 5 C-5 5.66 -5 6.32 -5 7 C-5.66 7 -6.32 7 -7 7 C-7 7.66 -7 8.32 -7 9 C-7.66 9 -8.32 9 -9 9 C-9 9.66 -9 10.32 -9 11 C-10.32 11 -11.64 11 -13 11 C-13 11.66 -13 12.32 -13 13 C-13.66 13 -14.32 13 -15 13 C-15 13.66 -15 14.32 -15 15 C-15.66 15 -16.32 15 -17 15 C-17 15.66 -17 16.32 -17 17 C-18.32 17 -19.64 17 -21 17 C-21 17.66 -21 18.32 -21 19 C-21.66 19 -22.32 19 -23 19 C-23 19.66 -23 20.32 -23 21 C-23.66 21 -24.32 21 -25 21 C-25 21.66 -25 22.32 -25 23 C-26.32 23 -27.64 23 -29 23 C-29 23.66 -29 24.32 -29 25 C-29.66 25 -30.32 25 -31 25 C-31 25.66 -31 26.32 -31 27 C-31.66 27 -32.32 27 -33 27 C-33 27.66 -33 28.32 -33 29 C-34.32 29 -35.64 29 -37 29 C-37 29.66 -37 30.32 -37 31 C-37.66 31 -38.32 31 -39 31 C-39 31.66 -39 32.32 -39 33 C-39.66 33 -40.32 33 -41 33 C-41 33.66 -41 34.32 -41 35 C-42.32 35 -43.64 35 -45 35 C-45 35.66 -45 36.32 -45 37 C-45.66 37 -46.32 37 -47 37 C-47 37.66 -47 38.32 -47 39 C-48.32 39 -49.64 39 -51 39 C-51 39.66 -51 40.32 -51 41 C-51.66 41 -52.32 41 -53 41 C-53 41.66 -53 42.32 -53 43 C-53.66 43 -54.32 43 -55 43 C-55 43.66 -55 44.32 -55 45 C-56.32 45 -57.64 45 -59 45 C-59 45.66 -59 46.32 -59 47 C-59.66 47 -60.32 47 -61 47 C-61 47.66 -61 48.32 -61 49 C-61.99 48.67 -62.98 48.34 -64 48 C-61.22828224 45.02296982 -58.48924748 43.05776133 -55 41 C-54.505 40.505 -54.01 40.01 -53.5 39.5 C-51.5499273 37.5499273 -49.38280509 36.3853518 -47 35 C-43.00492397 32.48961438 -43.00492397 32.48961438 -39.4375 29.4375 C-37.53007487 27.53007487 -35.30749457 26.38449674 -33 25 C-32.505 24.505 -32.01 24.01 -31.5 23.5 C-29.56503396 21.56503396 -27.34110827 20.40466496 -25 19 C-24.505 18.505 -24.01 18.01 -23.5 17.5 C-21.56503396 15.56503396 -19.34110827 14.40466496 -17 13 C-16.505 12.505 -16.01 12.01 -15.5 11.5 C-13.56503396 9.56503396 -11.34110827 8.40466496 -9 7 C-8.505 6.505 -8.01 6.01 -7.5 5.5 C-5.56237724 3.56237724 -3.36276218 2.36791495 -1 1 C-0.67 0.67 -0.34 0.34 0 0 Z " fill="#FFF5E9" transform="translate(436,540)"/>
<path d="M0 0 C0.66 0.33 1.32 0.66 2 1 C-1.15879379 6.05407007 -4.71126781 10.83802836 -9 15 C-9.66 15 -10.32 15 -11 15 C-11.226875 15.7425 -11.45375 16.485 -11.6875 17.25 C-13.24407532 20.51139591 -15.08518854 21.92894975 -18 24 C-17.4739075 20.21213403 -16.61896089 17.82847776 -14 15 C-13.34 15 -12.68 15 -12 15 C-11.731875 14.42765625 -11.46375 13.8553125 -11.1875 13.265625 C-9.95867364 10.92115366 -8.57477824 8.87595062 -7 6.75 C-6.484375 6.04359375 -5.96875 5.3371875 -5.4375 4.609375 C-4.963125 4.07828125 -4.48875 3.5471875 -4 3 C-3.34 3 -2.68 3 -2 3 C-2 2.34 -2 1.68 -2 1 C-1.34 0.67 -0.68 0.34 0 0 Z " fill="#FED18A" transform="translate(583,372)"/>
<path d="M0 0 C1 2 1 2 0.58203125 3.8125 C0.32808594 4.534375 0.07414062 5.25625 -0.1875 6 C-0.4659375 6.79277344 -0.744375 7.58554687 -1.03125 8.40234375 C-2.60921913 12.63359161 -4.28239606 16.82369397 -6 21 C-6.99 21 -7.98 21 -9 21 C-8.14684307 17.21767096 -6.8952546 13.59814281 -5.625 9.9375 C-5.20476562 8.70902344 -4.78453125 7.48054687 -4.3515625 6.21484375 C-3.15414249 3.36664528 -2.36907934 1.89110719 0 0 Z " fill="#FEC975" transform="translate(426,565)"/>
<path d="M0 0 C0.99 0.33 1.98 0.66 3 1 C0.36 2.98 -2.28 4.96 -5 7 C-4.566875 7.70125 -4.13375 8.4025 -3.6875 9.125 C-1.98498914 12.02557406 -0.47551433 14.97870875 1 18 C-0.65 17.67 -2.3 17.34 -4 17 C-4 16.01 -4 15.02 -4 14 C-4.66 14 -5.32 14 -6 14 C-7.125 6.25 -7.125 6.25 -6 4 C-5.34 4 -4.68 4 -4 4 C-4 3.34 -4 2.68 -4 2 C-2.68 2 -1.36 2 0 2 C0 1.34 0 0.68 0 0 Z " fill="#FEDEA5" transform="translate(525,457)"/>
<path d="M0 0 C0.33 0 0.66 0 1 0 C2.70159453 17.85649203 2.70159453 17.85649203 -1 26 C-1.99 26 -2.98 26 -4 26 C-3.51500785 23.81753532 -2.96680429 21.93049649 -2 19.90625 C-0.65574607 15.99951201 -0.54015817 12.29236871 -0.375 8.1875 C-0.33632813 7.39923828 -0.29765625 6.61097656 -0.2578125 5.79882812 C-0.16411156 3.8662462 -0.08099221 1.93315624 0 0 Z " fill="#FEDDA8" transform="translate(765,388)"/>
<path d="M0 0 C1.32 0.33 2.64 0.66 4 1 C1.91938319 3.48073543 0.49884124 4.84559676 -2.625 5.8125 C-7.15500741 6.06416708 -11.50856388 5.57696314 -16 5 C-16 4.67 -16 4.34 -16 4 C-12.7 4 -9.4 4 -6 4 C-6 3.34 -6 2.68 -6 2 C-4.02 2 -2.04 2 0 2 C0 1.34 0 0.68 0 0 Z " fill="#FDDBA4" transform="translate(690,471)"/>
<path d="M0 0 C0.66 0.33 1.32 0.66 2 1 C0.61068357 2.44379943 -0.78676578 3.87977512 -2.1875 5.3125 C-2.96480469 6.11300781 -3.74210938 6.91351563 -4.54296875 7.73828125 C-6.91660709 9.9232361 -9.1931507 11.43349327 -12 13 C-12.99 13.66 -13.98 14.32 -15 15 C-12.68185893 8.97283321 -7.47552222 5.04195679 -2 2 C-1.34 1.34 -0.68 0.68 0 0 Z " fill="#FDB13D" transform="translate(230,459)"/>
<path d="M0 0 C0.66 0.33 1.32 0.66 2 1 C0.6477221 5.05683369 -1.40841765 5.78979548 -5 8 C-6.3303125 8.8971875 -6.3303125 8.8971875 -7.6875 9.8125 C-8.450625 10.204375 -9.21375 10.59625 -10 11 C-10.99 10.67 -11.98 10.34 -13 10 C-11.35 9.34 -9.7 8.68 -8 8 C-8 7.34 -8 6.68 -8 6 C-6.35 5.34 -4.7 4.68 -3 4 C-3 3.34 -3 2.68 -3 2 C-2.01 2 -1.02 2 0 2 C0 1.34 0 0.68 0 0 Z " fill="#FED695" transform="translate(620,339)"/>
<path d="M0 0 C-2.18614424 2.18614424 -3.53879949 2.68256535 -6.4375 3.625 C-7.21996094 3.88539063 -8.00242187 4.14578125 -8.80859375 4.4140625 C-11 5 -11 5 -14 5 C-14 4.01 -14 3.02 -14 2 C-12.02 2 -10.04 2 -8 2 C-8 1.34 -8 0.68 -8 0 C-2.25 -1.125 -2.25 -1.125 0 0 Z " fill="#FBBA51" transform="translate(548,670)"/>
<path d="M0 0 C3 2 3 2 3.75 4.5625 C4.05946071 8.81758474 3.60812151 12.78992802 3 17 C2.67 17 2.34 17 2 17 C0.7017874 11.23918159 -0.25706972 5.91260345 0 0 Z " fill="#FEDBA3" transform="translate(765,480)"/>
<path d="M0 0 C0.33 0.99 0.66 1.98 1 3 C-2.17320782 6.53586014 -4.16743695 8.58578031 -9 9 C-9 8.34 -9 7.68 -9 7 C-7.28515625 5.52734375 -7.28515625 5.52734375 -5.0625 3.9375 C-2.41985962 2.10094469 -2.41985962 2.10094469 0 0 Z " fill="#FDCD81" transform="translate(766,520)"/>
<path d="M0 0 C0.33 0.66 0.66 1.32 1 2 C0.34 2 -0.32 2 -1 2 C-1.226875 2.7425 -1.45375 3.485 -1.6875 4.25 C-3.24407532 7.51139591 -5.08518854 8.92894975 -8 11 C-7.58534283 6.16233301 -5.5801385 4.14353624 -2 1 C-1.34 0.67 -0.68 0.34 0 0 Z " fill="#FEC976" transform="translate(573,385)"/>
<path d="M0 0 C3.70503641 0.60334309 5.85968148 2.22474237 8.75 4.5625 C9.94882812 5.52349609 9.94882812 5.52349609 11.171875 6.50390625 C12.07679688 7.24447266 12.07679688 7.24447266 13 8 C12.01 8.33 11.02 8.66 10 9 C9.608125 8.566875 9.21625 8.13375 8.8125 7.6875 C6.99400704 5.8712924 6.99400704 5.8712924 4.4375 4.5 C2 3 2 3 0 0 Z " fill="#FEE4AF" transform="translate(518,353)"/>
<path d="M0 0 C2.31 0 4.62 0 7 0 C6.01 1.485 6.01 1.485 5 3 C1.375 3.6875 1.375 3.6875 -2 4 C-1.34 2.68 -0.68 1.36 0 0 Z " fill="#FCC773" transform="translate(677,309)"/>
<path d="M0 0 C0.66 0.99 1.32 1.98 2 3 C1.125 6.6875 1.125 6.6875 0 10 C-0.99 10 -1.98 10 -3 10 C-2.39009109 6.44219804 -1.4216319 3.3171411 0 0 Z " fill="#FECF83" transform="translate(210,478)"/>
<path d="M0 0 C3.01217112 0.64449607 5.51655836 1.65022182 8.25 3.0625 C8.95640625 3.42472656 9.6628125 3.78695312 10.390625 4.16015625 C10.92171875 4.43730469 11.4528125 4.71445312 12 5 C9 6 9 6 6.9921875 5.29296875 C6.29351562 4.92816406 5.59484375 4.56335938 4.875 4.1875 C4.17117188 3.83042969 3.46734375 3.47335937 2.7421875 3.10546875 C1 2 1 2 0 0 Z " fill="#FFB745" transform="translate(477,683)"/>
<path d="M0 0 C1.98 0 3.96 0 6 0 C4 3 4 3 0.875 3.6875 C-0.07375 3.790625 -1.0225 3.89375 -2 4 C-1.34 2.68 -0.68 1.36 0 0 Z " fill="#FCC56D" transform="translate(340,585)"/>
<path d="M0 0 C0.99 0 1.98 0 3 0 C1.55746343 3.36591866 -0.33264727 5.51047079 -3 8 C-3.99 7.67 -4.98 7.34 -6 7 C-5.34 7 -4.68 7 -4 7 C-4 6.34 -4 5.68 -4 5 C-3.34 5 -2.68 5 -2 5 C-2 4.34 -2 3.68 -2 3 C-1.34 3 -0.68 3 0 3 C0 2.01 0 1.02 0 0 Z " fill="#FEFBF1" transform="translate(423,364)"/>
<path d="M0 0 C0 3.93169105 -1.39419615 5.16427228 -4 8 C-4.66 8 -5.32 8 -6 8 C-6.33 8.66 -6.66 9.32 -7 10 C-6.84518205 7.29068581 -6.51827919 5.53415961 -4.59765625 3.5546875 C-3.10228292 2.32320358 -1.5537076 1.1570163 0 0 Z " fill="#FEB64A" transform="translate(392,633)"/>
<path d="M0 0 C0.66 0 1.32 0 2 0 C1.8125 2.8125 1.8125 2.8125 1 6 C-1.5625 7.875 -1.5625 7.875 -4 9 C-2.80100302 5.9168649 -1.52299523 2.93720508 0 0 Z " fill="#FEDBA0" transform="translate(397,621)"/>
<path d="M0 0 C1.23556641 0.01740234 1.23556641 0.01740234 2.49609375 0.03515625 C3.32238281 0.04417969 4.14867187 0.05320312 5 0.0625 C5.63808594 0.07410156 6.27617187 0.08570313 6.93359375 0.09765625 C6.60359375 0.75765625 6.27359375 1.41765625 5.93359375 2.09765625 C3.00645587 3.04699827 1.50528007 3.32942098 -1.37890625 2.16015625 C-1.93578125 1.80953125 -2.49265625 1.45890625 -3.06640625 1.09765625 C-2.06640625 0.09765625 -2.06640625 0.09765625 0 0 Z " fill="#FCDCA6" transform="translate(449.06640625,350.90234375)"/>
<path d="M0 0 C4.455 0.99 4.455 0.99 9 2 C9 2.33 9 2.66 9 3 C6.36 3.66 3.72 4.32 1 5 C1 4.34 1 3.68 1 3 C0.01 2.67 -0.98 2.34 -2 2 C-1.34 2 -0.68 2 0 2 C0 1.34 0 0.68 0 0 Z " fill="#FEE6BF" transform="translate(573,730)"/>
<path d="M0 0 C1.12894876 0.93274109 2.25300876 1.87140122 3.375 2.8125 C4.00148437 3.33457031 4.62796875 3.85664062 5.2734375 4.39453125 C7 6 7 6 9 9 C6.66471585 8.82701599 5.30822418 8.29774631 3.62109375 6.66796875 C0 2.42788462 0 2.42788462 0 0 Z " fill="#FEBA41" transform="translate(225,588)"/>
<path d="M0 0 C0.99 0.33 1.98 0.66 3 1 C-0.465 3.97 -0.465 3.97 -4 7 C-4 4 -4 4 -2 1.8125 C-1.34 1.214375 -0.68 0.61625 0 0 Z " fill="#FEC674" transform="translate(778,536)"/>
<path d="M0 0 C1.0013988 3.00419641 1.51421457 5.87709365 2 9 C0.68 8.01 -0.64 7.02 -2 6 C-1.34 4.02 -0.68 2.04 0 0 Z " fill="#FED28D" transform="translate(768,440)"/>
<path d="M0 0 C-4.625 3 -4.625 3 -8 3 C-8 2.01 -8 1.02 -8 0 C-2.25 -1.125 -2.25 -1.125 0 0 Z " fill="#FCB94E" transform="translate(354,668)"/>
<path d="M0 0 C-4.625 3 -4.625 3 -8 3 C-8 2.01 -8 1.02 -8 0 C-2.25 -1.125 -2.25 -1.125 0 0 Z " fill="#FBB94F" transform="translate(562,666)"/>
<path d="M0 0 C1.4540625 0.0309375 1.4540625 0.0309375 2.9375 0.0625 C1.9375 1.5625 1.9375 1.5625 -0.0625 3.0625 C-2.78096235 3.33595479 -5.31927199 3.19741285 -8.0625 3.0625 C-7.423125 2.753125 -6.78375 2.44375 -6.125 2.125 C-2.0825 0.0425 -2.0825 0.0425 0 0 Z " fill="#FDDFB1" transform="translate(249.0625,448.9375)"/>
<path d="M0 0 C0.33 0 0.66 0 1 0 C1 2.31 1 4.62 1 7 C0.01 7.495 0.01 7.495 -1 8 C-1.625 5.6875 -1.625 5.6875 -2 3 C-1.34 2.01 -0.68 1.02 0 0 Z " fill="#FDDAA2" transform="translate(224,498)"/>
<path d="M0 0 C0.33 0.99 0.66 1.98 1 3 C-1.17424117 5.50037734 -2.73045798 6.43628586 -6 7 C-6 6.34 -6 5.68 -6 5 C-4.04072937 3.2856382 -2.04119788 1.61594832 0 0 Z " fill="#FECF86" transform="translate(740,440)"/>
<path d="M0 0 C0.33 0 0.66 0 1 0 C1 1.98 1 3.96 1 6 C-0.98 6.99 -0.98 6.99 -3 8 C-1.125 2.25 -1.125 2.25 0 0 Z " fill="#FDC66D" transform="translate(490,335)"/>
</svg>
