<svg id="svg" version="1.1" viewBox="0 0 300 300" width="300" height="300" xmlns="http://www.w3.org/2000/svg"><svg xmlns="http://www.w3.org/2000/svg"><defs><clipPath id="clip-1"><rect x="0" y="0" transform="scale(0.14648,0.14648)" width="2048" height="2048" fill="none"/></clipPath></defs><g clip-path="url(#clip-1)" fill="none" fill-rule="nonzero" stroke="none" stroke-width="1" stroke-linecap="butt" stroke-linejoin="miter" stroke-miterlimit="10" stroke-dasharray="" stroke-dashoffset="0" font-family="none" font-weight="none" font-size="none" text-anchor="none" style="mix-blend-mode: normal"><path d="M144.00806,84.4207c1.29023,-0.0583 2.79126,-0.03384 4.0979,-0.04468c0.22705,0.15923 0.45117,0.32476 0.66943,0.49644c2.79785,2.20723 3.87158,5.42988 -0.15967,7.39834c-0.28857,0.127 -2.22393,0.70503 -2.32266,0.89092c-1.08179,2.03833 -1.57031,4.12427 -2.99604,6.02695c-0.49409,0.65918 -0.6832,1.40171 -1.28774,2.13984c1.83867,0.05889 4.27339,-0.08994 5.95898,0.69888c5.65723,2.648 10.875,7.81816 13.95264,13.19165c0.46436,0.80947 1.07813,3.76187 1.7168,4.17729c0.66797,-0.68921 1.09717,-1.70405 1.70068,-2.52466c7.68457,-10.46938 18.11133,-18.78472 29.90332,-24.18896c2.58838,-1.18652 5.48877,-2.44658 8.28369,-2.8604c5.5166,-0.81621 8.58984,0.54756 13.02246,3.78208c6.33691,4.57017 11.37158,11.02456 12.48926,18.92622c0.2124,1.51069 0.12451,5.77471 0.0293,7.37651c-0.19482,3.23877 -3.24316,7.1729 -5.16211,9.68965c6.19482,9.21313 6.6123,13.23428 6.33691,24.13711c-0.64453,0.96826 -1.20703,1.95117 -2.02588,2.81836c-2.83301,2.99414 -7.71973,6.48486 -11.70264,7.51904c-2.3291,0.60498 -6.36768,0.95361 -8.88428,1.09277c-0.92725,0.05127 -2.72754,-0.33398 -3.70312,-0.38379c-2.80664,-0.14062 -5.23682,-0.47314 -7.95117,-1.19092c-2.02148,-0.5332 -3.6416,-1.29932 -5.55029,-2.01709c-1.80908,-0.67969 -2.16797,-0.46582 -4.00195,-1.52051c1.13086,3.57861 1.67871,7.37842 2.19287,11.11377c0.10107,0.73828 -0.57422,1.95557 -0.45703,2.61035c0.06885,0.38379 0.57275,1.2041 0.55664,1.76074c-0.01465,0.47021 -0.45996,1.18652 -0.51709,1.58496c-0.11865,0.8291 -0.1333,1.56006 -0.27979,2.40674c-0.3501,2.02441 -0.96826,3.67676 -1.85742,5.51514c-1.0415,2.15625 -2.51807,3.97119 -3.70898,6.06152c-2.35986,4.13965 -4.81201,8.26172 -7.89111,11.91943c-0.65479,0.77783 -3.30908,2.82715 -4.22461,3.48926c0.35742,1.36377 0.69287,2.62354 1.08838,3.98877c0.43213,1.49707 0.02783,1.98486 -0.71045,3.16846c-4.05469,2.26758 -4.72852,-2.95459 -6.29004,-5.63965c-3.33545,-0.03369 -5.15479,0.00146 -8.43164,-1.16162c-1.1499,-0.40869 -3.31787,-1.45752 -4.38867,-1.58496c-0.55078,-0.09668 -2.61182,-1.23193 -3.38232,-1.51465c-5.70513,-2.0918 -11.88677,-4.71826 -15.99653,-9.375c-1.68633,-1.91016 -2.54004,-4.00928 -3.97148,-5.66748c-1.90605,-2.20898 -2.93906,-5.5957 -3.73506,-8.17969c-0.89619,1.51611 -1.37915,1.65527 -2.10469,2.79492c-1.2353,1.94238 -2.70762,4.76221 -4.35337,6.5127c-4.01616,4.27148 -10.26211,9.15674 -15.67046,11.42432c-1.44507,0.4292 -3.59194,1.00781 -5.06133,0.99902c-8.44907,-0.04834 -10.93857,1.31836 -15.79146,-6.32666c-4.52739,-7.13232 -4.99805,-10.1543 -5.39751,-18.31494c-0.98232,-0.30615 -1.95938,-0.62842 -2.93086,-0.96826c-5.12065,-1.81055 -6.64717,-3.104 -9.70518,-7.43701c-5.61914,-7.96289 -5.20312,-17.29248 -2.18555,-26.19785c1.71445,-5.05957 3.98408,-7.65015 8.94023,-10.03521c1.03286,-0.48296 2.10894,-0.75513 3.19966,-1.07344c3.37354,-0.98423 6.848,-1.56636 10.31938,-2.07671c0.88418,-0.15278 2.11992,-0.04204 2.96719,-0.24082c3.34175,-0.78398 6.70532,-0.81401 10.1105,-0.52456c0.8584,0.0731 1.92817,0.56543 2.77046,0.62241c6.96841,0.47197 13.31147,2.02236 19.80791,4.46514c-3.40576,-5.89438 -1.38032,-17.677 1.8936,-23.43413c0.571,-1.004 3.14561,-3.31011 4.07358,-4.19092c-0.9186,-0.56016 -7.97051,-4.42881 -8.63555,-4.05015c-2.38345,1.35645 -3.56177,1.95513 -5.55,-0.78047c-1.3355,-1.83735 -0.88945,-3.1519 -0.47007,-5.13999c1.31777,-1.41548 2.08799,-1.93198 3.86514,-2.66748c0.82354,0.14502 1.19297,0.22998 2.04741,0.19541c1.53223,1.39863 1.88232,2.02119 2.57695,3.91567c3.63252,1.88452 7.52476,3.82998 11.18511,5.69238c0.28066,0.14282 2.53213,-0.22046 3.21724,-0.21606l0.19834,0.00322c1.03345,-0.60469 2.07173,-1.20117 3.11455,-1.78931c0.63618,-2.68359 3.80801,-8.2147 5.23198,-10.82036c-0.33618,-1.5709 -0.29941,-2.67437 -0.24521,-4.27793c0.82148,-0.90542 1.05469,-1.4729 2.17251,-2.19009zM157.91895,138.7623c-1.80615,0.45762 -4.72119,0.70195 -5.29248,-1.67036c-0.13477,-0.54712 -0.03662,-1.12603 0.27246,-1.59771c0.49072,-0.74941 1.33887,-1.11563 2.19434,-1.24995c0.38525,-0.05698 0.77197,-0.10093 1.15869,-0.13184c0.68701,-1.8145 1.01221,-2.52905 2.00244,-4.17378c-3.51123,1.823 -5.56934,2.86597 -9.42187,3.78105c-2.31738,0.5502 -4.95996,2.18203 -7.54189,2.45098c-1.98472,0.44282 -4.22314,1.71636 -6.25957,2.16885c-1.77715,0.51021 -3.68247,0.59385 -5.52554,0.72437c0.71895,0.58198 3.30337,2.39575 4.14302,2.14497c1.56548,-0.46729 1.82695,-0.61875 3.49893,-0.55898l1.13467,1.20732c-0.00366,0.61436 0.00674,1.28276 -0.01538,1.89155c-1.01353,1.32539 -1.53765,1.9002 -3.33179,2.26758c-0.8833,0.18105 -2.81631,0.01597 -3.6438,-0.38584c-2.39106,-1.16089 -4.97124,-2.64404 -7.29082,-3.94512c-3.4062,-1.93667 -7.01938,-3.48413 -10.77144,-4.61323c-10.19546,-3.11646 -21.98115,-3.66958 -32.44131,-1.79941c-3.76216,0.67266 -10.77715,2.19814 -13.02202,5.53198c-2.87593,4.27104 -4.35293,11.31782 -3.70591,16.45649c0.16245,1.17188 0.43872,2.4126 0.59077,3.58008c0.71294,1.19385 1.63491,3.55371 2.2166,4.88965c1.7606,4.40332 6.61919,6.2959 10.88071,7.40771c2.51455,0.65625 7.2564,1.45313 9.91318,1.12354c5.51895,-0.68555 10.77524,-1.00635 15.68335,-3.89941c6.44253,-3.79834 11.96602,-8.35107 17.8522,-12.79687l6.10781,-4.59229c1.148,-0.8584 2.36382,-1.66699 3.42217,-2.62207c2.66353,0.17432 4.22505,-0.30322 4.90664,2.76709c1.54937,-0.16992 2.91592,-0.14795 4.38076,-0.23584c1.00752,-0.05859 3.51064,-0.56543 4.46455,-0.71045c3.50742,-0.53467 14.13193,-4.93213 16.58994,-7.20015c-0.05713,-1.03799 -0.56836,-2.8604 0.22266,-3.48486c1.04297,-0.82485 1.75342,-0.93442 2.91211,-1.96934c2.42139,-0.09287 4.41211,0.56235 6.38232,0.51255c8.354,-0.21123 18.08203,0.4251 26.30566,-0.07295c10.42529,-0.63149 28.48389,-12.77095 27.54639,-24.496c-0.47021,-5.88589 -3.26807,-12.19321 -8.08447,-15.88667c-3.89355,-3.18237 -6.16846,-5.29277 -11.10352,-5.21865c-1.49561,0.68936 -3.11279,0.89517 -4.60107,1.46206c-7.98779,3.04497 -15.375,7.62334 -21.78076,13.2728c-0.9624,0.84946 -1.91162,2.44951 -2.73193,3.10986c-2.42285,1.95278 -3.9917,3.65435 -5.85205,6.14634c-2.12549,2.8478 -4.12793,5.70278 -5.41699,9.06006c-0.43066,1.07666 -1.43555,2.29263 -1.83838,3.43813c-0.83057,1.76162 -1.66553,4.08545 -2.71436,5.68008c-0.29297,0.44487 -1.85742,1.69687 -2.39502,2.23667zM182.63525,179.14307c-1.74023,0.89355 -3.92725,1.72119 -5.52246,2.65869c-3.66064,2.15186 -7.17187,4.125 -11.27197,5.35693c-1.40771,0.42334 -3.00439,0.69141 -4.42676,1.11182c-5.65283,2.49316 -11.31445,3.36621 -17.39443,4.09863c-1.98032,0.2373 -3.87451,0.99902 -6.03955,1.15869c1.35659,0.67969 2.2522,1.31689 3.46216,1.96289c0.58506,0.16406 0.90571,0.68848 1.40947,0.96826c5.62339,3.13037 11.64243,1.23047 17.33481,-0.41455c3.44824,-0.98291 6.8584,-2.09326 10.22461,-3.32959c3.57129,-1.3374 8.94434,-4.86475 10.41211,-8.50342c0.47607,-1.18066 1.67578,-3.67529 1.94678,-4.84424zM176.76416,154.86621c-5.6748,3.50098 -11.57812,7.14111 -17.7085,9.80127c-1.6875,0.73242 -3.84375,1.09717 -5.54443,1.70508c-2.93848,1.04883 -5.04053,1.67285 -8.11729,2.17969c-3.16465,0.52588 -6.34512,0.95215 -9.53657,1.27734c-2.23433,0.21094 -4.40508,-0.05566 -6.58213,0.65039c-0.19336,0.06299 -0.69785,1.05615 -0.69771,1.28613c-0.60498,2.41846 0.17373,3.66797 0.6958,5.79053h2.82612c2.03232,0.06152 3.23848,-0.30908 5.20049,-0.50391c1.03696,-0.10107 2.15142,-0.02783 3.17783,-0.17139c9.52075,-1.32861 18.57495,-4.11328 27.21167,-8.34082c3.24316,-1.58643 5.79199,-2.56787 8.67627,-4.91016c1.00928,-0.82031 2.84033,-1.89697 3.9917,-2.70557c0.78369,-1.77686 -2.07129,-5.39209 -3.59326,-6.05859zM128.60244,157.7373c-5.19888,4.2334 -10.88027,8.21338 -16.30781,12.19922c-3.76714,2.76709 -7.85449,6.00732 -12.39214,7.44287c-3.09756,0.81445 -8.17764,1.48828 -11.36689,1.57178c-2.34727,0.06299 -4.88804,-0.15527 -7.30928,-0.04102l0.02798,0.2124c0.18179,1.45752 -0.14253,2.38477 -0.01479,3.5332c0.43184,3.8833 2.5147,7.57471 4.31162,10.98193c0.91187,1.64063 1.37256,2.18848 2.81646,3.4541c3.55811,0.50537 6.10386,0.77197 9.64556,0.03076c10.80762,-2.25879 18.60806,-12.12744 22.82476,-21.78662c0.74839,-1.71387 1.97695,-3.27979 2.59717,-5.07129c1.43467,-3.88184 2.83389,-8.55908 5.13311,-12.00732c0.15527,-0.23437 0.09771,-0.10254 0.14531,-0.41895zM182.40674,152.27051c1.14551,0.53027 2.61621,1.01221 3.67676,1.65381c5.87988,3.55518 11.46973,5.5166 18.29883,6.32666c4.55566,0.53906 7.89551,0.06299 12.41748,-1.45459c2.27637,-0.76465 7.10449,-4.02979 8.42432,-6.33984c1.69336,-5.03613 -1.6377,-15.08569 -4.64648,-19.16821c-4.16455,4.07695 -11.73926,8.96748 -17.4624,10.43423c-4.35937,1.11753 -10.12939,0.99932 -14.60889,1.00415c-4.06787,0.00996 -8.13574,-0.00132 -12.20361,-0.03398c-1.90283,-0.02065 -5.94434,-0.8877 -7.06348,-0.30249c0.97559,0.56396 2.03906,1.0418 3.06152,1.51934c3.61084,1.68516 6.75293,4.31895 10.10596,6.36094z" fill="#febd58"/></g></svg></svg>